<svg width="78" height="37" viewBox="0 0 78 37" fill="none" xmlns="http://www.w3.org/2000/svg">
<g id="1800flowers">
<g id="Group">
<g id="Group_2">
<path id="Vector" d="M26.8081 20.3063H27.7452V14.6835L26.8508 14.8113V13.7889C27.4896 13.6185 28.0008 13.2777 28.512 12.8517H29.3638V20.349H30.3009V21.6269H26.8508V20.3064H26.8081V20.3063Z" fill="#FFFEFA"/>
<path id="Vector_2" d="M33.6664 17.9635C34.3055 18.5598 34.6462 19.0284 34.6462 19.5821C34.6462 20.1358 34.3055 20.5192 33.8369 20.5192C33.3683 20.5192 33.1127 20.1785 33.1127 19.497C33.1552 18.9857 33.3257 18.432 33.6664 17.9635ZM34.0923 16.0466C33.6238 15.5354 33.4108 15.152 33.4108 14.6834C33.4108 14.1723 33.7091 13.8315 33.9645 13.8315C34.3479 13.8315 34.6036 14.1723 34.6036 14.7261C34.6036 15.1946 34.4332 15.6206 34.0923 16.0466ZM33.0274 17.2393C32.1756 17.9208 31.7495 18.6025 31.7495 19.497C31.7495 20.8175 32.6015 21.712 33.8794 21.712C35.1999 21.712 36.0943 20.8602 36.0943 19.3691C36.0943 18.3893 35.6685 17.5801 34.8591 16.7707C35.5833 16.0892 35.924 15.4502 35.924 14.5983C35.924 13.4481 35.1572 12.6388 33.9645 12.6388C32.857 12.6388 32.0051 13.5333 32.0051 14.8538C32.0051 15.7483 32.3459 16.5577 33.0274 17.2393Z" fill="#FFFEFA"/>
<path id="Vector_3" d="M38.2663 17.1541C38.2663 16.8132 38.2663 16.515 38.2663 16.2595C38.2663 14.5982 38.309 13.8741 38.7776 13.8741C39.2886 13.8741 39.2886 14.5982 39.2886 16.2595C39.2886 16.515 39.2886 16.8132 39.2886 17.1541C39.2886 17.4948 39.2886 17.793 39.2886 18.0912C39.2886 19.7098 39.2461 20.4767 38.7776 20.4767C38.309 20.4767 38.2663 19.7098 38.2663 18.0912C38.2663 17.793 38.2663 17.4948 38.2663 17.1541ZM36.605 17.1967C36.605 20.2211 37.2865 21.7546 38.7775 21.7546C40.1831 21.7546 40.9498 20.2211 40.9498 17.1967C40.9498 14.1722 40.2259 12.6813 38.7348 12.6813C37.3718 12.6813 36.605 14.1722 36.605 17.1967Z" fill="#FFFEFA"/>
<path id="Vector_4" d="M43.3782 17.1541C43.3782 16.8132 43.3782 16.515 43.3782 16.2595C43.3782 14.5982 43.4208 13.8741 43.8894 13.8741C44.358 13.8741 44.4005 14.5982 44.4005 16.2595C44.4005 16.515 44.4005 16.8132 44.4005 17.1541C44.4005 17.4948 44.4005 17.793 44.4005 18.0912C44.4005 19.7098 44.358 20.4767 43.8894 20.4767C43.4208 20.4767 43.3782 19.7098 43.3782 18.0912C43.3782 17.793 43.3782 17.4948 43.3782 17.1541ZM41.7168 17.1967C41.7168 20.2211 42.441 21.7546 43.9319 21.7546C45.3376 21.7546 46.1043 20.2211 46.1043 17.1967C46.1043 14.1722 45.3802 12.6813 43.8894 12.6813C42.4835 12.6813 41.7168 14.1722 41.7168 17.1967Z" fill="#FFFEFA"/>
</g>
<path id="Vector_5" d="M31.4512 17.2392C31.4512 17.6226 31.1105 17.9633 30.7271 17.9633C30.3437 17.9633 30.0029 17.6226 30.0029 17.2392C30.0029 16.8558 30.3437 16.515 30.7271 16.515C31.1529 16.515 31.4512 16.8557 31.4512 17.2392Z" fill="#FFFEFA"/>
<path id="Vector_6" d="M21.0151 13.065C20.2483 14.9392 19.0555 16.6005 17.0535 17.3673C16.5424 17.4951 15.9886 17.5376 15.4775 17.3673C14.5404 14.3855 15.6904 11.0203 17.5647 8.59226C18.8852 6.71806 20.9724 5.48272 23.2727 4.54559C21.1854 6.93097 22.293 10.2961 21.0151 13.065Z" fill="#FFFEFA"/>
<path id="Vector_7" d="M19.2261 5.48247C16.0739 7.99563 13.2199 12.4258 14.37 16.6855C12.4958 16.2169 11.3031 14.3427 10.8771 12.4684C10.5362 10.5515 10.9622 8.46423 12.4106 7.10116C14.0719 5.43994 15.9462 3.43784 15.7332 0.88208C17.6074 1.56352 18.6724 3.60815 19.2261 5.48247Z" fill="#FFFEFA"/>
<g id="Group_3">
<path id="Vector_8" d="M18.1183 25.2047H16.9683V23.2455H18.1183V21.4988C18.1183 19.4968 19.013 18.8151 20.5037 18.8151C20.9298 18.8151 21.3131 18.858 21.7392 18.9004V20.9449C21.6114 20.9449 21.4409 20.9449 21.3131 20.9449C20.6742 20.9449 20.4613 21.2006 20.4613 21.8396V23.2879H21.7816V25.2475H20.4613V34.4909H18.2036V25.2047H18.1183Z" fill="#FFFEFA"/>
<path id="Vector_9" d="M22.5913 19.1134H24.849V34.4909H22.5913V19.1134Z" fill="#FFFEFA"/>
<path id="Vector_10" d="M29.6198 22.9472C32.346 22.9045 33.1129 24.9492 33.1129 28.8682C33.1129 32.7018 32.2182 34.7892 29.6198 34.7892C26.8936 34.8316 26.127 32.7871 26.127 28.8682C26.127 25.0343 27.0214 22.9472 29.6198 22.9472ZM29.6198 32.8296C30.557 32.8296 30.8552 31.6795 30.8552 28.8682C30.8552 26.0569 30.557 24.9066 29.6198 24.9066C28.5125 24.9066 28.3846 26.5679 28.3846 28.8682C28.4271 31.1682 28.5125 32.8296 29.6198 32.8296Z" fill="#FFFEFA"/>
<path id="Vector_11" d="M33.3682 23.2451H35.6258L36.6481 31.2108H36.6907L37.7981 23.2451H40.2687L41.4188 31.2108H41.4614L42.5263 23.2451H44.6988L42.782 34.4482H40.2263L39.0759 26.4826H39.0335L37.926 34.4482H35.2849L33.3682 23.2451Z" fill="#FFFEFA"/>
<path id="Vector_12" d="M47.0844 29.2939V30.1886C47.0844 31.5089 47.3824 32.787 48.1918 32.787C48.9586 32.787 49.2567 32.0628 49.3845 30.6996H51.4293C51.344 33.298 50.3643 34.7464 48.2344 34.7464C44.9546 34.7464 44.8267 31.5516 44.8267 28.7402C44.8267 25.7157 45.2952 22.947 48.3623 22.947C51.0031 22.947 51.5996 25.2047 51.5996 28.6549V29.2939H47.0844ZM49.4272 27.59C49.3846 25.8861 49.2143 24.9063 48.2771 24.9063C47.3825 24.9063 47.1269 26.0991 47.1269 27.1215V27.5474H49.4272V27.59Z" fill="#FFFEFA"/>
<path id="Vector_13" d="M52.4517 23.2451H54.6242V24.7361H54.6669C55.1354 23.6712 55.7743 22.947 56.7114 22.947C56.8391 22.947 57.0096 22.9896 57.1375 22.9896V25.7583C56.9245 25.7583 56.6688 25.7157 56.4133 25.7157C55.6039 25.7157 54.752 26.2269 54.752 27.7604V34.4907H52.4943V23.2451H52.4517Z" fill="#FFFEFA"/>
<path id="Vector_14" d="M59.5655 30.8276V31.211C59.5655 32.1908 59.9916 32.8297 60.7582 32.8297C61.4398 32.8297 61.9083 32.4037 61.9083 31.5091C61.9083 30.7851 61.5251 30.4442 61.099 30.2313L59.5229 29.507C58.2875 28.9533 57.6485 27.9735 57.6485 26.3974C57.6485 24.5231 58.5857 23.0324 60.8859 23.0324C62.9307 23.0324 63.9104 24.1826 63.9104 26.2271V26.6957H61.8657C61.8657 25.5881 61.6102 24.9919 60.8433 24.9919C60.2472 24.9919 59.7784 25.4178 59.7784 26.1847C59.7784 26.7383 59.9915 27.1642 60.7582 27.5049L62.1214 28.1013C63.5696 28.6977 64.0809 29.6348 64.0809 31.2961C64.0809 33.6389 62.7178 34.8316 60.8009 34.8316C58.2449 34.8316 57.5635 33.4259 57.5635 31.2536V30.8701H59.5655V30.8276Z" fill="#FFFEFA"/>
</g>
<g id="Group_4">
<path id="Vector_15" d="M64.3784 33.852C64.3784 33.6389 64.4637 33.4686 64.5914 33.2981C64.7192 33.1703 64.9321 33.0852 65.1024 33.0852C65.3155 33.0852 65.4859 33.1703 65.6563 33.2981C65.7842 33.4259 65.8693 33.6389 65.8693 33.852C65.8693 34.0649 65.7841 34.2352 65.6563 34.3631C65.5285 34.4909 65.3581 34.5762 65.1024 34.5762C64.8895 34.5762 64.7192 34.4908 64.5914 34.3631C64.4209 34.2352 64.3784 34.065 64.3784 33.852Z" fill="#FFFEFA"/>
<path id="Vector_16" d="M67.7007 34.5337C66.849 34.5337 66.4229 33.8521 66.4229 32.5316C66.4229 31.0832 66.9341 30.3166 67.7007 30.3166C68.425 30.3166 68.8084 30.8277 68.8084 31.7648C68.8084 31.8074 68.8084 31.8501 68.8084 31.8926H67.9991C67.9991 31.8074 67.9991 31.7648 67.9991 31.7223C67.9991 31.2538 67.9138 31.0406 67.7434 31.0406C67.4878 31.0406 67.4878 31.424 67.4878 32.1482C67.4878 33.2131 67.5305 33.7244 67.786 33.7244C67.999 33.7244 68.1268 33.4687 68.1268 32.915V32.8724L68.8934 32.915C68.8935 33.9799 68.425 34.5337 67.7007 34.5337Z" fill="#FFFEFA"/>
<path id="Vector_17" d="M70.5979 31.083C70.896 31.083 70.9812 31.509 70.9812 32.4462C70.9812 33.3407 70.896 33.8092 70.5979 33.8092C70.3422 33.8092 70.2571 33.3833 70.2571 32.4462C70.2571 31.509 70.3422 31.083 70.5979 31.083ZM69.2773 32.4462C69.2773 33.852 69.7459 34.5761 70.6405 34.5761C71.4923 34.5761 72.0035 33.852 72.0035 32.4462C72.0035 31.0404 71.5349 30.3163 70.6405 30.3163C69.7033 30.3164 69.2773 31.0404 69.2773 32.4462Z" fill="#FFFEFA"/>
<path id="Vector_18" d="M72.4719 30.4016H73.409V30.7424C73.6647 30.4441 73.9203 30.2738 74.1759 30.2738C74.474 30.2738 74.6869 30.4441 74.8148 30.7424C75.0703 30.4441 75.326 30.2738 75.6241 30.2738C76.0501 30.2738 76.2631 30.5295 76.2631 31.0405V34.3631H75.326V31.2961C75.326 31.1258 75.2407 31.0405 75.113 31.0405C74.9853 31.0405 74.9 31.1258 74.8148 31.2536V34.3631H73.8776V31.2961C73.8776 31.1258 73.7924 31.0405 73.6647 31.0405C73.5369 31.0405 73.4517 31.1258 73.3663 31.2536V34.3631H72.4292V30.4016H72.4719Z" fill="#FFFEFA"/>
</g>
<g id="Group_5">
<path id="Vector_19" d="M14.5403 17.6227C14.4126 17.5801 14.2847 17.6653 14.2421 17.7931C13.2198 19.923 12.2827 22.1807 11.6863 24.4809C11.0048 22.1806 10.0677 19.923 8.96011 17.8357C6.7451 13.7038 4.40213 9.6145 0.824119 7.01609C0.696338 6.93084 0.525839 6.93084 0.440713 7.05862C0.355525 7.1864 0.355525 7.39937 0.483368 7.52721C3.67816 10.509 5.29679 15.0244 7.38395 18.9858C9.04524 23.5438 10.6214 28.3572 10.1101 33.3837C10.1953 34.3208 10.9195 34.9597 11.6863 34.8746C12.0271 34.8319 12.2827 34.6616 12.4957 34.406C12.7086 34.1504 12.8791 33.8096 12.9215 33.4262C12.5808 31.7224 12.453 30.0185 12.5383 28.3572C12.5808 26.8663 12.7937 25.3327 13.1772 23.8845C13.6884 21.9251 14.4126 19.9656 14.6682 17.9208C14.7107 17.793 14.6682 17.6653 14.5403 17.6227Z" fill="#FFFEFA"/>
</g>
<g id="Group_6">
<path id="Vector_20" d="M77.0726 30.6997C77.0726 30.9126 76.9023 31.0404 76.7319 31.0404C76.5189 31.0404 76.3911 30.8701 76.3911 30.6997C76.3911 30.5294 76.5614 30.3589 76.7319 30.3589C76.9023 30.3589 77.0726 30.4868 77.0726 30.6997ZM76.4762 30.6997C76.4762 30.8701 76.6041 30.9553 76.7319 30.9553C76.8596 30.9553 76.9874 30.8275 76.9874 30.6997C76.9874 30.5294 76.8596 30.4441 76.7319 30.4441C76.5614 30.4016 76.4762 30.5294 76.4762 30.6997ZM76.6891 30.8701H76.604V30.5294C76.6467 30.5294 76.6891 30.5294 76.7318 30.5294C76.8169 30.5294 76.8169 30.5294 76.8596 30.5719C76.8596 30.5719 76.9022 30.6145 76.9022 30.6572C76.9022 30.6997 76.8596 30.7424 76.8169 30.7424C76.8595 30.7424 76.8595 30.785 76.8595 30.8275C76.8595 30.8702 76.8595 30.9127 76.9022 30.9127H76.8168C76.8168 30.9127 76.8168 30.8703 76.7744 30.8275C76.7744 30.7851 76.7317 30.7851 76.689 30.7851H76.6466V30.8703H76.6891V30.8701ZM76.6891 30.6572C76.7745 30.6572 76.8169 30.6572 76.8169 30.6146C76.8169 30.5719 76.7745 30.5719 76.7318 30.5719H76.6891V30.6572Z" fill="#FFFEFA"/>
</g>
</g>
</g>
</svg>
