<svg width="74" height="41" viewBox="0 0 74 41" fill="none" xmlns="http://www.w3.org/2000/svg">
<g id="american-national">
<g id="XMLID 1">
<path id="Union" fill-rule="evenodd" clip-rule="evenodd" d="M43.0237 8.83437C42.7269 8.88984 42.0147 8.92682 41.7971 8.88984C41.6191 8.88984 41.5597 8.98228 41.5202 9.16717C41.4806 9.37055 41.3025 10.4244 41.2828 10.6093C41.2432 10.8127 41.1245 10.8681 40.8871 10.7572C40.6995 10.6775 40.3062 10.3643 40.1251 10.2201C40.0961 10.1971 40.0726 10.1783 40.0562 10.1656C39.9375 10.0731 39.7792 10.0731 39.6605 10.221C39.5418 10.3874 39.0275 11.2194 38.9088 11.4413C38.7505 11.6631 38.6318 11.6446 38.4933 11.4967C38.3845 11.3951 38.1542 10.9963 37.9951 10.7209C37.9228 10.5957 37.8652 10.496 37.8405 10.4614C37.7416 10.3135 37.6229 10.258 37.4448 10.4244C37.3415 10.5209 37.0784 10.8415 36.8448 11.1262L36.8447 11.1263C36.6757 11.3323 36.5221 11.5193 36.4557 11.5892C36.2974 11.7556 36.1589 11.7001 36.0402 11.5337C35.9649 11.4047 35.8418 11.0226 35.7468 10.7275L35.7467 10.7272L35.7466 10.7271C35.6919 10.5572 35.6465 10.4162 35.6248 10.3689C35.5852 10.2025 35.4072 10.1656 35.2687 10.258C35.1582 10.3154 34.7809 10.6363 34.468 10.9025L34.4679 10.9025C34.2768 11.0651 34.1097 11.2073 34.0422 11.2564C33.8641 11.3673 33.8048 11.2934 33.7058 11.09C33.6069 10.8866 33.4684 10.2025 33.4289 9.99916C33.3893 9.79578 33.33 9.74032 33.0926 9.72183C32.9662 9.70215 32.5597 9.672 32.1623 9.64252C31.813 9.61661 31.4707 9.59122 31.3319 9.57392C31.0943 9.5422 31.1333 9.48328 31.2366 9.32715C31.2537 9.30125 31.2726 9.27269 31.2923 9.24112C31.4703 9.01926 32.4002 8.24274 32.5782 8.13181C32.7562 8.02087 32.6771 7.90994 32.5386 7.85448C32.5134 7.84269 32.4436 7.81173 32.3484 7.76954L32.3482 7.76943L32.3481 7.76938C31.9952 7.61292 31.2953 7.30258 31.233 7.24435C31.1143 7.15191 31.3319 6.98551 31.5693 6.81912C31.8342 6.65992 32.4432 6.41612 32.9805 6.20103L32.9806 6.20099L32.9807 6.20097L33.053 6.17201C33.33 6.06108 33.5674 5.89468 33.8245 5.63584C34.1015 5.377 35.4665 4.19373 36.6733 3.30628L36.792 3.21383L36.9485 3.09717C38.0554 2.27156 39.0825 1.50541 40.254 1.34648C41.5597 1.1431 42.5687 1.40195 42.9841 1.73474L43.083 1.82719C43.2017 1.93812 43.36 2.08603 43.5578 2.14149C43.6567 2.17847 43.7754 2.17847 44.0128 2.17847C44.3096 2.17847 44.725 2.21545 45.002 2.27091C45.3383 2.36335 45.7142 2.49278 45.9911 3.15837C45.8329 3.15837 45.635 3.15837 45.4174 3.19534H45.2987C44.725 3.25081 43.8743 3.36174 43.0039 4.00884C41.9554 4.78536 41.5993 5.82073 41.5399 6.09806C41.4806 6.30143 41.441 6.70818 41.7773 6.98551L41.896 7.09644C42.1136 7.29982 42.905 8.20576 43.0632 8.40914C43.2611 8.61251 43.36 8.77891 43.0237 8.83437ZM42.3115 18.7443C42.3115 19.0771 42.2521 19.2989 42.1334 19.3914C42.0259 19.4919 41.7884 19.4406 41.6123 19.4026L41.5597 19.3914C41.5142 19.3807 41.4654 19.3762 41.4162 19.3717C41.2942 19.3604 41.1695 19.3488 41.0849 19.2435L41.0718 19.2269L41.0597 19.2114C40.9354 19.0525 40.7089 18.7628 40.1551 18.7628H39.9771C39.3661 18.7628 39.1605 19.0728 39.058 19.2273L39.0473 19.2435C38.9618 19.35 38.8455 19.3606 38.7207 19.372C38.6721 19.3765 38.6223 19.381 38.5725 19.3914C38.4142 19.4284 38.1175 19.4838 37.9988 19.3914C37.8801 19.2805 37.8207 19.0771 37.8207 18.7443C37.7812 15.7306 38.8099 13.0683 40.0562 13.0683C41.3223 13.0683 42.3313 15.7491 42.3115 18.7443ZM40.0257 21.4675C40.0451 21.5104 40.0623 21.5417 40.0762 21.5547C40.1355 21.6102 40.1949 21.5917 40.2542 21.5547C40.3531 21.4992 40.4718 21.111 40.5312 20.9076C40.6301 20.7042 41.0456 20.7042 41.5995 20.7042C42.0064 20.7042 42.5878 20.7857 42.9201 20.8323L42.9207 20.8324C42.9758 20.8401 43.024 20.8469 43.0634 20.8521C43.3602 20.8891 43.0634 20.3714 42.8854 20.2975C42.6084 20.1496 42.1336 20.0386 41.4808 19.9647C41.0653 19.9277 40.7884 19.6504 40.7092 19.5209C40.6103 19.41 40.3729 19.2436 40.1157 19.2436C39.8586 19.2436 39.6014 19.3915 39.5223 19.5209C39.4233 19.6319 39.1266 19.9462 38.8101 19.9647C38.1177 20.0571 37.6824 20.168 37.4055 20.2975C37.2472 20.3899 36.9505 20.8891 37.2274 20.8521C37.3026 20.8428 37.4044 20.8251 37.5228 20.8045C37.8722 20.7439 38.3666 20.6581 38.7507 20.6857L38.813 20.6896L38.9347 20.697C39.3783 20.7234 39.6765 20.7412 39.7825 20.8814C39.8428 21.0856 39.9583 21.4076 40.0166 21.4621L40.0257 21.4675ZM33.3497 13.0683C34.5763 13.0683 35.605 15.7676 35.5852 18.7443C35.5852 19.0771 35.5259 19.2989 35.4072 19.3914C35.2996 19.4919 35.0621 19.4406 34.886 19.4026L34.8335 19.3914C34.7879 19.3807 34.7391 19.3762 34.6899 19.3717C34.5679 19.3604 34.4432 19.3488 34.3587 19.2435L34.3438 19.2247L34.3334 19.2114C34.2092 19.0525 33.9826 18.7628 33.4289 18.7628H33.2508C32.6398 18.7628 32.4343 19.0728 32.3317 19.2273L32.321 19.2435C32.2355 19.35 32.1193 19.3606 31.9944 19.372H31.9944C31.9459 19.3765 31.896 19.381 31.8462 19.3914C31.688 19.4284 31.3912 19.4838 31.2725 19.3914C31.1538 19.2805 31.0945 19.0771 31.0945 18.7443C31.0945 15.7491 32.1034 13.0683 33.3497 13.0683ZM72.4213 17.9308C72.2615 17.7814 71.0643 16.6708 69.4576 15.1804L69.4575 15.1803L69.4467 15.1702L69.445 15.1687C65.6804 11.6764 59.683 6.11287 59.503 5.93166C59.2062 5.67282 58.8699 5.43247 58.3951 5.34002C58.0588 5.28456 50.561 4.34164 50.2049 4.30466C49.8093 4.26768 49.5521 4.34164 49.1564 4.52652L49.1169 4.5635C48.9586 4.65594 45.7142 6.6712 45.3976 6.89307C45.1009 7.09644 44.9822 7.11493 44.8833 7.11493H43.4787C42.9523 7.11493 42.7346 6.94668 42.5249 6.78459C42.4745 6.74563 42.4245 6.70703 42.3708 6.67121L42.2521 6.56027C42.1334 6.44934 42.1532 6.28294 42.1928 6.24597C42.351 5.7098 42.7269 4.97025 43.4391 4.47106C44.1909 3.9164 44.9031 3.82396 45.4372 3.76849H45.5559C45.7933 3.73151 45.9713 3.73151 46.1494 3.76849C46.2104 3.76849 46.274 3.77093 46.3358 3.7733C46.5147 3.78017 46.679 3.78647 46.7231 3.73151C46.7825 3.67605 46.7825 3.47267 46.7627 3.36174V3.38023C46.4066 2.15998 45.7735 1.88265 45.2196 1.77172C44.8833 1.71625 44.4481 1.67927 44.1513 1.66079C44.0326 1.66079 43.8546 1.66079 43.815 1.62381C43.7851 1.62381 43.7327 1.57111 43.6833 1.52142C43.6672 1.5053 43.6515 1.48949 43.6369 1.4759L43.5182 1.36497C42.9248 0.865777 41.6389 0.643911 40.2936 0.828798C38.9286 1.03217 37.7614 1.88265 36.5348 2.82557L36.4161 2.91801C35.1896 3.84244 33.8245 5.02572 33.5278 5.30305C33.3102 5.50642 33.1123 5.61735 32.8947 5.72828C32.8947 5.72828 31.7275 6.22748 31.1736 6.44934C30.8373 6.59725 30.5405 6.78214 30.3031 6.94853C30.2311 7.00465 30.1445 7.05395 30.0698 7.09644C30.0215 7.12395 29.9781 7.1486 29.9471 7.1704H28.582C28.4831 7.1704 28.3644 7.13342 28.0677 6.94853C27.7313 6.74516 24.4869 4.7299 24.3484 4.61897L24.3089 4.58199C23.9132 4.37861 23.656 4.32315 23.2604 4.36013C22.8647 4.32315 15.3669 5.28456 15.0504 5.34002C14.5756 5.43247 14.2195 5.7098 13.9425 5.93166C13.6458 6.1905 1.55832 17.4316 1.02418 17.9308C0.786783 18.2081 0.50982 18.5409 0.56917 18.9846C0.727434 20.1309 0.964831 20.2603 1.08353 20.3158C1.18245 20.3713 1.26158 20.4083 1.38028 20.4083C1.65724 20.4083 1.97377 20.2973 2.38921 20.1309C2.68596 20.02 3.63555 19.5948 4.05099 19.3174C4.40709 19.0586 5.05993 18.3745 5.05993 18.3745C5.05993 18.3745 5.21819 18.2081 5.29733 18.1711C5.39624 18.1711 5.41603 18.2821 5.41603 18.319C5.41603 18.3375 5.47537 18.5871 5.53472 18.8367C5.59407 19.0863 5.65342 19.3359 5.65342 19.3544C5.67377 19.4076 5.69076 19.4546 5.70596 19.4966L5.70597 19.4967C5.76466 19.6589 5.79654 19.747 5.89082 19.8351C6.00952 19.946 6.22713 19.9276 6.54366 19.7981C6.87997 19.6872 8.24501 19.0956 8.44284 18.9846C8.66045 18.8737 8.79893 18.7628 8.91763 18.5964C8.91763 18.5964 14.4569 11.3673 14.5756 11.2009C14.6943 11.0345 14.6152 11.0345 14.4767 11.0345C14.4767 11.0345 13.8238 11.127 13.5469 11.1455C13.2699 11.1824 13.2501 11.053 13.2501 10.8311L13.3095 9.79578C13.3095 9.62938 13.1908 9.62938 13.0325 9.74032C12.5041 10.25 11.7815 10.9487 10.969 11.7343L10.9688 11.7346C7.97925 14.6253 3.77419 18.6914 3.55642 18.8367C3.31902 19.0401 2.62661 19.3914 2.15182 19.5578C2.11293 19.5729 2.06662 19.592 2.01601 19.6129C1.7576 19.7195 1.3871 19.8724 1.32093 19.7796C1.26158 19.6687 1.16266 19.3544 1.10331 18.8922C1.06467 18.6936 1.19585 18.5302 1.36785 18.316L1.38028 18.3006C2.82066 16.9667 4.69006 15.2298 6.55679 13.4954C10.3306 9.98912 14.0935 6.49297 14.2788 6.3569C14.5756 6.09806 14.813 5.93166 15.09 5.91317C15.8844 5.81192 17.1456 5.65153 18.4403 5.48688C20.692 5.20053 23.045 4.90129 23.2208 4.87781C23.4978 4.84083 23.6362 4.87781 23.9132 5.02572C24.0111 5.09227 24.7098 5.52562 25.4758 6.00075L25.4762 6.00098L25.4763 6.00105L25.4764 6.0011C26.4127 6.58188 27.4494 7.22495 27.6126 7.33679C27.949 7.55866 28.1864 7.66959 28.4831 7.66959C28.4831 7.66959 30.2042 7.66959 30.5603 7.70657C30.7977 7.74354 31.0153 7.85448 31.1538 7.92843C31.3121 8.03936 31.3319 8.1503 31.2725 8.24274C31.1736 8.33518 30.8769 8.68647 30.7582 8.85286C30.6395 9.00077 30.4812 9.00077 30.4812 9.00077H28.6414C28.1666 9.00077 27.9292 8.94531 27.2368 8.61251C26.8037 8.40437 25.4575 7.61043 24.4372 7.00867C23.8261 6.64829 23.332 6.35683 23.2208 6.30143C22.9241 6.13504 22.5877 6.13503 22.2316 6.15352L19.7983 6.37539C19.5609 6.41236 19.284 6.68969 19.5609 6.93005C19.7983 7.15191 21.6382 8.2982 22.6669 8.64949C22.8651 8.72215 23.1153 8.81908 23.4007 8.92963L23.4007 8.92964C24.5674 9.38166 26.3216 10.0612 27.5137 10.2395C28.8981 10.4411 30.1191 10.2457 30.6124 10.1668L30.6125 10.1668C30.662 10.1589 30.7041 10.1521 30.7384 10.1471C31.0153 10.1101 31.3121 10.1101 31.3912 10.2025C31.4901 10.295 31.5099 10.4614 31.4308 10.5908C31.3319 10.7387 30.1251 13.512 30.0064 16.5256C29.9501 18.4023 30.4101 19.5469 30.4744 19.7069L30.4812 19.7242C30.4812 19.7796 30.4416 19.8721 30.3625 19.9276C30.1251 20.1309 29.7888 20.5747 29.6701 20.9074C29.5712 21.1848 29.5118 21.4621 29.6107 21.5176C29.6645 21.5477 29.9344 21.5123 30.2967 21.4648L30.2968 21.4648L30.2968 21.4648L30.2969 21.4648C30.6012 21.4249 30.9707 21.3765 31.3319 21.3512C31.9649 21.3142 32.3408 21.3142 32.4002 21.3512C32.4991 21.4066 32.5584 21.4436 32.5782 21.5546C32.6771 21.7764 32.9936 22.3126 33.1123 22.3681C33.1717 22.405 33.231 22.405 33.2904 22.3681C33.4091 22.2756 33.7454 21.7579 33.8245 21.5546C33.8621 21.4492 33.9175 21.4106 33.9907 21.3595L34.0026 21.3512C34.1015 21.2957 34.5169 21.2957 35.0115 21.3142C35.1753 21.3333 35.3439 21.3635 35.5187 21.3948C35.8507 21.4541 36.2054 21.5176 36.5942 21.5176C36.9829 21.5176 37.3377 21.4541 37.6696 21.3948C37.8445 21.3635 38.013 21.3333 38.1768 21.3142C38.6516 21.2587 39.1066 21.2772 39.1858 21.3512C39.2847 21.4066 39.3045 21.4436 39.3638 21.5546C39.4627 21.7764 39.7792 22.2756 39.8979 22.3681C39.9573 22.405 40.0166 22.405 40.076 22.3681C40.1947 22.3126 40.531 21.7579 40.6101 21.5546C40.6477 21.4492 40.7031 21.4106 40.7763 21.3595L40.7882 21.3512C40.8871 21.2957 41.2432 21.2957 41.8565 21.3512C42.2378 21.3773 42.628 21.4279 42.9405 21.4684L42.9405 21.4684L42.9407 21.4684C43.2927 21.5141 43.5462 21.547 43.5776 21.5176C43.6765 21.4621 43.6172 21.1848 43.5182 20.9074C43.3995 20.5747 43.0632 20.1309 42.8258 19.9276C42.7269 19.8721 42.7071 19.7796 42.7071 19.7242C42.7071 19.7165 42.7174 19.6875 42.7349 19.6381C42.8437 19.3305 43.2331 18.2299 43.1819 16.5256C43.0632 13.549 41.8367 10.7387 41.7576 10.5908C41.6586 10.4429 41.6982 10.3135 41.7971 10.2025C41.896 10.1101 42.1928 10.0916 42.45 10.1471C42.4751 10.151 42.5054 10.1559 42.5404 10.1616L42.5407 10.1617L42.5408 10.1617C43.0006 10.2369 44.2779 10.4456 45.6746 10.2395C46.9779 10.0497 48.8603 9.30503 50.0088 8.85071L50.0092 8.85057L50.0107 8.84996L50.0117 8.84957C50.2045 8.77332 50.3764 8.70529 50.5215 8.64949C51.5304 8.27972 53.3702 7.1704 53.6274 6.93005C53.8648 6.70818 53.6274 6.43085 53.39 6.37539L50.9567 6.15352C50.6006 6.11655 50.2643 6.15352 49.9675 6.30143C49.8896 6.34516 49.6217 6.50252 49.2569 6.71681C48.2335 7.31797 46.4474 8.36717 45.9516 8.61251C45.2592 8.94531 44.9426 8.98228 44.4678 9.00077C44.1909 9.00077 44.0722 8.94531 44.0128 8.7974C43.9829 8.75263 43.9294 8.66384 43.8661 8.55869L43.8658 8.55822L43.8657 8.55816C43.7198 8.31593 43.5218 7.98725 43.4391 7.90994C43.2809 7.76203 43.3204 7.68808 43.4391 7.68808H44.7448C45.0415 7.68808 45.2789 7.57715 45.6153 7.35528C45.8658 7.18359 48.1609 5.75999 49.0126 5.2317L49.3147 5.04421C49.5917 4.8963 49.7301 4.87781 50.0071 4.8963C50.183 4.91978 52.5367 5.21911 54.7887 5.5055C56.083 5.67011 57.3437 5.83044 58.1379 5.93166C58.4149 5.98713 58.6523 6.15352 58.9491 6.37539C59.0047 6.42737 59.5035 6.88848 60.2908 7.61622L60.2935 7.61871L60.2968 7.62176C62.8719 10.0022 68.5178 15.2212 71.8476 18.319C72.0652 18.5409 72.1444 18.7073 72.1246 18.9107C72.0652 19.3914 71.9663 19.6872 71.907 19.7981C71.8638 19.8789 71.5692 19.7638 71.3204 19.6666C71.2274 19.6303 71.1407 19.5964 71.0761 19.5763C70.6013 19.4099 69.9089 19.0771 69.6715 18.8552C69.4062 18.6427 63.222 12.678 60.5287 10.0803L60.5278 10.0794L60.1954 9.75881C60.0767 9.64787 59.9184 9.64787 59.9184 9.81427L59.9778 10.8496C59.9778 11.053 59.9382 11.1824 59.681 11.1639C59.4041 11.127 58.7512 11.053 58.7512 11.053C58.6325 11.016 58.5336 11.053 58.6523 11.2194C58.771 11.3858 64.3103 18.6149 64.3103 18.6149C64.4685 18.7813 64.5872 18.8922 64.7851 19.0031C65.0027 19.1141 66.3677 19.7057 66.6842 19.8166C67.0206 19.9276 67.2184 19.9645 67.3371 19.8536C67.4558 19.7427 67.5151 19.6317 67.5745 19.3729C67.5745 19.3359 67.8119 18.3375 67.8119 18.3375C67.8119 18.3006 67.8514 18.1896 67.9306 18.1896C68.0295 18.1896 68.168 18.393 68.168 18.393C68.168 18.393 68.8208 19.0956 69.1769 19.3359C69.5924 19.6132 70.5222 20.0385 70.8387 20.1494L70.9475 20.1883C71.3132 20.3193 71.6133 20.4267 71.8476 20.4267C71.9663 20.4267 72.0652 20.3898 72.1444 20.3343C72.2433 20.2788 72.5005 20.1309 72.6587 19.0031C72.9144 18.5068 72.6617 18.2115 72.4254 17.9355L72.4213 17.9308ZM54.4182 7.29997L57.1483 9.46314C57.1906 9.48786 57.2258 9.50993 57.2597 9.53113C57.3524 9.58921 57.4347 9.64071 57.6231 9.72198C57.8605 9.81443 59.0277 10.2027 59.0277 10.2027C59.1464 10.2397 59.2057 10.1472 59.1859 10.0363C59.1584 9.98476 59.1052 9.73373 59.0502 9.47412L59.0502 9.474L59.0501 9.47384C58.9867 9.17468 58.921 8.86422 58.8892 8.83453C58.8298 8.74208 58.7705 8.66813 58.6518 8.63115C58.5529 8.57569 55.17 6.70834 55.17 6.70834C55.1576 6.70063 55.1461 6.69212 55.1351 6.68397L55.135 6.68394C55.0932 6.65304 55.0587 6.62747 55.0117 6.67136C54.9682 6.69847 54.7333 6.92433 54.572 7.07937L54.5713 7.08006C54.5129 7.13619 54.4643 7.18296 54.438 7.20753C54.4578 7.18904 54.3589 7.24451 54.4182 7.29997ZM13.7642 18.7628L17.068 12.8649C17.1273 12.717 16.9295 12.7355 16.9295 12.7355C16.9295 12.7355 16.1184 12.9574 15.9997 12.9943C15.8612 13.0498 15.6436 13.0498 15.5249 12.9943C15.4062 12.9389 15.4062 12.717 15.4062 12.717C15.4062 12.717 15.3073 11.9775 15.3073 11.7926C15.3073 11.6077 15.2282 11.6077 15.1292 11.7001C15.1292 11.7001 11.232 16.7106 11.0539 16.8954C10.8759 17.0803 10.8363 17.4686 10.8759 17.672C10.8759 17.672 10.9748 18.7443 11.0341 19.1141C11.0539 19.4099 11.232 19.5393 11.6276 19.5023C11.6276 19.5023 13.1905 19.1326 13.3488 19.0771C13.5268 19.0216 13.6653 18.9107 13.7642 18.7628ZM59.6611 18.7629L56.3573 12.865C56.298 12.7171 56.476 12.7541 56.476 12.7541C56.476 12.7541 57.2476 12.976 57.4059 13.013C57.5246 13.0684 57.7422 13.0684 57.8609 13.013C57.9796 12.9575 57.9796 12.7356 57.9796 12.7356C57.9796 12.7356 58.0785 11.9961 58.0785 11.8112C58.0785 11.6263 58.1576 11.6263 58.2565 11.7187C58.2565 11.7187 62.134 16.6922 62.3714 16.8956C62.5494 17.0805 62.589 17.4687 62.5495 17.6721C62.5495 17.6721 62.4505 18.7444 62.3912 19.1142C62.3714 19.41 62.1934 19.5394 61.7977 19.5025C61.7977 19.5025 60.2348 19.1327 60.0766 19.0772C59.8985 19.0218 59.76 18.9108 59.6611 18.7629ZM54.6559 18.0789L53.0535 13.9005C52.9941 13.7895 53.1524 13.7525 53.1524 13.7525C53.1524 13.7525 54.28 14.1223 54.5174 14.1778C54.6 14.1971 54.6753 14.2208 54.7427 14.242L54.7427 14.242C54.8691 14.2819 54.9673 14.3128 55.0318 14.2887C55.1109 14.2517 55.2098 14.0853 55.2098 14.0853C55.2098 14.0853 55.6451 13.4013 55.6846 13.3088C55.7242 13.2349 55.8429 13.2349 55.9022 13.3458C55.9022 13.3458 57.7421 17.0065 57.841 17.1545C57.9399 17.3024 57.9795 17.4872 57.8806 17.6906C57.8806 17.6906 57.2673 18.7075 57.109 18.9109C56.931 19.1142 56.6936 19.1142 56.476 19.0588C56.476 19.0588 55.1505 18.5041 54.9922 18.4487C54.8615 18.4028 54.7848 18.2814 54.7063 18.1571L54.7062 18.157L54.7062 18.157L54.7061 18.1569C54.6896 18.1308 54.6731 18.1046 54.6559 18.0789ZM49.8088 14.4179C50.0264 14.5289 50.9364 15.0096 50.9364 15.0096C51.1145 15.0651 51.2727 15.0466 51.3914 14.9171C51.4904 14.8062 51.9849 14.1406 51.9849 14.1406C52.0443 14.0482 52.2026 14.1036 52.2619 14.2516C52.3213 14.3995 53.5478 17.6165 53.5478 17.6165C53.6072 17.7644 53.6072 17.8753 53.5478 17.9863C53.4489 18.0972 52.6773 19.151 52.6773 19.151C52.5586 19.2989 52.2223 19.4284 51.9652 19.262C51.6882 19.0586 50.8969 18.5409 50.8969 18.5409C50.7782 18.4485 50.6793 18.319 50.6199 18.1711C50.5803 18.0232 49.611 14.5289 49.611 14.5289C49.611 14.3995 49.6901 14.344 49.8088 14.4179ZM47.8501 15.1207C47.7116 15.0652 46.7225 14.4736 46.7225 14.4736C46.6236 14.4181 46.5049 14.4736 46.5049 14.677C46.5137 14.7184 46.6142 15.3779 46.7259 16.1107L46.7261 16.1121L46.7263 16.1131L46.7267 16.1159L46.7273 16.12L46.7278 16.1231L46.7279 16.1235L46.7283 16.1265C46.8649 17.0229 47.0173 18.0229 47.039 18.1343C47.0588 18.3007 47.1775 18.3747 47.3358 18.4671C47.494 18.5411 48.3843 18.9663 48.5623 19.0773C48.7404 19.1882 48.9382 19.1882 49.0371 19.0773C49.0768 19.0327 49.1867 18.9255 49.3117 18.8037C49.498 18.622 49.7178 18.4077 49.7889 18.3192C49.8878 18.2083 49.868 18.0974 49.8284 18.0049C49.8284 17.9125 49.0371 14.9173 48.9975 14.8249C48.9975 14.7324 48.8393 14.5845 48.7206 14.677C48.6019 14.7694 48.2458 15.0652 48.1469 15.1577C48.0735 15.2263 47.983 15.1835 47.8755 15.1327L47.8501 15.1207ZM45.7921 14.3442L46.3263 18.1899C46.3658 18.3008 46.2076 18.4487 46.1086 18.5042C46.0097 18.5596 45.3569 18.9294 45.3569 18.9294C45.1393 19.0403 45.0206 19.0773 44.8227 18.9664C44.6448 18.8555 44.1703 18.4121 44.0513 18.3009L44.0513 18.3009L44.0512 18.3008C43.9523 18.2453 43.8929 18.0974 43.8731 17.968V17.9679C43.8731 17.8199 43.8731 16.9141 43.8336 16.267C43.794 15.509 43.6555 14.6585 43.616 14.5106C43.5764 14.3997 43.616 14.2333 43.7347 14.3442C43.8534 14.4367 44.3282 14.7695 44.4469 14.8249L44.455 14.8288L44.4724 14.8375L44.4909 14.847C44.592 14.8992 44.6893 14.9496 44.8623 14.7879C44.9772 14.7001 45.1528 14.5813 45.3017 14.4806C45.4348 14.3905 45.5465 14.3149 45.5745 14.2887C45.713 14.2333 45.7723 14.2518 45.7921 14.3442ZM27.0976 18.1899L27.6317 14.3442C27.6515 14.2518 27.7108 14.2333 27.8493 14.2888C27.8773 14.3149 27.9891 14.3905 28.1221 14.4805L28.1221 14.4806C28.271 14.5813 28.4466 14.7001 28.5615 14.7879C28.7345 14.9496 28.8318 14.8992 28.9329 14.847C28.9474 14.8394 28.962 14.8319 28.977 14.8249C29.0957 14.7695 29.5705 14.4367 29.6892 14.3442C29.8079 14.2333 29.8474 14.3997 29.8079 14.5106C29.7683 14.6585 29.6298 15.509 29.5902 16.267C29.5507 16.9141 29.5507 17.8201 29.5507 17.968C29.5309 18.0974 29.4715 18.2453 29.3726 18.3008L29.3726 18.3008C29.2538 18.4118 28.7791 18.8555 28.6011 18.9664C28.4033 19.0773 28.2846 19.0403 28.0669 18.9294C28.0669 18.9294 27.4141 18.5596 27.3152 18.5042C27.2163 18.4487 27.058 18.3008 27.0976 18.1899ZM26.7027 14.4735C26.7027 14.4735 25.7135 15.0652 25.5751 15.1206L25.5496 15.1326C25.4422 15.1834 25.3517 15.2262 25.2783 15.1576C25.1794 15.0652 24.8233 14.7693 24.7046 14.6769C24.5859 14.5845 24.4276 14.7324 24.4276 14.8248C24.3881 14.9173 23.5968 17.9124 23.5968 18.0049C23.5572 18.0973 23.5374 18.2082 23.6363 18.3192C23.6999 18.4142 23.9514 18.6544 24.1493 18.8433L24.1494 18.8435L24.1495 18.8435L24.1495 18.8436L24.1496 18.8436L24.1496 18.8436L24.1496 18.8436L24.1496 18.8436C24.2595 18.9485 24.3528 19.0376 24.3881 19.0772C24.487 19.1881 24.6848 19.1881 24.8629 19.0772C25.0409 18.9663 25.9312 18.541 26.0894 18.4671C26.2477 18.3746 26.3664 18.3007 26.3862 18.1343C26.408 18.0222 26.5618 17.0126 26.6989 16.1128L26.6989 16.1128L26.699 16.1123L26.6991 16.1115L26.6992 16.1114C26.8109 15.3783 26.9114 14.7184 26.9203 14.6769C26.9203 14.4735 26.8016 14.4181 26.7027 14.4735ZM22.4889 15.0097C22.4889 15.0097 23.3989 14.529 23.6165 14.4181C23.7352 14.3441 23.8144 14.3996 23.8342 14.5105C23.8342 14.5105 22.8648 18.0049 22.8252 18.1528C22.7659 18.3007 22.667 18.4301 22.5483 18.5225C22.5483 18.5225 21.7174 19.0402 21.4404 19.2436C21.1832 19.41 20.8469 19.2806 20.7282 19.1327C20.7282 19.1327 19.9567 18.0788 19.8578 17.9679C19.7984 17.8569 19.7984 17.746 19.8578 17.5981C19.8578 17.5981 21.1041 14.3441 21.1634 14.2517C21.2228 14.1038 21.3811 14.0483 21.4404 14.1407C21.4404 14.1407 21.935 14.8063 22.0339 14.9173C22.1526 15.0467 22.3109 15.0652 22.4889 15.0097ZM20.3718 13.9004L18.7693 18.0788C18.7521 18.1046 18.7355 18.1309 18.7189 18.1571L18.7189 18.1571C18.6404 18.2813 18.5637 18.4028 18.433 18.4486C18.2747 18.5041 16.9493 19.0587 16.9493 19.0587C16.7317 19.1142 16.4745 19.1142 16.3162 18.9108C16.158 18.7074 15.5447 17.6906 15.5447 17.6906C15.4458 17.4872 15.4853 17.3023 15.5842 17.1544C15.6832 17.0065 17.523 13.3457 17.523 13.3457C17.5823 13.2348 17.6813 13.2348 17.7406 13.3088C17.7802 13.4012 18.1956 14.0853 18.1956 14.0853C18.1956 14.0853 18.2945 14.2517 18.3737 14.2887C18.4428 14.3145 18.5507 14.2771 18.677 14.2333L18.677 14.2333C18.7313 14.2144 18.789 14.1944 18.8485 14.1777C19.0859 14.1223 20.2135 13.7525 20.2135 13.7525C20.2135 13.7525 20.4311 13.7895 20.3718 13.9004ZM55.5855 11.534L53.172 8.29844C53.1522 8.24298 53.172 8.18751 53.1918 8.16902C53.2886 8.08858 53.4498 7.96986 53.5863 7.86936L53.5864 7.86928L53.5866 7.86913L53.5867 7.86908L53.5868 7.86899L53.587 7.86881C53.7011 7.78477 53.7978 7.71356 53.8248 7.68832C53.8757 7.64077 53.9266 7.67473 53.9774 7.70869C53.9859 7.71435 53.9944 7.72001 54.0029 7.72529C54.0029 7.72529 57.1682 10.4246 57.2275 10.4801C57.3264 10.5356 57.3264 10.6095 57.3264 10.702C57.3264 10.7759 57.2077 11.8298 57.1682 11.9222C57.1286 11.9962 56.9901 12.0701 56.8912 12.0331C56.8912 12.0331 55.9219 11.7373 55.8229 11.7003C55.7438 11.6819 55.6845 11.6264 55.5855 11.534ZM36.0603 20.3158C35.7833 20.1679 35.3085 20.057 34.6557 19.983C34.2996 19.9276 34.0028 19.6502 33.9435 19.5393C33.8446 19.4284 33.6072 19.262 33.35 19.262H33.3104C33.0335 19.262 32.7961 19.4099 32.7169 19.5393L32.6992 19.5594C32.5894 19.684 32.3412 19.9656 32.0047 19.983C31.3123 20.0755 30.8771 20.1864 30.6001 20.3158C30.4419 20.4083 30.1451 20.9075 30.4221 20.8705C30.4884 20.8622 30.5745 20.8493 30.6736 20.8345L30.6737 20.8345L30.6738 20.8345C31.0177 20.783 31.5175 20.7082 31.886 20.7226C32.0069 20.7304 32.1207 20.7349 32.2258 20.739H32.2258C32.6199 20.7546 32.8919 20.7654 32.9543 20.926C32.9968 21.0133 33.0429 21.1346 33.0864 21.2491L33.0864 21.2491C33.1442 21.4014 33.1974 21.5414 33.2313 21.5731C33.2906 21.61 33.35 21.6285 33.4093 21.5731C33.5083 21.5176 33.627 21.1293 33.6863 20.926C33.7852 20.7226 34.1611 20.7041 34.7348 20.7041C35.0327 20.7041 35.4395 20.7623 35.7747 20.8103L35.7747 20.8103C35.9738 20.8387 36.1475 20.8636 36.2581 20.8705C36.4955 20.9075 36.1988 20.4083 36.0603 20.3158ZM39.6611 2.88111C40.1359 2.62227 40.7294 2.34494 41.8966 2.43739C42.0153 2.43739 42.2527 2.49285 42.312 2.52983C42.3713 2.58529 42.3516 2.67774 42.2131 2.67774C42.1866 2.67774 42.1596 2.6767 42.1327 2.67567C41.9986 2.67054 41.8668 2.6655 41.8174 2.78867C41.8046 2.82051 41.7946 2.86348 41.7832 2.91243C41.7416 3.09088 41.6814 3.34872 41.402 3.43577C41.125 3.52822 40.8283 3.47275 40.6304 3.26937C40.4684 3.11795 40.2245 3.11964 40.003 3.12117L39.938 3.12147C39.8722 3.12147 39.8125 3.12431 39.7593 3.12684C39.6205 3.13344 39.5259 3.13794 39.483 3.08449C39.4435 3.04751 39.5028 2.95507 39.6611 2.88111ZM16.2772 9.46298L19.0073 7.29981C19.0666 7.24434 18.9677 7.18888 18.9875 7.20737C18.9084 7.11492 18.4534 6.70817 18.394 6.6712C18.347 6.62731 18.3125 6.65288 18.2707 6.68378C18.2596 6.69193 18.2481 6.70046 18.2357 6.70817C18.2357 6.70817 14.8528 8.57552 14.7539 8.63099C14.6352 8.66797 14.5759 8.74192 14.5165 8.83437C14.485 8.86384 14.4255 9.16991 14.3678 9.467L14.3678 9.46702C14.3169 9.72908 14.2674 9.98414 14.2396 10.0361C14.2198 10.1471 14.2791 10.2395 14.3978 10.2025C14.3978 10.2025 15.565 9.81426 15.8024 9.72182C15.9908 9.64055 16.0731 9.58905 16.1658 9.53096C16.1997 9.50977 16.2349 9.48769 16.2772 9.46298ZM20.2537 8.29832L17.8402 11.5338C17.7412 11.6263 17.6819 11.6817 17.6028 11.7002C17.5039 11.7372 16.5345 12.033 16.5345 12.033C16.4356 12.07 16.2971 11.996 16.2575 11.9221C16.218 11.8296 16.0993 10.7758 16.0993 10.7018C16.0993 10.6094 16.0993 10.5354 16.1982 10.48C16.2575 10.4245 19.4228 7.72517 19.4228 7.72517C19.4313 7.71988 19.4398 7.71423 19.4482 7.70857C19.4991 7.67461 19.55 7.64065 19.6009 7.68819C19.6279 7.71346 19.7248 7.78478 19.839 7.86895L19.8391 7.86897C19.9756 7.96952 20.137 8.08838 20.2339 8.16889C20.2537 8.18738 20.2735 8.24285 20.2537 8.29832ZM20.6098 12.7725L22.3903 9.51848C22.4392 9.42709 22.3941 9.37334 22.3546 9.32623L22.3545 9.3262C22.3461 9.31613 22.3379 9.30637 22.3309 9.29661C22.0935 9.20417 21.0253 8.63102 20.9066 8.53858C20.8355 8.4722 20.7964 8.51008 20.7462 8.55865L20.7285 8.57556C20.7285 8.57556 18.4732 11.8296 18.3743 11.922C18.2754 12.0144 18.2952 12.1808 18.3348 12.2363C18.3348 12.2363 18.8095 13.0868 18.8491 13.1792C18.8689 13.2717 18.9876 13.3086 19.0865 13.2717C19.0865 13.2717 20.2339 12.9943 20.3922 12.9389C20.5505 12.8834 20.5702 12.8649 20.6098 12.7725ZM52.8169 12.7725L51.0364 9.51848C50.9824 9.41755 51.0431 9.36253 51.0992 9.31166L51.1156 9.29661C51.3332 9.20417 52.4015 8.63102 52.5202 8.53858C52.5912 8.4722 52.6303 8.51008 52.6805 8.55865L52.6982 8.57556C52.6982 8.57556 54.9535 11.8296 55.0524 11.922C55.1513 12.0144 55.1315 12.1808 55.092 12.2363C55.092 12.2363 54.6172 13.0868 54.5776 13.1792C54.5578 13.2717 54.4391 13.3086 54.3402 13.2717C54.3402 13.2717 53.1928 12.9943 53.0345 12.9389C52.8763 12.8834 52.8565 12.8649 52.8169 12.7725ZM49.5724 13.2531L48.5635 10.3873C48.5239 10.3134 48.5833 10.2209 48.702 10.1655C48.8207 10.1655 50.0077 9.8142 50.2846 9.66629C50.344 9.62931 50.4231 9.72176 50.4627 9.77722C50.4627 9.77722 51.8277 12.532 51.8673 12.5875C51.8871 12.606 51.8871 12.7724 51.8277 12.8648C51.8277 12.8648 51.1946 13.7523 51.1353 13.8077C51.0759 13.8632 50.9177 13.9372 50.799 13.9002C50.799 13.9002 49.8296 13.4565 49.7307 13.4195C49.6713 13.401 49.612 13.3455 49.5724 13.2531ZM47.7917 14.1405C47.7917 14.1405 46.7432 13.7523 46.664 13.7153C46.5986 13.6908 46.5938 13.6745 46.5866 13.6502C46.5829 13.6377 46.5785 13.6231 46.5651 13.6044L45.9914 10.7571C45.9914 10.7201 46.031 10.7016 46.1101 10.6647C46.2288 10.6647 47.396 10.4983 47.8312 10.3873C47.8747 10.3603 47.9181 10.3926 47.9537 10.4191C47.9668 10.4289 47.9789 10.4378 47.9895 10.4428C47.9895 10.4428 48.86 13.1052 48.8798 13.1976C48.9193 13.2531 48.8797 13.364 48.8204 13.4195C48.8204 13.4195 48.1082 14.0296 48.0489 14.0666C47.9895 14.1405 47.8708 14.1775 47.7917 14.1405ZM45.2795 10.7757C44.6266 10.8681 43.1231 10.8496 42.7275 10.8127C42.6603 10.8127 42.657 10.8893 42.6556 10.9212C42.6549 10.9363 42.6547 10.9414 42.6483 10.9236L43.4001 13.3456C43.4396 13.4011 43.4594 13.4196 43.499 13.4565C43.538 13.493 43.9094 13.6808 44.1768 13.8159L44.1769 13.816C44.3168 13.8867 44.4282 13.943 44.4486 13.9557C44.5079 14.0112 44.6266 14.0297 44.8047 13.9188C44.9827 13.8078 45.6356 13.4196 45.7345 13.3641C45.8136 13.3197 45.8041 13.2399 45.7972 13.1813L45.7971 13.1812C45.7954 13.1666 45.7938 13.1533 45.7938 13.1422C45.7938 13.0868 45.3982 10.8866 45.3982 10.8866C45.3982 10.8866 45.3784 10.7757 45.2795 10.7757ZM30.6991 10.8127C30.3035 10.8496 28.8 10.8681 28.1471 10.7757C28.0482 10.7757 28.0284 10.8866 28.0284 10.8866C28.0284 10.8866 27.6328 13.0868 27.6328 13.1422C27.6328 13.1533 27.6312 13.1666 27.6294 13.1813L27.6294 13.1813C27.6225 13.2398 27.613 13.3197 27.6921 13.3641C27.791 13.4196 28.4439 13.8078 28.6219 13.9188C28.8 14.0297 28.9187 14.0112 28.978 13.9557C28.9983 13.9431 29.1092 13.887 29.2486 13.8166L29.2486 13.8165L29.2488 13.8164L29.2493 13.8162L29.2496 13.816L29.2497 13.816L29.2498 13.8159C29.5172 13.6807 29.8886 13.4929 29.9276 13.4565C29.9672 13.4196 29.987 13.4011 30.0265 13.3456L30.7783 10.9236C30.7719 10.9414 30.7717 10.9363 30.771 10.9212C30.7696 10.8892 30.7663 10.8127 30.6991 10.8127ZM26.7618 13.7153C26.6827 13.7523 25.6342 14.1405 25.6342 14.1405C25.555 14.1775 25.4363 14.1405 25.377 14.0666C25.3176 14.0296 24.6054 13.4195 24.6054 13.4195C24.5461 13.364 24.5065 13.2531 24.5461 13.1976C24.5659 13.1052 25.4363 10.4428 25.4363 10.4428C25.447 10.4378 25.459 10.4289 25.4721 10.4191C25.5078 10.3926 25.5512 10.3603 25.5946 10.3873C26.0298 10.4983 27.197 10.6647 27.3157 10.6647C27.3949 10.7016 27.4344 10.7201 27.4344 10.7571L26.8607 13.6044C26.8473 13.6231 26.843 13.6377 26.8393 13.6502C26.8321 13.6745 26.8272 13.6908 26.7618 13.7153ZM24.8628 10.3873L23.8538 13.253C23.8143 13.3454 23.7549 13.4009 23.6956 13.4194C23.5967 13.4564 22.6273 13.9001 22.6273 13.9001C22.5086 13.9371 22.3503 13.8631 22.291 13.8077C22.2316 13.7522 21.5986 12.8647 21.5986 12.8647C21.5392 12.7723 21.5392 12.6059 21.559 12.5874C21.5986 12.5319 22.9636 9.77713 22.9636 9.77713C23.0032 9.72167 23.0823 9.62922 23.1416 9.6662C23.4186 9.81411 24.6056 10.1654 24.7243 10.1654C24.843 10.2209 24.9023 10.3133 24.8628 10.3873Z" fill="#FFFEFA"/>
<path id="Union_2" fill-rule="evenodd" clip-rule="evenodd" d="M48.8598 25.8811C48.7411 25.7147 48.6224 25.5668 48.4443 25.4374C48.2663 25.3264 48.0882 25.2155 47.8706 25.123C47.653 25.0306 47.4552 25.0121 47.2178 25.0121C46.8023 25.0121 46.4462 25.1046 46.1693 25.234C45.8725 25.3819 45.6351 25.6038 45.4571 25.8441C45.279 26.1029 45.1603 26.3988 45.0614 26.7131C44.9625 27.0459 44.9427 27.3787 44.9427 27.7115C44.9427 28.0443 44.9823 28.377 45.0614 28.6914C45.1603 29.0057 45.279 29.283 45.4571 29.5603C45.6351 29.8192 45.8725 30.004 46.1693 30.1704C46.466 30.3183 46.8221 30.3923 47.2178 30.3923C47.7915 30.3923 48.2267 30.2259 48.5234 29.8931C48.8597 29.5603 49.0378 29.1351 49.1169 28.6174H50.8974C50.8381 29.1166 50.7194 29.5603 50.5413 29.9486C50.3237 30.3368 50.0863 30.7066 49.7698 30.9839C49.4335 31.2613 49.0774 31.4831 48.6421 31.631C48.2267 31.779 47.7519 31.8529 47.2178 31.8529C46.5649 31.8529 45.9912 31.742 45.4966 31.5386C44.9823 31.3167 44.547 31.0394 44.1909 30.6696C43.8348 30.2999 43.5579 29.8561 43.3798 29.3569C43.2018 28.8577 43.1029 28.3216 43.1029 27.7484C43.1029 27.1753 43.2018 26.6021 43.3798 26.1029C43.5579 25.6037 43.8348 25.16 44.1909 24.7718C44.547 24.3835 44.9625 24.1062 45.4966 23.8843C46.011 23.6624 46.6045 23.5515 47.2178 23.5515C47.6728 23.5515 48.108 23.607 48.5234 23.7549C48.9389 23.9028 49.295 24.0692 49.6313 24.3095C49.9676 24.5684 50.2248 24.8457 50.4424 25.197C50.66 25.5668 50.7985 25.955 50.8381 26.4173H49.0576C49.0378 26.2509 48.9587 26.0475 48.8598 25.8811ZM42.4499 23.7733H40.6101V31.7049H42.4499V23.7733ZM37.5437 27.0827C37.3459 27.2676 37.0096 27.3601 36.5942 27.3601V27.3416H34.5763V25.1229H36.5942C37.0096 25.1229 37.3261 25.2154 37.5437 25.3818C37.7614 25.5482 37.8801 25.8255 37.8801 26.2138C37.8801 26.602 37.7614 26.9163 37.5437 27.0827ZM38.2559 23.9397C37.9592 23.8287 37.6427 23.7733 37.247 23.7733V23.8102H32.7958V31.7604H34.6356V28.6728H36.4755C36.9503 28.6728 37.2668 28.7467 37.4844 28.9501C37.6624 29.1535 37.8207 29.4493 37.8801 29.8745C37.9196 30.0964 37.9416 30.3182 37.9636 30.5401C37.9746 30.651 37.9856 30.762 37.9988 30.8729C37.9988 31.2057 38.0779 31.5015 38.1768 31.7604H40.0166C39.9573 31.6494 39.8781 31.5015 39.8386 31.3351C39.8188 31.252 39.804 31.1688 39.7892 31.0857L39.7891 31.0855L39.7891 31.0853C39.7743 31.0022 39.7594 30.9191 39.7397 30.8359C39.7397 30.7291 39.7288 30.6325 39.7184 30.5408L39.7184 30.5407C39.709 30.4577 39.7001 30.3787 39.7001 30.2998C39.7001 30.2082 39.6881 30.1165 39.6773 30.0342C39.6685 29.967 39.6605 29.9059 39.6605 29.856C39.6425 29.7549 39.6286 29.6614 39.615 29.5703C39.5988 29.4617 39.5831 29.3565 39.5616 29.2459L39.5433 29.1884L39.5433 29.1884C39.4897 29.0196 39.4328 28.8405 39.344 28.6912C39.2649 28.5248 39.1462 28.3584 38.9879 28.2475C38.8296 28.1181 38.6516 28.0257 38.4142 27.9702V27.9332C38.889 27.7668 39.2253 27.4895 39.4231 27.1567C39.621 26.8239 39.7199 26.4356 39.7199 25.9549C39.7199 25.6776 39.6605 25.3818 39.5418 25.1229C39.4231 24.8456 39.2451 24.6237 39.0275 24.4204C38.8296 24.217 38.5527 24.0506 38.2559 23.9397ZM31.9847 23.7733V25.2524H27.5335V26.9533H31.589V28.2845H27.5335V30.2258H32.0638V31.7049H25.6937V23.7733H31.9847ZM20.1943 29.2274L18.2555 23.7733H15.6244V31.7049H17.3653V26.1398H17.3851L19.4425 31.7049H20.8669L22.9243 26.0843H22.9639V31.7049H24.685V23.7733H22.0737L20.2141 29.2274H20.1943ZM12.4786 28.6357L11.4301 25.733H11.3905L10.2826 28.6357H12.4786ZM12.3599 23.7732L15.4856 31.7048H13.5864L12.9534 29.9484H9.82763L9.17479 31.7048H7.33496L10.5003 23.7732H12.3599ZM60.8288 39.1374V32.6849H58.989V40.5795H64.9041V39.1374H60.8288ZM21.9148 37.5104L20.8663 34.6261H20.8267L19.7189 37.5289H21.9148V37.5104ZM21.8159 32.6848L24.9416 40.6164H23.0424L22.4094 38.86H19.2441L18.5912 40.6164H16.7514L19.9167 32.6848H21.8159ZM47.8708 37.9541L44.389 32.6849H42.5491V40.5795H44.2703V35.2918H44.3098L47.7917 40.5795H49.6315V32.6849H47.9104V37.9541H47.8708ZM35.486 37.6211C35.5849 37.9354 35.7036 38.2128 35.8816 38.4531C36.0597 38.712 36.2971 38.8969 36.5938 39.0632C36.8906 39.2112 37.2467 39.2851 37.6423 39.2851C38.0578 39.2851 38.4139 39.1927 38.6908 39.0632C38.9876 38.9153 39.225 38.6935 39.403 38.4531C39.5811 38.1943 39.6998 37.917 39.7987 37.6211C39.8976 37.3253 39.9174 36.974 39.9174 36.6412C39.9174 36.3084 39.8778 35.9387 39.7987 35.6429C39.6998 35.3101 39.5811 35.0327 39.403 34.7739C39.225 34.515 38.9876 34.3302 38.6908 34.1638C38.3941 34.0159 38.038 33.9419 37.6423 33.9419C37.2269 33.9419 36.8708 34.0343 36.5938 34.1638C36.2971 34.3117 36.0597 34.5335 35.8816 34.7739C35.7036 35.0142 35.5849 35.3285 35.486 35.6429C35.3871 35.9756 35.3673 36.3084 35.3673 36.6412C35.3673 36.9925 35.4068 37.3253 35.486 37.6211ZM33.8044 35.0142C33.9825 34.515 34.2594 34.0713 34.6155 33.6831C34.9716 33.2948 35.3871 33.0175 35.9212 32.7956C36.4356 32.5737 37.0291 32.4628 37.6423 32.4628C38.2952 32.4628 38.8689 32.5737 39.3635 32.7956C39.858 33.0175 40.3131 33.2948 40.6494 33.6831C41.0055 34.0713 41.2824 34.4966 41.4605 35.0142C41.6385 35.5134 41.7374 36.0681 41.7374 36.6597C41.7374 37.2514 41.6385 37.769 41.4605 38.2682C41.2824 38.7674 41.0055 39.2112 40.6494 39.5809C40.2933 39.9507 39.8778 40.2465 39.3635 40.4499C38.8491 40.6718 38.2952 40.7642 37.6423 40.7642C36.9895 40.7642 36.4158 40.6533 35.9212 40.4499C35.4068 40.228 34.9716 39.9507 34.6155 39.5809C34.2594 39.2112 33.9825 38.7674 33.8044 38.2682C33.6264 37.769 33.5275 37.2329 33.5275 36.6597C33.5275 36.0681 33.6066 35.5134 33.8044 35.0142ZM30.9159 32.6848H32.7558V40.6164H30.9159V32.6848ZM23.2793 34.1269V32.6848H30.1638V34.1269H27.6514V40.5795H25.8116V34.1269H23.2793ZM54.2802 34.6076L55.3287 37.5104H53.1328L54.2407 34.6076H54.2802ZM58.3555 40.6164L55.2298 32.6848H53.3702L50.2049 40.6164H52.0447L52.6976 38.86H55.8233L56.4564 40.6164H58.3555ZM10.9952 32.6849L14.4969 37.9541H14.5364V32.6849H16.2575V40.5795H14.4177L10.9359 35.2918H10.8963V40.5795H9.1752V32.6849H10.9952ZM64.3696 29.0795L60.868 23.7733H59.0479V31.7049H60.7691V26.3802L64.2905 31.7049H66.0907V23.7733H64.3696V29.0795ZM55.8627 28.6357L54.8142 25.733H54.7746L53.6667 28.6357H55.8627ZM55.7637 23.7732L58.8895 31.7048H56.9903L56.3572 29.9484H53.1919L52.5391 31.7048H50.6993L53.8646 23.7732H55.7637ZM65.3986 33.4244C65.3591 33.4613 65.2799 33.4613 65.181 33.4613H65.0228V33.1285H65.181C65.2799 33.1285 65.3591 33.1285 65.3986 33.1655C65.4023 33.1724 65.4067 33.1799 65.4114 33.188C65.4318 33.2231 65.458 33.2683 65.458 33.3134C65.458 33.3689 65.4382 33.3874 65.3986 33.4244ZM65.6558 33.979L65.4184 33.5353C65.4778 33.5353 65.5371 33.5168 65.5965 33.4244C65.6162 33.4059 65.6558 33.3504 65.6558 33.258C65.6558 33.1655 65.5965 33.11 65.5371 33.0546C65.4778 33.0361 65.3591 32.9991 65.2008 32.9991H64.8051V33.979H64.9832V33.5538H65.2008L65.4184 33.979H65.6558ZM65.9786 33.3342C65.9955 33.4001 66.0119 33.4639 66.0119 33.5353C66.0119 33.6277 65.9723 33.7387 65.9526 33.7756C65.9381 33.8026 65.9261 33.8284 65.9146 33.8529C65.8789 33.9293 65.8494 33.9925 65.7745 34.0345C65.6756 34.1084 65.5965 34.1639 65.4976 34.2009C65.4553 34.2075 65.4155 34.2164 65.3764 34.2252C65.3058 34.241 65.2376 34.2563 65.1612 34.2563C65.0821 34.2563 64.9634 34.2379 64.8645 34.2009C64.7656 34.1824 64.6864 34.1269 64.5875 34.0345C64.5084 33.942 64.449 33.8681 64.4095 33.7756C64.4048 33.7582 64.399 33.7397 64.3929 33.7202C64.3732 33.657 64.3501 33.583 64.3501 33.4983C64.3501 33.4244 64.3699 33.3134 64.4095 33.221C64.4293 33.1285 64.4886 33.0546 64.5875 32.9621C64.6864 32.8882 64.7656 32.8327 64.8645 32.7957C64.8832 32.7914 64.903 32.786 64.9239 32.7803C64.9914 32.7619 65.0706 32.7403 65.1612 32.7403C65.2799 32.7403 65.3986 32.7403 65.4976 32.7957C65.5271 32.8123 65.555 32.8256 65.5821 32.8386C65.6456 32.8689 65.7052 32.8973 65.7745 32.9621C65.8536 33.0546 65.913 33.1285 65.9526 33.221C65.9596 33.2605 65.9692 33.2977 65.9786 33.3342ZM65.4184 32.6878C65.3508 32.6694 65.2717 32.6478 65.181 32.6478C65.0623 32.6478 64.9041 32.6848 64.8249 32.7588C64.7062 32.8142 64.5875 32.9067 64.4886 33.0176C64.472 33.0435 64.4554 33.0679 64.4392 33.0916C64.3976 33.1529 64.3588 33.2099 64.3303 33.2764C64.3262 33.2918 64.3213 33.3088 64.316 33.3269C64.2958 33.3957 64.271 33.4805 64.271 33.5538C64.271 33.6647 64.271 33.7756 64.3303 33.8866C64.3897 33.9975 64.449 34.0715 64.548 34.1639C64.6271 34.2563 64.726 34.3118 64.8447 34.3673C64.8843 34.3734 64.9238 34.3817 64.9634 34.3899C65.0425 34.4063 65.1217 34.4227 65.2008 34.4227C65.3195 34.4227 65.4382 34.4227 65.5569 34.3673C65.5828 34.3491 65.613 34.3309 65.6453 34.3114C65.7117 34.2715 65.7871 34.226 65.8536 34.1639C65.9526 34.0899 66.0119 33.9975 66.0713 33.8866C66.0779 33.8496 66.0866 33.8126 66.0954 33.7756C66.113 33.7017 66.1306 33.6277 66.1306 33.5538C66.1306 33.4244 66.091 33.2764 66.0317 33.1655C65.9723 33.0546 65.8734 32.9436 65.7547 32.8512C65.727 32.8357 65.7009 32.8202 65.6755 32.805C65.61 32.7661 65.549 32.7299 65.4778 32.7033C65.4591 32.6989 65.4393 32.6935 65.4184 32.6878Z" fill="#FFFEFA"/>
</g>
</g>
</svg>
