<svg width="64" height="64" viewBox="0 0 64 64" fill="none" xmlns="http://www.w3.org/2000/svg">
<circle cx="32" cy="32" r="32" fill="#512BD4"/>
<g clip-path="url(#clip0_1914_77748)">
<path d="M13.7773 39.4762C13.3895 39.4762 13.0597 39.3469 12.7882 39.0884C12.5167 38.8233 12.3809 38.5085 12.3809 38.1439C12.3809 37.7727 12.5167 37.4546 12.7882 37.1895C13.0597 36.9243 13.3895 36.7918 13.7773 36.7918C14.1717 36.7918 14.5045 36.9243 14.776 37.1895C15.0541 37.4546 15.193 37.7727 15.193 38.1439C15.193 38.5085 15.0541 38.8233 14.776 39.0884C14.5045 39.3469 14.1717 39.4762 13.7773 39.4762ZM29.2832 39.2574H26.762L20.1196 28.7782C19.9537 28.5175 19.8141 28.2411 19.7026 27.9529H19.6444C19.6961 28.2579 19.722 28.9107 19.722 29.9115V39.2574H17.4916V25H20.1777L26.5972 35.2307C26.8687 35.655 27.0432 35.9466 27.1208 36.1057H27.1596C27.095 35.7279 27.0626 35.0883 27.0626 34.1868V25H29.2832V39.2574V39.2574ZM40.1442 39.2574H32.3382V25H39.834V27.0084H34.6461V31.045H39.4268V33.0434H34.6461V37.259H40.1442V39.2574ZM51.2381 27.0084H47.2429V39.2574H44.935V27.0084H40.9495V25H51.2381V27.0084V27.0084Z" fill="white"/>
</g>
<defs>
<clipPath id="clip0_1914_77748">
<rect width="40" height="14.8571" fill="white" transform="translate(12 25)"/>
</clipPath>
</defs>
</svg>
