<svg width="45" height="45" viewBox="0 0 45 45" fill="none" xmlns="http://www.w3.org/2000/svg">
<g id="axa" clip-path="url(#clip0_2069_21659)">
<path id="Subtract" fill-rule="evenodd" clip-rule="evenodd" d="M0.621582 0.76416H42.1466L25.3624 22.4892H27.8924L44.6216 0.76416V44.7642H0.621582V40.3642H2.56492C2.93426 39.7062 3.35413 39.0779 3.82075 38.485C3.96742 38.3475 7.69825 33.4342 7.69825 33.4342H14.2341L15.0041 36.0833C15.0041 36.0833 13.0974 38.5767 12.5841 39.1817C12.3274 39.5392 11.4107 40.3642 11.4107 40.3642H14.4816C14.4816 40.3642 14.5916 40.1075 14.8391 39.6492C15.181 39.123 15.5541 38.6179 15.9574 38.1367C15.9574 38.1367 16.3332 39.2733 16.3699 39.5208C16.4066 39.7683 16.5074 40.3642 16.5074 40.3642H19.6149C19.6149 40.3642 19.7249 40.1258 19.9816 39.6675C20.3226 39.156 20.7057 38.6747 21.1274 38.2283C21.1274 38.2283 21.4666 39.2733 21.5032 39.5208C21.5399 39.7683 21.6407 40.3642 21.6407 40.3642H25.5916C25.5916 40.3642 24.9957 39.3375 24.8582 38.9892C24.7849 38.7967 23.5382 34.9008 23.5382 34.9008L24.6016 33.3975H31.1924C31.1924 33.3975 32.6958 38.265 32.8699 38.8975C32.9871 39.3782 33.0547 39.8697 33.0716 40.3642H37.2149C36.7702 40.0437 35.8354 37.1097 35.0599 34.6758C34.7486 33.6986 34.4629 32.802 34.2449 32.1875L32.2282 25.2208C32.1457 24.8184 32.0908 24.4114 32.0633 24.0017H28.8641C28.678 24.4343 28.4571 24.8514 28.2041 25.2483C27.9566 25.7067 23.8957 31.0508 22.9791 32.1875C22.8507 32.3617 22.7682 32.4717 22.7682 32.4533C22.7682 32.4485 22.7639 32.4381 22.7574 32.4227C22.7391 32.3792 22.7041 32.2958 22.7041 32.1875L22.2549 30.6383L26.0866 25.78C26.5658 25.1224 27.1229 24.5253 27.7457 24.0017H24.4549C24.4338 24.3555 24.3266 24.6983 24.1432 25.0008C23.9874 25.2483 21.2924 28.6217 21.2924 28.6217C21.2924 28.6217 20.4491 25.5692 20.2841 25.0742C20.1869 24.7258 20.1438 24.3637 20.1557 24.0017H16.2049C16.4108 24.419 16.5854 24.851 16.7274 25.2942L18.6799 31.2892L17.5432 32.7467C17.4882 32.6733 15.4257 25.9175 15.3432 25.6333C15.2452 25.0934 15.1783 24.5489 15.1416 24.0017H11.7591C11.4309 24.7194 11.0606 25.4179 10.6499 26.0917C10.4941 26.3667 8.34908 29.2358 6.06658 32.1875C3.52742 35.5792 0.759082 39.0533 0.694915 39.0533L0.621582 39.1267V0.76416ZM26.1141 31.5183C27.2858 30.1235 28.3696 28.657 29.3591 27.1275C29.4049 27.0175 29.4141 27.1 29.4141 27.155C29.399 27.5423 29.4298 27.93 29.5057 28.31C29.6524 28.8967 30.5049 31.5183 30.5049 31.5183H26.1141ZM9.22908 31.5183C10.4008 30.1235 11.4846 28.657 12.4741 27.1275C12.5382 27.0175 12.5382 27.1 12.5382 27.155C12.5201 27.5419 12.5478 27.9296 12.6207 28.31C12.7674 28.8967 13.6199 31.5183 13.6199 31.5183H9.22908ZM20.3024 35.7075L19.0924 37.3667L18.3316 35.0383L19.5049 33.5258C19.5049 33.5258 20.1832 35.5883 20.3024 35.7075Z" fill="#FFFEFA"/>
</g>
<defs>
<clipPath id="clip0_2069_21659">
<rect width="44" height="44" fill="white" transform="translate(0.676758 0.76416)"/>
</clipPath>
</defs>
</svg>
