<svg width="132" height="26" viewBox="0 0 132 26" fill="none" xmlns="http://www.w3.org/2000/svg">
<g id="bluecross">
<g id="BlueCross">
<g id="Group 497">
<path id="Vector" d="M56.6914 11.1592V0.778442H60.6518C62.5406 0.657735 64.4294 1.44233 64.4294 3.49435C64.4294 4.64107 63.6373 5.42566 62.6015 5.78778C63.942 6.08955 64.9168 6.99485 64.9168 8.50369C64.9168 10.5557 62.2969 11.3403 60.7127 11.2196H56.6914V11.1592ZM60.7127 4.94283C61.6876 4.94283 62.175 4.58071 62.175 3.73576C62.175 2.89081 61.6267 2.52869 60.7127 2.52869H58.9458V5.00319H60.7127V4.94283ZM60.7127 9.40899C61.7485 9.40899 62.4797 9.22793 62.4797 8.02086C62.4797 6.81379 61.7485 6.63273 60.7127 6.63273H58.9458V9.40899H60.7127ZM68.5117 0.778442V11.1592H66.3182V0.778442H68.5117ZM75.153 10.2539C74.6655 10.9178 73.9953 11.3403 72.8986 11.3403C72.1674 11.3403 70.7661 10.7971 70.5223 9.77111C70.4005 9.34864 70.4005 8.86581 70.4005 8.6244V3.91682H72.5939V8.26228C72.5939 9.04687 72.8376 9.95217 73.8734 9.95217C74.5437 9.95217 75.153 9.34864 75.153 8.26228V3.91682H77.3464V9.83147C77.3464 10.2539 77.4073 10.6764 77.4073 11.0989H75.2139L75.153 10.2539ZM81.1849 8.14157C81.1849 9.10722 81.3068 9.95217 82.4645 9.95217C83.1956 9.95217 83.6221 9.65041 83.8049 8.98652H85.7546C85.5718 10.7971 84.1705 11.3403 82.4645 11.3403C79.9664 11.3403 78.9306 9.95217 78.9306 7.53803C78.9306 5.36531 80.2101 3.67541 82.4645 3.67541C83.8049 3.67541 84.9626 4.15824 85.5718 5.42566C85.7546 5.84814 85.8765 6.27061 85.9374 6.69308C85.9984 7.11556 85.9983 7.59839 85.9983 8.08121H81.1849V8.14157ZM83.744 6.69308C83.744 5.90849 83.5003 5.18425 82.4645 5.18425C81.4896 5.18425 81.2459 5.90849 81.1849 6.69308H83.744ZM93.3708 4.09788C93.3708 3.01152 92.7006 2.10622 91.3601 2.10622C89.776 2.10622 89.3495 4.46 89.3495 5.90849C89.3495 7.35697 89.776 9.71076 91.3601 9.71076C92.7006 9.71076 93.3708 8.80546 93.3708 7.71909H95.747C95.6252 10.3143 93.7364 11.28 91.3601 11.28C88.3137 11.28 86.9732 8.92616 86.9732 5.84814C86.9732 2.83046 88.3137 0.416321 91.3601 0.416321C93.7973 0.416321 95.6861 1.38198 95.747 3.97718H93.3708V4.09788ZM98.9153 3.91682L98.9763 5.2446C99.4637 4.09788 100.378 3.79612 101.474 3.85647V5.78778H100.5C100.134 5.78778 99.6465 6.0292 99.4637 6.33096C99.22 6.75344 99.1591 7.11556 99.1591 7.59839V11.1592H96.9656V5.36531C96.9656 5.06354 96.9047 4.46001 96.9047 3.91682H98.9153ZM106.227 11.4007C103.851 11.4007 102.388 9.83147 102.388 7.53803C102.388 5.2446 103.79 3.67541 106.227 3.67541C108.603 3.67541 110.065 5.2446 110.065 7.53803C110.065 9.83147 108.603 11.4007 106.227 11.4007ZM106.227 9.95217C107.567 9.95217 107.811 8.68475 107.811 7.53803C107.811 6.39132 107.567 5.12389 106.227 5.12389C104.886 5.12389 104.643 6.39132 104.643 7.53803C104.704 8.68475 104.886 9.95217 106.227 9.95217ZM115.305 5.84814C115.305 5.36531 114.818 5.12389 114.33 5.12389C113.721 5.12389 113.477 5.30495 113.477 5.78778C113.477 6.9345 117.682 6.27061 117.682 8.98652C117.682 10.5557 115.732 11.3403 114.391 11.3403C112.685 11.3403 111.223 10.6764 111.162 9.04687H113.173C113.234 9.59005 113.721 9.95217 114.391 9.95217C115.001 9.95217 115.427 9.71076 115.427 9.16758C115.427 8.56404 114.391 8.32263 113.965 8.26228C112.563 7.96051 111.284 7.59839 111.284 5.96884C111.284 4.46001 113.112 3.79612 114.391 3.79612C115.915 3.79612 117.255 4.3393 117.316 5.96884H115.305V5.84814ZM122.556 5.84814C122.556 5.36531 122.068 5.12389 121.581 5.12389C120.972 5.12389 120.728 5.30495 120.728 5.78778C120.728 6.9345 124.932 6.27061 124.932 8.98652C124.932 10.5557 122.982 11.3403 121.642 11.3403C119.936 11.3403 118.474 10.6764 118.413 9.04687H120.423C120.484 9.59005 120.972 9.95217 121.642 9.95217C122.251 9.95217 122.678 9.71076 122.678 9.16758C122.678 8.56404 121.642 8.32263 121.215 8.26228C119.814 7.96051 118.535 7.59839 118.535 5.96884C118.535 4.46001 120.362 3.79612 121.642 3.79612C123.165 3.79612 124.506 4.3393 124.567 5.96884H122.556V5.84814ZM56.6914 25.282V14.9012H60.6518C62.5406 14.7805 64.4294 15.565 64.4294 17.6171C64.4294 18.7638 63.6373 19.5484 62.6015 19.9105C63.942 20.2123 64.9168 21.1176 64.9168 22.6264C64.9168 24.6784 62.2969 25.463 60.7127 25.3423H56.6914V25.282ZM60.7127 19.0656C61.6876 19.0656 62.175 18.7034 62.175 17.8585C62.175 17.0135 61.6267 16.6514 60.7127 16.6514H58.9458V19.1259L60.7127 19.0656ZM60.7127 23.5317C61.7485 23.5317 62.4797 23.3507 62.4797 22.1436C62.4797 20.9365 61.7485 20.7555 60.7127 20.7555H58.9458V23.5317H60.7127ZM68.5117 14.9012V25.282H66.3182V14.9012H68.5117ZM75.153 24.3767C74.6655 25.0405 73.9953 25.463 72.8986 25.463C72.1674 25.463 70.7661 24.9198 70.5223 23.8335C70.4005 23.411 70.4005 22.9282 70.4005 22.6868V17.9792H72.5939V22.385C72.5939 23.1696 72.8376 24.0749 73.8734 24.0749C74.5437 24.0749 75.153 23.4714 75.153 22.385V18.0395H77.3464V23.9542C77.3464 24.3767 77.4073 24.7991 77.4073 25.2216H75.2139L75.153 24.3767ZM81.1849 22.2643C81.1849 23.2299 81.3068 24.0749 82.4645 24.0749C83.1956 24.0749 83.6221 23.7731 83.8049 23.1092H85.7546C85.5718 24.9198 84.1705 25.463 82.4645 25.463C79.9664 25.463 78.9306 24.0749 78.9306 21.6608C78.9306 19.488 80.2101 17.7981 82.4645 17.7981C83.8049 17.7981 84.9626 18.281 85.5718 19.5484C85.7546 19.9709 85.8765 20.3933 85.9374 20.8158C85.9984 21.2383 85.9983 21.7211 85.9983 22.2039L81.1849 22.2643ZM83.744 20.8158C83.744 20.0312 83.5003 19.307 82.4645 19.307C81.4896 19.307 81.2459 20.0312 81.1849 20.8158H83.744ZM93.0661 17.8585C93.0052 16.8325 92.3959 16.2893 91.2992 16.2893C90.4462 16.2893 89.6541 16.7118 89.6541 17.6171C89.6541 18.7638 90.6899 18.8845 91.6038 19.0656C93.188 19.488 95.5642 19.9105 95.5642 22.0229C95.5642 24.6181 93.3099 25.5234 91.0555 25.5234C88.6792 25.5234 86.9732 24.6181 87.0342 21.9625H89.3495C89.2885 23.1092 89.9588 23.8938 91.1164 23.8938C92.0303 23.8938 93.188 23.5921 93.188 22.5057C93.188 21.2986 91.6648 21.1779 90.8118 20.9365C89.3495 20.5744 87.3388 19.9105 87.3388 18.0395C87.3388 15.6858 89.5322 14.5994 91.7257 14.5994C93.7364 14.5994 95.3205 15.6858 95.3205 17.7981L93.0661 17.8585ZM97.0875 25.282V14.9012H99.2809V18.9448C99.7074 18.281 100.439 17.8585 101.535 17.8585C102.266 17.8585 103.668 18.4017 103.912 19.4277C104.033 19.8501 104.033 20.333 104.033 20.5744V25.282H101.901V20.9365C101.901 20.1519 101.657 19.307 100.621 19.307C99.9511 19.307 99.3419 19.9105 99.3419 20.9365V25.282H97.0875ZM108.238 14.9012V16.7721H105.922V14.9012H108.238ZM108.116 18.0395V25.282H105.922V18.0395H108.116ZM111.954 22.2643C111.954 23.2299 112.076 24.0749 113.234 24.0749C113.965 24.0749 114.391 23.7731 114.574 23.1092H116.524C116.341 24.9198 114.94 25.463 113.234 25.463C110.736 25.463 109.7 24.0749 109.7 21.6608C109.7 19.488 110.979 17.7981 113.234 17.7981C114.574 17.7981 115.732 18.281 116.341 19.5484C116.524 19.9709 116.646 20.3933 116.707 20.8158C116.768 21.2383 116.768 21.7211 116.768 22.2039L111.954 22.2643ZM114.452 20.8158C114.452 20.0312 114.209 19.307 113.173 19.307C112.198 19.307 111.954 20.0312 111.893 20.8158H114.452ZM120.241 14.9012V25.282H118.047V14.9012H120.241ZM127.186 14.9012H129.38V23.8938C129.38 24.3767 129.441 24.8595 129.441 25.3423H127.247C127.247 24.9802 127.186 24.6784 127.186 24.3163C126.699 25.1613 125.907 25.5837 124.932 25.5837C122.8 25.5837 121.764 23.5921 121.764 21.7211C121.764 19.7898 122.921 17.8585 125.176 17.8585C125.907 17.8585 126.699 18.281 127.126 18.8845L127.186 14.9012ZM125.602 24.0749C126.76 24.0749 127.186 22.6868 127.186 21.6608C127.186 20.6951 126.821 19.2466 125.602 19.2466C124.201 19.2466 124.018 20.514 124.018 21.6608C124.018 22.7471 124.201 24.0749 125.602 24.0749ZM125.968 11.1592C125.602 11.1592 125.298 10.8575 125.298 10.4954C125.298 10.1332 125.602 9.83147 125.968 9.83147C126.333 9.83147 126.638 10.1332 126.638 10.4954C126.638 10.8575 126.394 11.1592 125.968 11.1592ZM125.968 9.65041C125.541 9.65041 125.176 10.0125 125.176 10.435C125.176 10.8575 125.541 11.2196 125.968 11.2196C126.394 11.2196 126.76 10.8575 126.76 10.435C126.76 10.0125 126.394 9.65041 125.968 9.65041Z" fill="#FFFEFA"/>
<path id="Vector_2" d="M125.968 10.4353H125.785V10.1335H126.029C126.151 10.1335 126.273 10.1335 126.273 10.2542C126.273 10.4353 126.09 10.4353 125.968 10.4353ZM126.395 10.2542C126.395 10.0732 126.334 10.0128 126.09 10.0128H125.664V10.9181H125.785V10.4956H125.968L126.273 10.9181H126.395L126.151 10.4956C126.273 10.4956 126.395 10.4353 126.395 10.2542ZM130.66 25.2219C130.294 25.2219 129.99 24.9201 129.99 24.558C129.99 24.1959 130.294 23.8941 130.66 23.8941C131.025 23.8941 131.33 24.1959 131.33 24.558C131.33 24.9201 131.025 25.2219 130.66 25.2219ZM130.66 23.7131C130.233 23.7131 129.868 24.0752 129.868 24.4977C129.868 24.9201 130.233 25.2823 130.66 25.2823C131.086 25.2823 131.452 24.9201 131.452 24.4977C131.452 24.0752 131.086 23.7131 130.66 23.7131Z" fill="#FFFEFA"/>
<path id="Vector_3" d="M130.599 24.4975H130.416V24.1958H130.66C130.782 24.1958 130.904 24.1958 130.904 24.3165C130.904 24.4975 130.782 24.4975 130.599 24.4975ZM131.087 24.3165C131.087 24.1354 131.026 24.0751 130.782 24.0751H130.355V24.9804H130.477V24.5579H130.66L130.904 24.9804H131.026L130.782 24.5579C130.965 24.5579 131.087 24.4975 131.087 24.3165Z" fill="#FFFEFA"/>
<g id="Group">
<path id="Vector_4" d="M12.5791 14.7804C12.5181 14.7804 12.5181 14.7804 12.4572 14.8408L10.1419 18.3413C10.8731 18.643 11.6651 18.8241 12.5181 18.8241C13.3712 18.8241 14.1632 18.643 14.8944 18.3413L12.5791 14.8408C12.64 14.7804 12.5791 14.7804 12.5791 14.7804ZM10.3247 11.8834L6.85173 11.5817C6.72987 12.0041 6.66895 12.487 6.66895 12.9698C6.66895 14.4183 7.21731 15.7461 8.07032 16.7721L10.5075 12.1852C10.6293 12.0645 10.5684 11.9438 10.3247 11.8834Z" fill="#FFFEFA"/>
<path id="Vector_5" d="M18.0626 7.4779V0.657959H7.03441V7.4779H0.149414V18.4019H7.03441V25.2218H18.0626V18.4019H24.9476V7.4779H18.0626ZM12.579 6.21048C15.3208 6.21048 17.697 7.77967 18.7328 10.1335H13.8585C13.1883 10.1335 12.8836 9.71098 12.8227 9.40922C12.8227 9.0471 12.8836 8.92639 13.1883 8.50391C13.5538 8.02109 13.3101 7.17614 12.518 7.11578C11.726 7.11578 11.4822 8.02109 11.8478 8.50391C12.1525 8.92639 12.2134 9.0471 12.2134 9.40922C12.2134 9.71098 11.9088 10.1335 11.1776 10.1335H6.30326C7.46092 7.84003 9.83716 6.21048 12.579 6.21048ZM5.7549 12.9701C5.7549 12.1251 5.93769 11.3405 6.18141 10.6163L10.7511 11.0388C11.6041 11.1595 11.726 12.0044 11.4822 12.4872L8.37486 18.3415C6.7907 17.0741 5.7549 15.1428 5.7549 12.9701ZM16.2957 18.6433C15.1989 19.3675 13.9194 19.7297 12.518 19.7297C11.1167 19.7297 9.83716 19.3072 8.74043 18.6433L12.0915 13.7547C12.3353 13.3925 12.7008 13.4529 12.9445 13.7547L16.2957 18.6433ZM16.7831 18.2812L13.6757 12.4872C13.432 12.0044 13.5538 11.1595 14.4068 11.0388L18.9765 10.6163C19.2812 11.3405 19.403 12.1855 19.403 12.9701C19.403 15.1428 18.3672 17.0741 16.7831 18.2812Z" fill="#FFFEFA"/>
<path id="Vector_6" d="M17.027 9.16754C16.2959 8.32259 15.321 7.6587 14.2243 7.35693C14.5898 7.90012 14.2852 8.68471 13.9806 9.04683C13.9196 9.10718 13.9806 9.16754 13.9806 9.16754H17.027ZM14.8336 11.8834C14.5898 11.8834 14.5898 12.0042 14.6508 12.1249L17.0879 16.7117C17.9409 15.6857 18.4893 14.3579 18.4893 12.9095C18.4893 12.4266 18.4284 11.9438 18.3065 11.5213L14.8336 11.8834ZM10.9341 7.41729C9.83737 7.71905 8.8625 8.38294 8.13135 9.22789H11.1778C11.2387 9.22789 11.2387 9.16754 11.1778 9.10718C10.8732 8.68471 10.5685 7.96047 10.9341 7.41729Z" fill="#FFFEFA"/>
</g>
<g id="Group_2">
<path id="Vector_7" d="M47.1254 0.657959C44.4445 1.98574 41.7636 2.70998 38.6562 2.70998C35.5488 2.70998 32.8679 1.98574 30.1871 0.657959C28.4201 4.09811 28.1764 9.65063 29.6996 14.2979C31.1619 18.764 34.0256 22.868 38.6562 25.4029C43.3478 22.868 46.1505 18.764 47.6128 14.2979C49.197 9.65063 48.8923 4.09811 47.1254 0.657959ZM45.9068 13.7547C44.5664 17.5569 42.5557 20.9367 38.7171 23.2905C34.8786 20.9367 32.807 17.5569 31.5275 13.7547C30.3698 10.3749 30.0652 6.39154 31.3447 3.31351C33.2945 3.9774 34.3912 4.15846 35.427 4.33952C36.4018 4.52058 37.2548 4.58094 38.7171 4.58094C40.1185 4.58094 41.0325 4.46023 42.0073 4.33952C43.0431 4.15846 44.2008 3.9774 46.0896 3.31351C47.3082 6.39154 47.0644 10.3749 45.9068 13.7547Z" fill="#FFFEFA"/>
<path id="Vector_8" d="M42.0074 5.18439C40.9107 5.30509 39.753 5.4258 38.6563 5.4258C37.5596 5.4258 36.4629 5.30509 35.3052 5.18439C34.2085 5.00333 33.1118 4.76191 31.9541 4.46014C31.162 6.75358 31.2839 9.65055 31.9541 12.1854C33.1118 17.0137 36.0973 20.6952 38.6563 22.3248C41.2763 20.6952 44.2009 17.0137 45.3585 12.1854C45.9678 9.59019 46.1506 6.75358 45.3585 4.46014C44.2009 4.76191 43.1651 5.06368 42.0074 5.18439ZM38.047 20.0917C37.9861 20.3331 38.1079 20.4538 38.1079 20.5745C38.047 20.7556 37.9252 20.6952 37.8642 20.5745C37.7424 20.3935 37.6814 20.2728 37.6814 19.971C37.6205 19.4882 37.8642 19.3071 37.9861 19.1864C38.1079 19.0657 38.2298 19.0053 38.2298 19.0053L38.2907 19.7899C38.1689 19.7899 38.047 19.8503 38.047 20.0917ZM39.0828 20.8763C39.0828 20.997 39.0219 21.1177 38.7782 21.1177C38.5954 21.1177 38.4735 21.0574 38.4735 20.8159C38.4126 19.8503 38.4126 18.1 38.4126 18.1C38.4126 18.1 38.6563 18.1604 38.8391 18.2811C38.9 18.2811 39.0219 18.4018 39.1437 18.5225C39.1437 18.5829 39.2047 18.5829 39.2047 18.6432C39.1437 19.3071 39.0828 20.5745 39.0828 20.8763ZM39.8749 19.0657C39.6312 19.2468 39.3875 19.3071 39.3875 19.3071V18.5829C39.3875 18.5829 39.4484 18.5225 39.4484 18.4018C39.3875 18.2811 38.9 17.919 38.6563 17.7983C38.3517 17.6776 37.9861 17.5569 37.7424 17.4965C37.1331 17.2551 36.8894 16.7119 37.1331 16.1084C37.194 15.867 37.4987 15.7462 37.6205 15.6859C37.7424 15.6255 37.9861 15.5652 37.9861 15.5652L38.047 16.4101C38.047 16.4101 37.9861 16.4101 37.9252 16.5308C37.8642 16.6516 37.9861 16.7723 38.047 16.7723C38.4735 16.9533 39.0219 17.1947 39.4484 17.4361C39.9967 17.7379 40.1795 17.9793 40.1795 18.4018C40.2405 18.7036 40.0577 18.945 39.8749 19.0657ZM38.3517 15.1427C38.7782 15.2031 38.9 15.2031 39.2656 15.2634L39.2047 16.9533L38.8391 16.7723L38.4735 16.5912L38.3517 15.1427ZM40.7888 15.5048C40.7279 15.8066 40.5451 16.048 40.2405 16.2291C39.9358 16.4101 39.5702 16.4101 39.5702 16.4101V15.3841C39.5702 15.3841 39.6312 15.3841 39.6921 15.3238C39.753 15.2634 39.753 15.2031 39.753 15.1427C39.753 15.0824 39.6921 15.022 39.6312 14.9617C39.5093 14.9013 39.3875 14.9013 39.3265 14.9013L37.8642 14.7202C37.0112 14.5995 36.341 14.0563 36.4019 13.2114C36.4629 12.6682 37.0112 12.4872 37.4377 12.3061L37.7424 12.9096C37.8033 13.151 37.8642 13.2718 37.8642 13.2718C37.8642 13.2718 37.6814 13.3321 37.6814 13.4528C37.6814 13.5735 37.8642 13.6339 37.9252 13.6339C38.5344 13.6942 39.3875 13.8149 39.814 13.996C40.1186 14.1167 40.3623 14.2374 40.5451 14.4788C40.7888 14.9013 40.8498 15.2031 40.7888 15.5048ZM37.9861 11.5819C37.9861 11.5819 38.1689 11.5819 38.7172 11.6422C39.0828 11.6422 39.3875 11.7629 39.3875 11.7629L39.3265 13.5735C38.9 13.5132 38.6563 13.4528 38.2907 13.3925C38.1689 12.7286 37.9861 12.4872 37.7424 12.0043C37.6814 11.8836 37.7424 11.8233 37.7424 11.8233C37.8033 11.7629 38.047 11.7026 38.047 11.7026L37.9861 11.5819ZM39.6312 13.3925C39.6312 13.3925 39.6921 12.5475 39.6921 12.125C39.9358 12.0647 39.9967 11.8233 39.8749 11.6422C39.814 11.5215 39.6312 11.4611 39.5702 11.4611C39.0828 11.3404 38.6563 11.3404 38.1689 11.2801C37.7424 11.2197 37.3768 11.1594 37.0112 11.099C36.2191 10.918 35.488 10.4955 35.1224 9.77125C34.6959 8.86595 35.0615 7.71923 35.9754 7.29676C36.6456 6.93464 37.3768 6.99499 38.047 7.29676C38.2907 7.35711 38.4126 7.59853 38.5344 7.77959C38.5954 7.83994 38.7172 7.90029 38.7782 8.021C38.8391 8.08135 38.7172 8.08135 38.7172 8.08135C38.5954 8.14171 38.047 8.14171 37.9252 8.08135H37.194C37.3768 8.20206 37.6205 8.32277 37.8642 8.44347C37.9861 8.50383 38.1079 8.50383 38.2298 8.56418C38.2907 8.56418 38.4126 8.62454 38.4126 8.68489C38.4126 8.74524 38.2907 8.74524 38.1689 8.8056C37.9861 8.86595 37.7424 8.86595 37.4987 8.8056C37.1331 8.74524 36.9503 8.50383 36.7066 8.62454C36.5238 8.74524 36.5238 8.9263 36.5847 9.16772C36.6456 9.52984 37.0112 9.65055 37.3159 9.77125C38.3517 10.1334 39.5093 9.89196 40.4842 10.4351C40.8498 10.6162 41.3372 11.0387 41.3981 11.4611C41.7028 13.151 39.6312 13.3925 39.6312 13.3925ZM41.4591 7.77959C41.3981 7.96065 41.3372 7.96065 41.2153 8.08135C40.9716 8.32277 40.606 8.56418 40.2405 8.86595C39.9968 9.04701 39.814 9.16772 39.6312 9.46948C39.5702 9.52984 39.5093 9.65054 39.5093 9.65054C38.9 9.52984 38.3517 9.52984 37.8642 9.40913V8.9263C37.8642 8.9263 38.4126 8.9263 38.4735 8.56418C38.4735 8.56418 38.4735 8.44348 38.4126 8.38312C38.3517 8.32277 38.1689 8.26241 38.1079 8.26241C38.5344 8.32277 38.961 8.50383 39.3875 8.68489C39.3875 8.62454 39.3265 8.44347 39.3265 8.44347C39.2656 8.38312 39.2047 8.32277 39.0219 8.26241C38.7782 8.20206 38.1079 8.14171 38.1079 8.14171H38.6563C38.7782 8.14171 38.961 8.08135 38.961 8.021C39.0219 7.96065 38.961 7.83994 38.8391 7.71923L38.6563 7.53817C38.5954 7.41747 38.4735 7.29676 38.4126 7.17605C38.2907 6.99499 37.8033 6.81393 37.8033 6.81393C37.8033 6.81393 37.7424 6.51216 37.8642 6.39146C37.9252 6.27075 38.1689 6.27075 38.2298 6.3311C38.5344 6.51216 38.961 6.69322 39.3875 6.81393C39.5093 6.87428 39.5093 6.87428 39.5093 7.05534C39.5702 7.35711 39.4484 7.77959 39.5093 7.96065C39.5093 8.021 39.6312 8.021 39.6312 8.021C40.0577 7.77959 40.3014 7.41747 40.7279 7.2364C41.0325 7.1157 41.5809 7.35711 41.4591 7.77959Z" fill="#FFFEFA"/>
<path id="Vector_9" d="M37.3771 7.35728C37.4991 7.47799 37.4991 7.59869 37.682 7.59869C37.8039 7.59869 37.8648 7.53834 37.9258 7.47799H38.0477C37.8648 7.29693 37.4381 7.29693 37.1333 7.23657C37.2552 7.35728 37.3162 7.29693 37.3771 7.35728Z" fill="#FFFEFA"/>
</g>
</g>
</g>
</g>
</svg>
