<svg width="66" height="37" viewBox="0 0 66 37" fill="none" xmlns="http://www.w3.org/2000/svg">
<g id="carrefour" clip-path="url(#clip0_2069_21528)">
<path id="path15-9" d="M22.3628 3.33512L8.1306 17.1037C7.41978 17.7073 6.96582 18.4161 6.96582 19.4302C6.96582 20.4398 7.42029 21.1511 8.1306 21.7593L22.3628 35.5233C22.4542 35.6167 22.5426 35.654 22.6176 35.654C22.7524 35.654 22.8454 35.5314 22.8413 35.3874C22.8372 35.3027 22.8004 35.2051 22.7162 35.1209C19.3755 30.9703 16.9449 26.2101 16.9449 19.4803C16.9449 12.7464 19.3755 7.89265 22.7162 3.73905C22.8004 3.65581 22.8372 3.55981 22.8413 3.473C22.8459 3.32593 22.7524 3.20695 22.6176 3.20695C22.5426 3.2055 22.4542 3.24219 22.3628 3.33512Z" fill="#FFFEFA"/>
<path id="path17-4" d="M33.3043 2.16919C27.7316 2.16919 25.5542 10.0663 25.5542 19.4791C25.5542 28.8949 27.7316 36.6869 33.3043 36.6869C36.6485 36.6869 39.4989 34.7286 39.5081 33.119C39.5096 32.7667 39.3738 32.4291 39.0782 32.1345C37.4931 30.6031 36.8732 29.0726 36.8686 27.722C36.8584 25.1437 39.095 23.2232 41.157 23.2232C43.9916 23.2232 45.6634 25.4511 45.6634 28.3363C45.6634 31.0703 44.4987 33.3473 43.2312 35.1708C43.1812 35.2454 43.1587 35.3286 43.1587 35.4016C43.1598 35.5446 43.244 35.662 43.3701 35.662C43.4467 35.662 43.5366 35.6212 43.6346 35.5226L57.8704 21.7586C58.5812 21.151 59.0352 20.4391 59.0352 19.4296C59.0352 18.4159 58.5807 17.7067 57.8704 17.1031L43.6346 3.33449C43.5371 3.23695 43.4472 3.19559 43.3701 3.19559C43.243 3.19559 43.1597 3.31406 43.1587 3.45755C43.1587 3.53109 43.1812 3.6133 43.2312 3.68887C44.4981 5.50985 45.6634 7.78937 45.6634 10.5213C45.6634 13.4045 43.9916 15.6344 41.157 15.6344C39.095 15.6344 36.8584 13.7154 36.8686 11.1367C36.8732 9.78601 37.4931 8.25407 39.0782 6.72416C39.3738 6.42799 39.5096 6.09351 39.5081 5.74066C39.4989 4.12854 36.6485 2.16919 33.3043 2.16919Z" fill="#FFFEFA"/>
</g>
<defs>
<clipPath id="clip0_2069_21528">
<rect width="64.7999" height="36" fill="white" transform="translate(0.581055 0.88208)"/>
</clipPath>
</defs>
</svg>
