<svg width="64" height="64" viewBox="0 0 64 64" fill="none" xmlns="http://www.w3.org/2000/svg">
<circle cx="32" cy="32" r="32" fill="#0277BD"/>
<path d="M31.2084 38.2857L31.8575 42.149C31.4459 42.3707 30.7809 42.5765 29.8942 42.7665C28.9917 42.9723 27.9309 43.0832 26.7117 43.0832C23.2125 43.0198 20.5842 41.9748 18.8267 39.9798C17.0534 37.969 16.1667 35.4198 16.1667 32.3323C16.2459 28.6748 17.3067 25.8723 19.3334 23.909C21.4234 21.9298 24.02 20.9165 27.155 20.9165C28.3425 20.9165 29.3717 21.0273 30.2267 21.2173C31.0817 21.4073 31.715 21.6132 32.1267 21.8507L31.2084 25.7932L29.53 25.2548C28.8967 25.0965 28.1684 25.0173 27.3292 25.0173C25.4925 25.0015 23.9725 25.5873 22.785 26.759C21.5817 27.9148 20.9642 29.6882 20.9167 32.0473C20.9167 34.2007 21.5025 35.879 22.6267 37.114C23.7509 38.3332 25.3342 38.9665 27.3609 38.9823L29.4667 38.7923C30.1475 38.6657 30.7175 38.4915 31.2084 38.2857M34.9925 43.0832L35.9584 36.7498H33.5834L34.1217 33.5832H36.4967L37.0034 30.4165H34.6284L35.1667 27.2498H37.5417L38.5075 20.9165H41.6742L40.7084 27.2498H42.2917L43.2575 20.9165H46.4242L45.4584 27.2498H47.8334L47.295 30.4165H44.92L44.4134 33.5832H46.7884L46.25 36.7498H43.875L42.9092 43.0832H39.7425L40.7084 36.7498H39.125L38.1592 43.0832H34.9925ZM39.6634 33.5832H41.2467L41.7534 30.4165H40.17L39.6634 33.5832Z" fill="white"/>
</svg>
