<svg width="40" height="40" viewBox="0 0 40 40" fill="none" xmlns="http://www.w3.org/2000/svg">
<path d="M0 8C0 3.58172 3.58172 0 8 0H32C36.4183 0 40 3.58172 40 8V32C40 36.4183 36.4183 40 32 40H8C3.58172 40 0 36.4183 0 32V8Z" fill="black"/>
<path d="M26.5004 13.4742V22.1665H17.8082V13.4742H26.5004ZM30.9077 9.06689H13.4008V26.5738H30.9077V9.06689Z" fill="#FF44DD"/>
<path d="M19.9658 30.9332V20.0085H9.04119V30.9332H19.9658Z" fill="#635DFF"/>
<path d="M12.9126 23.8795L15.9897 26.992L23.6929 19.3764L20.6158 16.2639L12.9126 23.8795Z" fill="#3EC6EB"/>
<path d="M14.4513 27.624C13.2427 27.624 12.2629 26.6443 12.2629 25.4357C12.2629 24.2271 13.2427 23.2473 14.4513 23.2473C15.6599 23.2473 16.6396 24.2271 16.6396 25.4357C16.6396 26.6443 15.6599 27.624 14.4513 27.624Z" fill="black"/>
<path d="M22.1542 20.0086C20.9456 20.0086 19.9658 19.0288 19.9658 17.8202C19.9658 16.6116 20.9456 15.6318 22.1542 15.6318C23.3628 15.6318 24.3425 16.6116 24.3425 17.8202C24.3425 19.0288 23.3628 20.0086 22.1542 20.0086Z" fill="white"/>
</svg>
