<svg width="41" height="41" viewBox="0 0 41 41" fill="none" xmlns="http://www.w3.org/2000/svg">
<rect y="0.000244141" width="40.241" height="40.241" rx="8" fill="black"/>
<g clip-path="url(#clip0_927_8872)">
<path d="M15.1958 21.5356L14.3351 20.6749C13.9203 20.2634 13.5914 19.7737 13.3672 19.2341C13.143 18.6946 13.0281 18.1159 13.0291 17.5317C13.0277 16.9474 13.1421 16.3687 13.3656 15.8289C13.589 15.289 13.9172 14.7988 14.3311 14.3864C14.7435 13.9725 15.2337 13.6444 15.7735 13.4209C16.3133 13.1974 16.8921 13.0831 17.4764 13.0844C18.0599 13.0836 18.6379 13.1982 19.177 13.4217C19.7161 13.6451 20.2057 13.973 20.6176 14.3864L21.4763 15.2471L24.5936 12.1318L23.7329 11.2711C22.9127 10.4461 21.9371 9.79189 20.8626 9.34628C19.788 8.90068 18.6357 8.67254 17.4724 8.67507C16.309 8.67254 15.1568 8.90068 14.0822 9.34628C13.0076 9.79189 12.032 10.4461 11.2118 11.2711C10.3866 12.0912 9.73227 13.0667 9.28665 14.1414C8.84103 15.216 8.613 16.3683 8.61575 17.5317C8.61272 18.6948 8.84062 19.8469 9.28626 20.9212C9.7319 21.9956 10.3864 22.9708 11.2118 23.7902L12.0725 24.6509L15.1958 21.5356Z" fill="#FF4F40"/>
<path d="M28.9209 16.4512L28.0602 15.5925L24.945 18.7078L25.8057 19.5685C26.22 19.9801 26.5485 20.4699 26.772 21.0095C26.9956 21.5491 27.1096 22.1277 27.1077 22.7118C27.11 23.2958 26.9965 23.8745 26.7737 24.4144C26.5508 24.9543 26.2232 25.4446 25.8096 25.857C24.9749 26.6893 23.8442 27.1566 22.6654 27.1566C21.4866 27.1566 20.3559 26.6893 19.5212 25.857L18.6605 24.9963L15.5452 28.1116L16.4059 28.9723C17.2268 29.7962 18.2026 30.4498 19.277 30.8953C20.3514 31.3408 21.5033 31.5696 22.6664 31.5684C23.8292 31.5694 24.9808 31.3406 26.0548 30.8951C27.1289 30.4495 28.1043 29.7961 28.9249 28.9723C29.7506 28.1526 30.4052 27.1771 30.8509 26.1024C31.2965 25.0277 31.5243 23.8752 31.521 22.7118C31.5238 21.548 31.2954 20.3954 30.849 19.3207C30.4027 18.2459 29.7473 17.2706 28.9209 16.4512Z" fill="#3EC6EB"/>
<path d="M21.4868 15.2454L15.2017 21.5305L18.6627 24.9915L24.9478 18.7064L21.4868 15.2454Z" fill="white"/>
</g>
<defs>
<clipPath id="clip0_927_8872">
<rect width="22.8874" height="22.8834" fill="white" transform="translate(8.62769 8.67896)"/>
</clipPath>
</defs>
</svg>
