<svg width="20" height="20" viewBox="0 0 20 20" fill="none" xmlns="http://www.w3.org/2000/svg">
<g clip-path="url(#clip0_727_7509)">
<path d="M14.9998 8.3335H13.9498C13.638 7.12599 12.9938 6.03015 12.0903 5.17049C11.1868 4.31083 10.0604 3.72182 8.83887 3.47039C7.61737 3.21896 6.34985 3.3152 5.18031 3.74816C4.01078 4.18112 2.98613 4.93344 2.22281 5.91965C1.45949 6.90585 0.988092 8.08639 0.862189 9.32712C0.736287 10.5679 0.960925 11.819 1.51058 12.9385C2.06023 14.0579 2.91286 15.0007 3.97158 15.6598C5.03031 16.3189 6.25266 16.6678 7.49977 16.6668H14.9998C16.1048 16.6668 17.1646 16.2278 17.946 15.4464C18.7274 14.665 19.1664 13.6052 19.1664 12.5002C19.1664 11.3951 18.7274 10.3353 17.946 9.55388C17.1646 8.77248 16.1048 8.3335 14.9998 8.3335Z" stroke="#1E212A" stroke-width="2" stroke-linecap="round" stroke-linejoin="round"/>
</g>
<defs>
<clipPath id="clip0_727_7509">
<rect width="20" height="20" fill="white"/>
</clipPath>
</defs>
</svg>
