<svg width="40" height="40" viewBox="0 0 40 40" fill="none" xmlns="http://www.w3.org/2000/svg">
<g clip-path="url(#clip0_727_7341)">
<rect width="40" height="40" rx="6.66667" fill="url(#paint0_linear_727_7341)"/>
<g opacity="0.7" clip-path="url(#clip1_727_7341)">
<path d="M105.32 -4.11325C79.6095 -2.63522 57.5422 6.02673 31.9345 -0.400978C30.044 -0.882196 28.1191 -1.29467 26.1942 -1.67277C6.1549 -5.5569 -14.8468 -3.87263 -35.2986 -4.01012" stroke="url(#paint1_linear_727_7341)" stroke-width="0.275" stroke-miterlimit="10"/>
<path d="M105.32 -1.19165C79.1626 0.286379 55.033 10.2545 28.9785 4.20488C8.07981 -0.641682 -13.8844 1.07697 -35.2986 -1.08852" stroke="url(#paint2_linear_727_7341)" stroke-width="0.275" stroke-miterlimit="10"/>
<path d="M105.32 1.7644C78.7845 2.96745 53.0049 13.7261 26.6754 8.05462C6.36111 3.6549 -14.7437 5.47666 -35.2986 1.86752" stroke="url(#paint3_linear_727_7341)" stroke-width="0.275" stroke-miterlimit="10"/>
<path d="M105.32 4.72046C78.4752 5.47666 51.4582 16.6134 24.9224 11.2169C5.02062 7.16093 -15.3968 9.39515 -35.2986 4.82357" stroke="url(#paint4_linear_727_7341)" stroke-width="0.275" stroke-miterlimit="10"/>
<path d="M105.32 7.67676C87.309 7.81425 70.3288 10.4953 52.73 13.6576C42.2807 15.5481 34.1 15.8231 23.7194 13.8295C4.05818 10.0141 -15.8093 12.9702 -35.2986 7.77987" stroke="url(#paint5_linear_727_7341)" stroke-width="0.275" stroke-miterlimit="10"/>
<path d="M105.32 10.5983C87.034 10.2889 69.7101 12.3857 51.8019 15.5824C41.4214 17.4385 33.3437 17.9541 22.9975 15.9948C3.40507 12.3169 -16.0155 16.3042 -35.333 10.7014" stroke="url(#paint6_linear_727_7341)" stroke-width="0.275" stroke-miterlimit="10"/>
<path d="M105.32 13.5543C86.8965 12.7981 69.3664 14.173 51.2863 17.3353C40.9745 19.1227 33 19.8101 22.7225 17.9196C3.02695 14.3105 -15.9124 19.5351 -35.2986 13.6574" stroke="url(#paint7_linear_727_7341)" stroke-width="0.275" stroke-miterlimit="10"/>
<path d="M105.32 16.5102C86.8965 15.3072 69.2633 15.8915 51.0801 18.9851C40.8714 20.7037 33.0001 21.5287 22.7914 19.7069C2.78641 16.0978 -15.603 22.8005 -35.333 16.6477" stroke="url(#paint8_linear_727_7341)" stroke-width="0.275" stroke-miterlimit="10"/>
<path d="M105.32 19.4665C87.034 17.8166 69.2633 17.6103 51.1489 20.6008C41.0777 22.2507 33.275 23.5225 23.2381 21.4257C1.85826 16.9573 -14.95 25.9973 -35.2643 19.5696" stroke="url(#paint9_linear_727_7341)" stroke-width="0.275" stroke-miterlimit="10"/>
<path d="M105.32 22.3881C87.7215 20.3945 70.3632 19.3633 52.7644 22.01C43.1744 23.4537 35.4749 25.1723 25.7474 23.5912C18.0135 22.3194 11.3452 20.532 3.47379 22.0787C-11.5471 25.0004 -19.7965 27.5784 -35.2986 22.5256" stroke="url(#paint10_linear_727_7341)" stroke-width="0.275" stroke-miterlimit="10"/>
<path d="M105.32 25.3443C87.9277 23.0413 70.4663 21.2539 53.005 23.8319C43.6212 25.2068 36.1967 27.0973 26.6411 25.6192C18.976 24.4162 12.4795 22.5945 4.71124 24.3475C-10.9971 27.9222 -18.7654 30.9127 -35.2643 25.4818" stroke="url(#paint11_linear_727_7341)" stroke-width="0.275" stroke-miterlimit="10"/>
<path d="M105.32 28.3003C88.1683 25.7223 70.8101 23.4881 53.4518 25.8598C44.2743 27.1316 37.0217 29.0908 27.6723 27.6815C20.0071 26.5472 13.5451 24.8286 5.77684 26.7191C1.44587 27.7847 -2.43829 29.9502 -6.80363 31.0157C-17.2186 33.5249 -25.3305 31.5657 -35.2986 28.4034" stroke="url(#paint12_linear_727_7341)" stroke-width="0.275" stroke-miterlimit="10"/>
<path d="M105.32 31.2563C88.4089 28.369 71.1882 25.8254 53.9674 27.9222C44.8587 29.0221 37.7091 30.9126 28.4285 29.5377C20.6258 28.369 14.0263 26.7535 6.18929 28.7815C1.85832 29.9158 -2.0258 32.1844 -6.35677 33.353C-16.8405 36.1716 -25.0899 34.3155 -35.2986 31.3594" stroke="url(#paint13_linear_727_7341)" stroke-width="0.275" stroke-miterlimit="10"/>
<path d="M105.32 34.1778C88.6151 30.9811 71.5663 28.0595 54.4143 29.8468C45.2711 30.8093 38.1559 32.5623 28.9096 31.153C20.9352 29.95 14.095 28.2657 6.08615 30.5343C1.78955 31.7373 -1.9571 34.1778 -6.21932 35.484C-16.6343 38.6806 -24.9181 36.9964 -35.2643 34.2466" stroke="url(#paint14_linear_727_7341)" stroke-width="0.275" stroke-miterlimit="10"/>
<path d="M105.32 37.134C88.8214 33.5936 71.91 30.3626 54.8268 31.8062C45.6149 32.5968 38.4309 34.2123 29.1159 32.7343C20.9352 31.4281 13.7169 29.6064 5.53617 32.1499C1.30832 33.4561 -2.23206 36.1028 -6.39116 37.5809C-16.6342 41.2587 -24.8493 39.712 -35.333 37.2371" stroke="url(#paint15_linear_727_7341)" stroke-width="0.275" stroke-miterlimit="10"/>
<path d="M105.32 40.0902C88.9932 36.206 72.2881 32.6313 55.2736 33.7656C45.9242 34.3843 38.6371 35.7936 29.2534 34.2468C20.8664 32.8375 13.1326 30.7751 4.77998 33.6624C0.655244 35.1061 -2.64452 37.9247 -6.63177 39.6089C-16.6342 43.8024 -24.7462 42.4619 -35.2986 40.2276" stroke="url(#paint16_linear_727_7341)" stroke-width="0.275" stroke-miterlimit="10"/>
<path d="M105.32 43.0462C89.2339 38.8183 72.6662 34.9342 55.7204 35.7248C46.2335 36.1716 38.8091 37.3403 29.3222 35.6904C20.7634 34.178 12.342 31.7375 3.85193 35.0373C-0.169686 36.5841 -3.19452 39.6433 -7.0099 41.5338C-16.7374 46.2772 -24.7118 45.1086 -35.2986 43.1837" stroke="url(#paint17_linear_727_7341)" stroke-width="0.275" stroke-miterlimit="10"/>
<path d="M105.32 45.9679C89.4401 41.3963 73.113 37.2028 56.2704 37.7184C46.6116 37.9934 39.084 38.9558 29.4596 37.1684C20.729 35.5529 11.5858 32.7344 2.9582 36.3779C-0.994666 38.0621 -3.71011 41.3275 -7.35363 43.4243C-16.7374 48.7521 -24.6087 47.7553 -35.2986 46.1054" stroke="url(#paint18_linear_727_7341)" stroke-width="0.275" stroke-miterlimit="10"/>
<path d="M105.32 48.9238C89.7151 44.0429 73.6286 39.5744 56.9234 39.815C47.1272 39.9525 39.4621 40.64 29.7346 38.7495C20.8665 36.9965 10.9327 33.7998 2.20202 37.8214C-1.6821 39.6432 -4.12252 43.1148 -7.62854 45.3834C-16.7373 51.2955 -24.5056 50.4362 -35.2986 49.0269" stroke="url(#paint19_linear_727_7341)" stroke-width="0.275" stroke-miterlimit="10"/>
<path d="M105.32 51.88C90.1276 46.7241 74.1443 41.8775 57.6797 42.015C47.7804 42.0838 40.0464 42.4619 30.2158 40.4339C21.2102 38.5778 10.5202 35.003 1.68643 39.3683C-2.1977 41.2932 -4.39755 44.9711 -7.76608 47.4116C-16.6343 53.8393 -24.3337 53.1518 -35.2986 51.9831" stroke="url(#paint20_linear_727_7341)" stroke-width="0.275" stroke-miterlimit="10"/>
<path d="M105.32 54.836C90.5057 49.4051 74.866 44.318 58.6421 44.318C48.674 44.318 40.9401 44.4555 31.0751 42.3244C21.932 40.3651 10.589 36.481 1.6521 41.1213C-2.2664 43.1493 -4.26004 46.9647 -7.55982 49.577C-16.2905 56.4515 -24.0244 55.936 -35.2643 54.9735" stroke="url(#paint21_linear_727_7341)" stroke-width="0.275" stroke-miterlimit="10"/>
</g>
<path d="M12.43 12.4545V27H14.5181V16.4673H14.6531L18.9428 26.9787H20.6758L24.9656 16.4744H25.1005V27H27.1886V12.4545H24.5252L19.8945 23.7614H19.7241L15.0934 12.4545H12.43Z" fill="white"/>
</g>
<defs>
<linearGradient id="paint0_linear_727_7341" x1="0.0056568" y1="19.9992" x2="40.0052" y2="19.9992" gradientUnits="userSpaceOnUse">
<stop stop-color="#635DFF"/>
<stop offset="1" stop-color="#3885FF"/>
</linearGradient>
<linearGradient id="paint1_linear_727_7341" x1="35.0108" y1="-4.25781" x2="35.0108" y2="1.94454" gradientUnits="userSpaceOnUse">
<stop offset="0.546875" stop-color="white"/>
<stop offset="1" stop-color="white" stop-opacity="0.3"/>
</linearGradient>
<linearGradient id="paint2_linear_727_7341" x1="35.0108" y1="-1.19165" x2="35.0108" y2="6.13532" gradientUnits="userSpaceOnUse">
<stop offset="0.546875" stop-color="white"/>
<stop offset="1" stop-color="white" stop-opacity="0.3"/>
</linearGradient>
<linearGradient id="paint3_linear_727_7341" x1="35.0108" y1="1.7644" x2="35.0108" y2="9.69508" gradientUnits="userSpaceOnUse">
<stop offset="0.546875" stop-color="white"/>
<stop offset="1" stop-color="white" stop-opacity="0.3"/>
</linearGradient>
<linearGradient id="paint4_linear_727_7341" x1="35.0108" y1="4.72046" x2="35.0108" y2="12.6875" gradientUnits="userSpaceOnUse">
<stop offset="0.546875" stop-color="white"/>
<stop offset="1" stop-color="white" stop-opacity="0.3"/>
</linearGradient>
<linearGradient id="paint5_linear_727_7341" x1="35.0108" y1="7.67676" x2="35.0108" y2="15.2049" gradientUnits="userSpaceOnUse">
<stop offset="0.546875" stop-color="white"/>
<stop offset="1" stop-color="white" stop-opacity="0.3"/>
</linearGradient>
<linearGradient id="paint6_linear_727_7341" x1="34.9937" y1="10.5681" x2="34.9937" y2="17.2403" gradientUnits="userSpaceOnUse">
<stop offset="0.546875" stop-color="white"/>
<stop offset="1" stop-color="white" stop-opacity="0.3"/>
</linearGradient>
<linearGradient id="paint7_linear_727_7341" x1="35.0108" y1="13.3511" x2="35.0108" y2="19.047" gradientUnits="userSpaceOnUse">
<stop offset="0.546875" stop-color="white"/>
<stop offset="1" stop-color="white" stop-opacity="0.3"/>
</linearGradient>
<linearGradient id="paint8_linear_727_7341" x1="34.9937" y1="15.928" x2="34.9937" y2="20.7349" gradientUnits="userSpaceOnUse">
<stop offset="0.546875" stop-color="white"/>
<stop offset="1" stop-color="white" stop-opacity="0.3"/>
</linearGradient>
<linearGradient id="paint9_linear_727_7341" x1="35.028" y1="18.2759" x2="35.028" y2="22.5212" gradientUnits="userSpaceOnUse">
<stop offset="0.546875" stop-color="white"/>
<stop offset="1" stop-color="white" stop-opacity="0.3"/>
</linearGradient>
<linearGradient id="paint10_linear_727_7341" x1="35.0108" y1="20.4199" x2="35.0108" y2="25.3946" gradientUnits="userSpaceOnUse">
<stop offset="0.546875" stop-color="white"/>
<stop offset="1" stop-color="white" stop-opacity="0.3"/>
</linearGradient>
<linearGradient id="paint11_linear_727_7341" x1="35.028" y1="22.5642" x2="35.028" y2="28.4586" gradientUnits="userSpaceOnUse">
<stop offset="0.546875" stop-color="white"/>
<stop offset="1" stop-color="white" stop-opacity="0.3"/>
</linearGradient>
<linearGradient id="paint12_linear_727_7341" x1="35.0108" y1="24.8538" x2="35.0108" y2="32.1589" gradientUnits="userSpaceOnUse">
<stop offset="0.546875" stop-color="white"/>
<stop offset="1" stop-color="white" stop-opacity="0.3"/>
</linearGradient>
<linearGradient id="paint13_linear_727_7341" x1="35.0108" y1="27.1521" x2="35.0108" y2="34.7479" gradientUnits="userSpaceOnUse">
<stop offset="0.546875" stop-color="white"/>
<stop offset="1" stop-color="white" stop-opacity="0.3"/>
</linearGradient>
<linearGradient id="paint14_linear_727_7341" x1="35.028" y1="29.3027" x2="35.028" y2="37.2234" gradientUnits="userSpaceOnUse">
<stop offset="0.546875" stop-color="white"/>
<stop offset="1" stop-color="white" stop-opacity="0.3"/>
</linearGradient>
<linearGradient id="paint15_linear_727_7341" x1="34.9937" y1="30.8721" x2="34.9937" y2="39.7689" gradientUnits="userSpaceOnUse">
<stop offset="0.546875" stop-color="white"/>
<stop offset="1" stop-color="white" stop-opacity="0.3"/>
</linearGradient>
<linearGradient id="paint16_linear_727_7341" x1="35.0108" y1="32.2065" x2="35.0108" y2="42.3362" gradientUnits="userSpaceOnUse">
<stop offset="0.546875" stop-color="white"/>
<stop offset="1" stop-color="white" stop-opacity="0.3"/>
</linearGradient>
<linearGradient id="paint17_linear_727_7341" x1="35.0108" y1="33.394" x2="35.0108" y2="44.8626" gradientUnits="userSpaceOnUse">
<stop offset="0.546875" stop-color="white"/>
<stop offset="1" stop-color="white" stop-opacity="0.3"/>
</linearGradient>
<linearGradient id="paint18_linear_727_7341" x1="35.0108" y1="34.5977" x2="35.0108" y2="47.4209" gradientUnits="userSpaceOnUse">
<stop offset="0.546875" stop-color="white"/>
<stop offset="1" stop-color="white" stop-opacity="0.3"/>
</linearGradient>
<linearGradient id="paint19_linear_727_7341" x1="35.0108" y1="35.8799" x2="35.0108" y2="50.0561" gradientUnits="userSpaceOnUse">
<stop offset="0.546875" stop-color="white"/>
<stop offset="1" stop-color="white" stop-opacity="0.3"/>
</linearGradient>
<linearGradient id="paint20_linear_727_7341" x1="35.0108" y1="37.2886" x2="35.0108" y2="52.7491" gradientUnits="userSpaceOnUse">
<stop offset="0.546875" stop-color="white"/>
<stop offset="1" stop-color="white" stop-opacity="0.3"/>
</linearGradient>
<linearGradient id="paint21_linear_727_7341" x1="35.028" y1="38.9333" x2="35.028" y2="55.533" gradientUnits="userSpaceOnUse">
<stop offset="0.546875" stop-color="white"/>
<stop offset="1" stop-color="white" stop-opacity="0.3"/>
</linearGradient>
<clipPath id="clip0_727_7341">
<rect width="40" height="40" rx="6.66667" fill="white"/>
</clipPath>
<clipPath id="clip1_727_7341">
<rect width="128.333" height="128.333" fill="white" transform="matrix(-1 0 0 1 105.832 -22.5)"/>
</clipPath>
</defs>
</svg>
