<svg width="40" height="40" viewBox="0 0 40 40" fill="none" xmlns="http://www.w3.org/2000/svg">
<g clip-path="url(#clip0_541_22141)">
<path d="M30 0H10C4.47715 0 0 4.47715 0 10V30C0 35.5228 4.47715 40 10 40H30C35.5228 40 40 35.5228 40 30V10C40 4.47715 35.5228 0 30 0Z" fill="black"/>
<path d="M31.2868 13.4213L26.6155 8.75L20.5152 14.8503L19.9989 15.3666L18.0084 17.3571L16.9917 18.3738L8.79688 26.5686L10.7874 28.5591L11.5522 27.7943L14.3504 30.6005L16.3421 28.61L13.5393 25.8061L14.3041 25.0424L17.1069 27.8508L19.0951 25.8547L16.2924 23.0508L18.9822 20.3666L19.9989 19.3499L22.2368 17.112L22.7542 16.5934L25.4361 19.2753C26.2121 20.0512 27.2645 20.487 28.3618 20.4869C29.4592 20.4868 30.5115 20.0508 31.2873 19.2748C32.0632 18.4988 32.499 17.4464 32.4989 16.349C32.4988 15.2517 32.0628 14.1994 31.2868 13.4235V13.4213ZM29.3358 17.3221C29.0717 17.5858 28.7137 17.7338 28.3405 17.7338C27.9673 17.7338 27.6094 17.5858 27.3453 17.3221L24.6849 14.6617L25.6089 13.7376L26.6754 12.6712L29.3358 15.3316C29.5995 15.5957 29.7475 15.9536 29.7475 16.3268C29.7475 16.7 29.5995 17.058 29.3358 17.3221Z" fill="url(#paint0_linear_541_22141)"/>
<path d="M14.5624 19.2719L15.8887 17.9468L19.2348 14.6007L13.383 8.75L8.71176 13.4213C8.32759 13.8054 8.02284 14.2615 7.81493 14.7634C7.60701 15.2653 7.5 15.8033 7.5 16.3466C7.5 16.8899 7.60701 17.4279 7.81493 17.9298C8.02284 18.4317 8.32759 18.8878 8.71176 19.2719C9.09591 19.6561 9.55198 19.9609 10.0539 20.1688C10.5558 20.3767 11.0938 20.4837 11.6371 20.4837C12.1804 20.4837 12.7184 20.3767 13.2203 20.1688C13.7222 19.9609 14.1783 19.6561 14.5624 19.2719ZM10.6627 15.3305L13.3232 12.67L14.8482 14.1962L15.3137 14.6605L12.6566 17.321C12.3917 17.5801 12.0352 17.7242 11.6646 17.7222C11.2941 17.7201 10.9392 17.572 10.6772 17.3099C10.4151 17.0479 10.267 16.693 10.2649 16.3225C10.2629 15.9519 10.407 15.5954 10.6661 15.3305H10.6627Z" fill="url(#paint1_linear_541_22141)"/>
<path d="M13.449 12.5478L13.327 12.4258L13.2049 12.5478L10.5445 15.2082C10.3871 15.3524 10.2605 15.5271 10.1723 15.7215C10.0842 15.916 10.0363 16.1263 10.0316 16.3398C10.027 16.5533 10.0656 16.7655 10.1451 16.9636C10.2246 17.1618 10.3435 17.3418 10.4945 17.4928C10.6455 17.6438 10.8255 17.7626 11.0236 17.8422C11.2218 17.9217 11.434 17.9603 11.6475 17.9556C11.8609 17.951 12.0712 17.9031 12.2657 17.815C12.4602 17.7268 12.6348 17.6002 12.7791 17.4427L15.4395 14.7823L15.5615 14.6603L15.4395 14.5383L14.5143 13.6165L13.449 12.5478ZM12.6582 17.3207C12.3932 17.5798 12.0368 17.724 11.6662 17.7219C11.2956 17.7199 10.9408 17.5717 10.6787 17.3097C10.4167 17.0476 10.2685 16.6928 10.2665 16.3222C10.2644 15.9516 10.4086 15.5952 10.6677 15.3302L13.3281 12.6698L14.3956 13.7374L15.3186 14.6603L12.6582 17.3207Z" fill="url(#paint2_linear_541_22141)"/>
<path d="M28.3428 17.9095C28.6548 17.9087 28.9596 17.8155 29.2188 17.6418C29.478 17.4681 29.68 17.2216 29.7995 16.9334C29.9189 16.6451 29.9504 16.3279 29.89 16.0218C29.8296 15.7157 29.68 15.4343 29.46 15.213L26.7996 12.5525L26.6776 12.4305L26.5533 12.5491L25.0282 14.0742L24.5628 14.5397L24.4408 14.6617L24.5628 14.7837L27.2311 17.4441C27.3766 17.5911 27.5497 17.7079 27.7405 17.7878C27.9313 17.8677 28.1359 17.909 28.3428 17.9095ZM25.1525 14.1962L26.6776 12.6712L29.338 15.3316C29.4687 15.4625 29.5723 15.6179 29.643 15.7889C29.7136 15.9598 29.7499 16.143 29.7498 16.328C29.7496 16.513 29.713 16.6962 29.6421 16.867C29.5711 17.0379 29.4672 17.1931 29.3363 17.3238C29.2054 17.4545 29.05 17.5581 28.879 17.6288C28.7081 17.6994 28.5248 17.7357 28.3399 17.7355C28.1549 17.7354 27.9717 17.6988 27.8009 17.6279C27.63 17.5569 27.4748 17.453 27.3441 17.3221L24.6837 14.6617L25.1525 14.1962ZM31.289 19.2731C30.5129 20.0484 29.4607 20.4839 28.3637 20.4839C27.2666 20.4839 26.2144 20.0484 25.4383 19.2731L22.7564 16.5912L22.6785 16.6691L22.1136 17.234L16.2935 23.0542L16.1715 22.9321L22.1136 16.99L22.631 16.4714L22.753 16.3494L22.8762 16.4714L25.5603 19.1522C25.9285 19.5203 26.3655 19.8124 26.8465 20.0116C27.3275 20.2108 27.843 20.3134 28.3637 20.3134C28.8843 20.3134 29.3998 20.2108 29.8808 20.0116C30.3618 19.8124 30.7988 19.5203 31.167 19.1522C31.5351 18.7841 31.8271 18.347 32.0264 17.866C32.2256 17.385 32.3282 16.8695 32.3282 16.3489C32.3282 15.8282 32.2256 15.3127 32.0264 14.8317C31.8271 14.3507 31.5351 13.9137 31.167 13.5455L26.6177 8.99627L20.6416 14.9723L20.1231 15.4909L16.2822 19.3318L16.1602 19.2098L20.0011 15.3689L20.5196 14.8503L26.62 8.75L31.2912 13.4213C32.0666 14.1977 32.5019 15.2503 32.5015 16.3476C32.5011 17.445 32.0649 18.4972 31.289 19.2731Z" fill="url(#paint3_linear_541_22141)"/>
<path d="M17.1211 16.4708L14.4404 19.1538C14.0722 19.522 13.6352 19.814 13.1542 20.0132C12.6732 20.2125 12.1577 20.315 11.6371 20.315C11.1164 20.315 10.6009 20.2125 10.1199 20.0132C9.6389 19.814 9.20186 19.522 8.83372 19.1538C8.46558 18.7857 8.17356 18.3487 7.97432 17.8677C7.77509 17.3867 7.67254 16.8711 7.67254 16.3505C7.67254 15.8299 7.77509 15.3144 7.97432 14.8334C8.17356 14.3524 8.46558 13.9153 8.83372 13.5472L11.3473 11.0336L13.505 8.87591L13.383 8.75391L8.71171 13.4252C8.32755 13.8093 8.02282 14.2654 7.81491 14.7673C7.60701 15.2693 7.5 15.8072 7.5 16.3505C7.5 16.8938 7.60701 17.4318 7.81491 17.9337C8.02282 18.4356 8.32755 18.8917 8.71171 19.2759C9.09587 19.66 9.55194 19.9647 10.0539 20.1727C10.5558 20.3806 11.0938 20.4876 11.6371 20.4876C12.1803 20.4876 12.7183 20.3806 13.2202 20.1727C13.7222 19.9647 14.1782 19.66 14.5624 19.2759L16.9201 16.9182L19.2348 14.6046L19.1117 14.4826L17.1211 16.4708Z" fill="url(#paint4_linear_541_22141)"/>
<path d="M17.488 17.8831L8.79297 26.5781L8.91519 26.7003L17.6103 18.0053L17.488 17.8831Z" fill="url(#paint5_linear_541_22141)"/>
<path d="M20.7617 20.1127L22.7522 18.1211L31.2035 26.5712L29.2129 28.5617L28.4481 27.798L25.6442 30.6008L23.6537 28.6103L26.4576 25.8075L25.6928 25.0427L22.8901 27.8455L20.8995 25.855L23.7023 23.0522L20.7617 20.1127Z" fill="url(#paint6_linear_541_22141)"/>
</g>
<defs>
<linearGradient id="paint0_linear_541_22141" x1="31.3873" y1="11.5742" x2="16.6324" y2="26.3303" gradientUnits="userSpaceOnUse">
<stop offset="0.07" stop-color="#B1E4DE"/>
<stop offset="0.22" stop-color="#4CB7A3"/>
<stop offset="0.4" stop-color="#468DC0"/>
<stop offset="0.65" stop-color="#3F59E4"/>
</linearGradient>
<linearGradient id="paint1_linear_541_22141" x1="20.647" y1="7.33789" x2="9.76125" y2="18.2236" gradientUnits="userSpaceOnUse">
<stop offset="0.07" stop-color="#B1E4DE"/>
<stop offset="0.22" stop-color="#4CB7A3"/>
<stop offset="0.4" stop-color="#468DC0"/>
<stop offset="0.65" stop-color="#3F59E4"/>
</linearGradient>
<linearGradient id="paint2_linear_541_22141" x1="9.73905" y1="18.246" x2="12.3001" y2="15.6849" gradientUnits="userSpaceOnUse">
<stop offset="0.15" stop-color="#3F59E4"/>
<stop offset="0.54" stop-color="#4CB7A3"/>
<stop offset="1" stop-color="#3F59E4"/>
</linearGradient>
<linearGradient id="paint3_linear_541_22141" x1="30.775" y1="12.1888" x2="21.6538" y2="21.311" gradientUnits="userSpaceOnUse">
<stop offset="0.32" stop-color="#B1E4DE"/>
<stop offset="0.72" stop-color="#3F59E4"/>
</linearGradient>
<linearGradient id="paint4_linear_541_22141" x1="9.01334" y1="18.972" x2="13.0045" y2="14.9808" gradientUnits="userSpaceOnUse">
<stop offset="0.15" stop-color="#3F59E4"/>
<stop offset="0.54" stop-color="#4CB7A3"/>
<stop offset="1" stop-color="#3F59E4"/>
</linearGradient>
<linearGradient id="paint5_linear_541_22141" x1="8.5495" y1="22.2907" x2="16.7014" y2="22.2907" gradientUnits="userSpaceOnUse">
<stop offset="0.15" stop-color="#3F59E4"/>
<stop offset="0.54" stop-color="#4CB7A3"/>
<stop offset="1" stop-color="#3F59E4"/>
</linearGradient>
<linearGradient id="paint6_linear_541_22141" x1="32.2913" y1="17.0332" x2="21.6768" y2="27.6467" gradientUnits="userSpaceOnUse">
<stop offset="0.07" stop-color="#B1E4DE"/>
<stop offset="0.22" stop-color="#4CB7A3"/>
<stop offset="0.4" stop-color="#468DC0"/>
<stop offset="0.65" stop-color="#3F59E4"/>
</linearGradient>
<clipPath id="clip0_541_22141">
<rect width="40" height="40" fill="white"/>
</clipPath>
</defs>
</svg>
