<svg width="40" height="40" viewBox="0 0 40 40" fill="none" xmlns="http://www.w3.org/2000/svg">
<path d="M0 8C0 3.58172 3.58172 0 8 0H32C36.4183 0 40 3.58172 40 8V32C40 36.4183 36.4183 40 32 40H8C3.58172 40 0 36.4183 0 32V8Z" fill="black"/>
<path d="M16.0291 9.06689C12.1739 9.06689 9.04858 12.1922 9.04858 16.0474C9.04858 19.9026 12.1738 23.0278 16.029 23.0278L23.92 23.0278C24.4229 23.0278 24.8305 23.4355 24.8305 23.9383C24.8305 24.4412 24.4228 24.8488 23.9199 24.8488H20.0504V26.0628H23.92C25.0933 26.0628 26.0445 25.1116 26.0445 23.9383C26.0445 22.765 25.0933 21.8138 23.92 21.8138L16.0291 21.8138C12.8444 21.8138 10.2626 19.2321 10.2626 16.0474C10.2626 12.8626 12.8443 10.2809 16.029 10.2809H20.0605V9.0669L16.0291 9.06689Z" fill="url(#paint0_linear_727_7523)"/>
<path d="M16.0291 11.4949C13.5149 11.4949 11.4766 13.5331 11.4766 16.0474C11.4766 18.5616 13.5148 20.5998 16.029 20.5998H23.92C25.7638 20.5998 27.2585 22.0945 27.2585 23.9383C27.2585 25.7821 25.7637 27.2768 23.9199 27.2768H20.0504V28.4908H23.92C26.4343 28.4908 28.4725 26.4526 28.4725 23.9383C28.4725 21.424 26.4342 19.3858 23.9199 19.3858H16.0291C14.1853 19.3858 12.6906 17.8911 12.6906 16.0474C12.6906 14.2036 14.1853 12.7089 16.029 12.7089H20.0605V11.4949H16.0291Z" fill="url(#paint1_linear_727_7523)"/>
<path d="M13.9046 16.0474C13.9046 14.874 14.8557 13.9229 16.029 13.9229H20.0605V15.1369H16.029C15.5262 15.1369 15.1185 15.5445 15.1185 16.0474C15.1185 16.5502 15.5263 16.9578 16.0291 16.9578H23.9199C27.7751 16.9578 30.9005 20.0831 30.9005 23.9383C30.9005 27.7935 27.7752 30.9188 23.92 30.9188H20.0504V29.7048H23.9199C27.1047 29.7048 29.6865 27.123 29.6865 23.9383C29.6865 20.7536 27.1047 18.1718 23.92 18.1718L16.029 18.1718C14.8557 18.1718 13.9046 17.2207 13.9046 16.0474Z" fill="url(#paint2_linear_727_7523)"/>
<defs>
<linearGradient id="paint0_linear_727_7523" x1="9.04858" y1="9.06689" x2="30.9005" y2="30.9188" gradientUnits="userSpaceOnUse">
<stop offset="0.328125" stop-color="#FF4F40"/>
<stop offset="0.697917" stop-color="#FF44DD"/>
</linearGradient>
<linearGradient id="paint1_linear_727_7523" x1="9.04858" y1="9.06689" x2="30.9005" y2="30.9188" gradientUnits="userSpaceOnUse">
<stop offset="0.328125" stop-color="#FF4F40"/>
<stop offset="0.697917" stop-color="#FF44DD"/>
</linearGradient>
<linearGradient id="paint2_linear_727_7523" x1="9.04858" y1="9.06689" x2="30.9005" y2="30.9188" gradientUnits="userSpaceOnUse">
<stop offset="0.328125" stop-color="#FF4F40"/>
<stop offset="0.697917" stop-color="#FF44DD"/>
</linearGradient>
</defs>
</svg>
