<svg width="64" height="64" viewBox="0 0 64 64" fill="none" xmlns="http://www.w3.org/2000/svg">
<circle cx="32" cy="32" r="32" fill="#092E20"/>
<path d="M13.6591 24H16.2842V36.1507C14.9376 36.4063 13.9489 36.5086 12.8751 36.5086C9.67047 36.5086 8 35.0599 8 32.2812C8 29.6051 9.77285 27.8665 12.5171 27.8665C12.9432 27.8665 13.2671 27.9007 13.6592 28.0027V24H13.6591ZM13.6591 30.1162C13.3523 30.0141 13.0966 29.98 12.7728 29.98C11.4432 29.98 10.6761 30.7982 10.6761 32.2299C10.6761 33.6278 11.4091 34.3948 12.7558 34.3948C13.0454 34.3948 13.2841 34.3778 13.6591 34.3269V30.1162Z" fill="white"/>
<path d="M20.4602 28.0537V34.1392C20.4602 36.2357 20.3068 37.2413 19.8466 38.1108C19.4204 38.9461 18.8578 39.4743 17.6988 40.0539L15.2612 38.8948C16.4204 38.3493 16.9828 37.8724 17.3408 37.1391C17.7159 36.3892 17.8353 35.5196 17.8353 33.2355V28.0537H20.4602ZM17.8353 24.0139H20.4602V26.7073H17.8353V24.0139V24.0139Z" fill="white"/>
<path d="M22.0458 28.6503C23.205 28.1047 24.3129 27.8662 25.5232 27.8662C26.8698 27.8662 27.7561 28.2241 28.1483 28.9231C28.3697 29.315 28.4379 29.8263 28.4379 30.9175V36.2527C27.2616 36.4233 25.7787 36.5425 24.6879 36.5425C22.489 36.5425 21.5002 35.7753 21.5002 34.071C21.5002 32.2297 22.8128 31.3776 26.0345 31.1047V30.525C26.0345 30.0479 25.7959 29.8776 25.1311 29.8776C24.1595 29.8776 23.0686 30.1502 22.0457 30.6787V28.6503H22.0458ZM26.1538 32.8265C24.4151 32.9972 23.8526 33.2698 23.8526 33.9515C23.8526 34.4629 24.1766 34.7016 24.8924 34.7016C25.2846 34.7016 25.6424 34.6674 26.1538 34.5824V32.8265Z" fill="white"/>
<path d="M29.7164 28.4629C31.2675 28.0536 32.5459 27.8662 33.8414 27.8662C35.1881 27.8662 36.1597 28.1728 36.7394 28.7697C37.2849 29.3319 37.4552 29.9455 37.4552 31.2584V36.4062H34.8302V31.3606C34.8302 30.3549 34.4893 29.9797 33.5519 29.9797C33.194 29.9797 32.8701 30.0139 32.3415 30.1673V36.4061H29.7165V28.4629H29.7164Z" fill="white"/>
<path d="M38.4756 37.8381C39.3963 38.3152 40.3167 38.5368 41.2882 38.5368C43.0097 38.5368 43.7427 37.8381 43.7427 36.1675C43.7427 36.1506 43.7427 36.1334 43.7427 36.1161C43.2314 36.3719 42.7199 36.4743 42.0383 36.4743C39.737 36.4743 38.2709 34.9571 38.2709 32.5538C38.2709 29.5707 40.4359 27.8833 44.271 27.8833C45.3961 27.8833 46.436 28.0025 47.6974 28.258L46.7985 30.1518C46.0996 30.0153 46.7425 30.1334 46.2144 30.0823V30.355L46.2484 31.4628L46.2653 32.8947C46.2823 33.2524 46.2823 33.6106 46.2995 33.9684C46.2995 34.2923 46.2995 34.4459 46.2995 34.6845C46.2995 36.9346 46.112 37.9915 45.5495 38.8606C44.7313 40.1392 43.3165 40.7698 41.3051 40.7698C40.2823 40.7698 39.3961 40.6163 38.4755 40.2584V37.8381H38.4756ZM43.6917 29.9969C43.6576 29.9969 43.6236 29.9969 43.6066 29.9969H43.419C42.9078 29.9799 42.3112 30.1161 41.9019 30.3718C41.2714 30.73 40.9473 31.3775 40.9473 32.2982C40.9473 33.6108 41.5952 34.3607 42.7542 34.3607C43.1122 34.3607 43.402 34.2925 43.7428 34.1902V34.0027V33.2869C43.7428 32.9801 43.7259 32.6389 43.7259 32.2811L43.709 31.0708L43.6918 30.2016V29.9969H43.6917Z" fill="white"/>
<path d="M51.7726 27.8323C54.3975 27.8323 55.9999 29.4858 55.9999 32.1617C55.9999 34.9061 54.3296 36.6277 51.6703 36.6277C49.0451 36.6277 47.4258 34.9743 47.4258 32.3153C47.4259 29.5537 49.0965 27.8323 51.7726 27.8323ZM51.7212 34.5141C52.7271 34.5141 53.3237 33.6788 53.3237 32.2298C53.3237 30.7981 52.7441 29.9457 51.7386 29.9457C50.6987 29.9457 50.1019 30.7812 50.1019 32.2298C50.102 33.6789 50.6987 34.5141 51.7212 34.5141Z" fill="white"/>
</svg>
