<svg width="107" height="25" viewBox="0 0 107 25" fill="none" xmlns="http://www.w3.org/2000/svg">
<g id="electrolux">
<path id="electrolux_2" d="M1.06543 24.7642H25.0603V0.76416H1.06543V24.7642ZM16.446 2.59685C20.6869 3.98722 23.7506 8.00795 23.7628 12.759C23.7756 17.4326 20.7721 21.4457 16.446 22.9289V2.59685ZM13.0578 2.05211C13.8259 2.05211 14.6408 2.15454 15.3213 2.28958C15.3213 7.72818 10.0626 12.2015 4.63611 12.2015H2.36813C2.74069 6.62781 7.35158 2.05468 13.0578 2.05468V2.05211ZM4.63867 13.3345C10.0651 13.3345 15.3213 17.8052 15.3213 23.2361C14.6408 23.3763 13.7856 23.4788 13.0603 23.4788C7.34902 23.4716 2.58322 18.8851 2.36557 13.3345H4.63867ZM33.0922 14.8721V13.3595H38.0858V11.4314H33.0922V8.62309H38.4033V6.70012H31.0494V14.7844C31.0494 16.8303 31.9194 18.2277 33.9627 18.5151C34.0027 18.5254 34.0427 18.5331 34.0799 18.5331H34.1178C34.3277 18.5582 34.5402 18.5725 34.7656 18.5725H38.5462V16.6495H34.7828C34.1325 16.6495 33.0923 16.3295 33.0923 14.8718L33.0922 14.8721ZM39.9986 18.5753H42.0444V6.69567H39.9986V18.5753ZM48.0458 9.71327C45.4622 9.71327 43.527 11.4941 43.527 14.2672V14.3369C43.527 17.0403 45.3924 18.7878 48.0982 18.7878C49.3983 18.7878 50.6133 18.4281 51.7265 17.2451L50.4936 16.0474C49.8433 16.6997 49.2082 17.0403 48.1654 17.0403C46.6426 17.0403 45.6324 16.1498 45.5652 14.7819H52.2738C52.3066 14.4394 52.3066 14.0617 52.3066 14.0617C52.3117 11.649 50.6134 9.71327 48.0459 9.71327H48.0458ZM45.6151 13.3441C45.7003 12.2988 46.7629 11.4589 48.0458 11.4589C49.2434 11.4589 50.2184 12.3167 50.2184 13.3441H45.6151ZM58.0524 11.5466C58.978 11.5466 59.663 11.8891 60.2429 12.4863L61.511 11.1689C60.5182 10.1089 59.3378 9.68126 58.0524 9.68126C55.4521 9.68126 53.364 11.6138 53.364 14.2493C53.364 16.8873 55.4521 18.8205 58.0524 18.8205C59.3378 18.8205 60.5182 18.3929 61.511 17.3328L60.2429 16.0148C59.663 16.6127 58.978 16.9551 58.0524 16.9551C56.5474 16.9551 55.3996 15.8074 55.3996 14.2493C55.3996 12.6918 56.5474 11.5466 58.0524 11.5466ZM64.8263 14.8772V11.8436H66.6846V9.98597H64.8263V6.69756H62.7836V14.997H62.7887C62.8463 16.9276 63.724 18.2405 65.6969 18.5177C65.7368 18.5279 65.7769 18.5356 65.814 18.5356H65.8519C66.0619 18.5607 66.2744 18.5756 66.4997 18.5756H66.7174L66.7225 16.6526H66.5176C65.8673 16.6526 64.8271 16.3325 64.8271 14.8775L64.8263 14.8772ZM70.4326 11.2637V9.98597H68.4047V18.5753H70.4326V14.0591C70.4326 12.6438 71.3352 11.7566 72.7505 11.7566C73.0732 11.7566 73.3632 11.7914 73.6032 11.8436V9.86624C73.3984 9.83602 73.1961 9.8181 72.9881 9.81605C71.7628 9.81605 70.8429 10.3781 70.4326 11.2634V11.2637ZM78.6021 9.73119C75.9941 9.73119 73.9163 11.7067 73.9163 14.2793C73.9163 16.8527 75.9941 18.8307 78.6021 18.8307C81.1927 18.8307 83.2879 16.8527 83.2879 14.2793C83.2879 11.7067 81.1927 9.73119 78.6021 9.73119ZM78.6021 16.9724C77.0868 16.9724 75.9442 15.7971 75.9442 14.2793C75.9442 12.7642 77.0868 11.5889 78.6021 11.5889C80.1025 11.5889 81.2599 12.7642 81.2599 14.2793C81.2599 15.7971 80.1025 16.9724 78.6021 16.9724ZM84.5457 18.5753H86.591V6.69567H84.5457V18.5753ZM93.9653 14.9796C93.9653 16.3425 93.1652 16.9225 92.0897 16.9225C91.0175 16.9225 90.2173 16.3425 90.2173 14.997V9.98597H88.1542V15.1672C88.1542 17.6228 89.9446 18.7981 92.075 18.7981C94.2201 18.7981 96.0259 17.6049 96.0259 15.1173V9.98597H93.9653V14.9796ZM103.763 15.8297L102.475 14.0246L104.07 11.8488L105.438 9.98597H103.205L101.347 12.5593L99.4737 9.98597H97.2588L98.5289 11.7239L100.224 14.0419L98.4463 16.5147L96.9682 18.5753H99.1664L101.347 15.5424L103.53 18.5753H105.728L103.763 15.8297Z" fill="#FFFEFA"/>
</g>
</svg>
