<svg width="64" height="64" viewBox="0 0 64 64" fill="none" xmlns="http://www.w3.org/2000/svg">
<circle cx="32" cy="32" r="32" fill="#059789"/>
<path d="M51 32.0304C50.9937 34.5279 50.496 36.9996 49.5353 39.3045C48.5746 41.6094 47.1698 43.7024 45.401 45.4638C43.6322 47.2253 41.5341 48.6209 39.2265 49.5707C36.9189 50.5206 34.447 51.0063 31.9519 50.9999C29.4568 50.9936 26.9873 50.4954 24.6846 49.5339C22.3818 48.5723 20.2908 47.1661 18.531 45.3957C16.7711 43.6253 15.3769 41.5252 14.4279 39.2155C13.4789 36.9057 12.9937 34.4315 13.0001 31.9341C13.033 21.4845 21.5906 12.9823 32.0583 13C37.0895 13.0155 41.9092 15.0277 45.4601 18.5953C49.0111 22.1628 51.0034 26.9945 51 32.0304V32.0304ZM33.9254 17.2524L33.7024 17.189C30.632 23.1834 27.5591 29.1778 24.4 35.3598H31.0754V46.6715L31.3059 46.6969C34.28 40.7557 37.239 34.807 40.2967 28.6858H33.9254V17.2524Z" fill="white"/>
</svg>
