<svg width="64" height="64" viewBox="0 0 64 64" fill="none" xmlns="http://www.w3.org/2000/svg">
<circle cx="32" cy="32" r="32" fill="#F1F3F7"/>
<path d="M24.7249 44.5093C23.3589 43.4327 21.8995 42.4015 20.897 40.9517C18.8099 38.3695 17.1832 35.447 16.0882 32.3126C15.4207 30.2862 15.1982 28.1138 14.3321 26.1687C13.4326 24.7548 14.4805 23.2069 16.0356 22.7571C16.727 22.6255 17.9495 21.9748 16.4758 22.4413C15.1623 23.3983 15.0403 21.5657 16.3825 21.4508C17.2988 21.3288 17.6385 20.5752 17.3227 19.8981C16.337 19.257 19.7152 18.5488 18.0165 17.5894C16.2461 15.6755 20.4903 15.3142 19.452 17.4818C19.1936 19.1493 22.4091 17.1755 21.6578 19.1015C22.4186 20.0273 24.5001 19.312 24.4474 20.6087C25.5527 20.6853 25.9331 21.6159 26.9691 21.6877C28.0457 22.1662 29.9955 22.5562 30.3616 23.7667C29.2993 24.6113 26.8279 22.0226 26.7107 24.3529C27.0313 27.8076 26.9499 31.3651 28.2131 34.6524C28.8112 36.6453 30.2611 38.2123 31.5626 39.7626C32.821 41.289 34.5172 42.3584 36.2518 43.2532C37.7815 43.9563 39.3965 44.4566 41.0558 44.7413C41.7257 44.2293 42.9076 42.3226 43.9531 43.1264C44.0033 44.0284 41.8788 45.0141 43.855 44.9136C45.0129 44.5643 45.8192 45.8108 46.7737 44.6743C47.6542 45.7174 50.4318 44.0092 49.805 46.1385C48.9581 46.684 47.7236 46.3538 46.8766 47.1075C45.477 46.4089 44.3646 47.7319 42.8095 47.5644C41.0884 47.8599 39.3449 48.0055 37.5987 47.9998C34.7397 47.7726 31.8209 47.6769 29.1007 46.6816C27.5672 46.2366 26.0719 45.3658 24.7249 44.4925V44.5093ZM27.1413 45.5548C28.6366 46.2007 30.1008 46.8826 31.7396 47.0883C34.3402 47.452 37.0269 48.007 39.6347 47.4998C38.4528 46.9663 37.2422 47.708 36.046 47.1194C34.6345 47.4233 33.12 47.0405 31.6846 46.8539C30.0505 46.1361 28.2897 45.6265 26.7609 44.6839C24.847 43.9853 27.749 45.5763 28.2658 45.7055C29.462 46.3849 26.9523 45.3586 26.5911 45.0763C25.591 44.5164 25.4642 44.6337 26.493 45.2031C26.6987 45.3251 26.9045 45.4423 27.1222 45.5548H27.1413ZM24.2895 43.5427C25.7393 44.0786 24.2895 42.5235 23.6172 42.6144C23.323 42.1025 22.4928 41.7795 23.0789 41.5067C22.0263 41.8728 21.976 40.1143 21.4808 40.3655C20.3659 40.0138 21.0477 38.7674 19.7199 38.0018C19.5979 37.1955 18.3993 36.4969 18.0189 35.2792C17.849 34.6572 16.6648 32.8676 17.3921 34.5327C18.0117 36.1357 19.1027 37.5066 20.0094 38.8774C20.7128 40.1837 21.5454 41.5474 22.8277 42.3632C23.2608 42.7771 23.6794 43.4135 24.2895 43.5427V43.5427ZM20.1171 38.9468C20.1673 38.7387 20.3826 39.4253 20.1171 38.9468V38.9468ZM26.0312 44.1863C26.3518 44.0427 25.5695 44.0045 26.0312 44.1863V44.1863ZM26.8159 44.4734C26.7346 44.0762 26.4571 44.6887 26.8159 44.4734V44.4734ZM27.8016 44.8849C28.2706 44.4494 27.0791 44.6026 27.8016 44.8849V44.8849ZM29.4907 45.8251C29.7754 45.4064 28.5792 45.6672 29.4907 45.8251V45.8251ZM26.2489 43.5642C26.9762 43.0953 25.3063 43.5595 26.2489 43.5642V43.5642ZM26.9882 43.9351C26.9667 43.6839 26.725 44.0451 26.9882 43.9351V43.9351ZM30.6821 46.239C31.2755 46.6146 34.1488 47.0596 32.3569 46.3921C32.0482 46.4567 29.0122 45.5332 30.6821 46.239ZM24.8182 41.6718C24.768 41.423 23.8948 41.3967 24.8182 41.6718V41.6718ZM26.536 42.6743C26.9834 42.3632 25.6078 42.435 26.536 42.6743V42.6743ZM27.9715 43.5618C28.6246 43.3202 26.9403 43.3178 27.9835 43.5618H27.9715ZM24.1173 40.911C24.8135 41.4445 26.9284 40.978 25.1843 40.5904C24.3924 40.1694 22.6028 39.8727 23.823 40.8464L24.1173 40.911V40.911ZM28.962 43.8681C29.2538 43.3728 27.7466 43.5858 28.962 43.8681V43.8681ZM27.4906 42.6982C29.194 43.1767 26.0551 41.6192 27.0695 42.5211L27.2944 42.6216L27.4906 42.6982ZM30.4429 44.404C32.0554 44.4183 28.9859 44.1815 30.4429 44.404V44.404ZM23.5048 39.978C23.433 39.6765 23.0933 40.0019 23.4976 39.978H23.5048ZM33.1799 45.9352C33.2157 45.3921 32.6439 46.3395 33.1727 45.9352H33.1799ZM26.2513 41.6622C26.1532 41.3775 25.7465 41.6503 26.2513 41.6622V41.6622ZM23.6507 39.789C24.5766 39.7315 22.3756 39.3798 23.6507 39.789V39.789ZM20.5693 37.796C20.4616 37.3534 19.562 36.9994 20.5693 37.796V37.796ZM28.6557 42.9302C28.4859 42.7365 28.5768 42.9709 28.6557 42.9302V42.9302ZM33.6799 46.0189C33.6751 45.7222 33.4167 46.1242 33.6894 46.0189H33.6799ZM28.2012 42.4685C28.3017 42.0881 27.4212 42.3537 28.2107 42.4685H28.2012ZM24.4522 40.0928C25.1508 40.0186 23.3565 39.6263 24.4618 40.0928H24.4522ZM30.7946 44.0356C31.8784 43.6097 29.7587 43.8274 30.8042 44.0356H30.7946ZM27.505 41.7938C28.7419 41.9541 26.0312 40.9541 27.2322 41.7053L27.505 41.7938ZM31.8114 44.4399C32.9669 43.7485 32.5865 46.0572 33.7708 44.6337C34.9407 43.7796 32.7612 45.6911 34.2038 44.7868C35.2445 44.0906 36.7853 45.1169 37.759 45.4519C38.4576 45.4184 39.1371 46.0572 39.8548 45.6696C41.2352 45.2964 37.1561 45.1169 38.2255 44.4566C36.9623 44.8251 36.0293 44.0188 35.4072 43.2102C33.9909 42.8824 32.3521 42.1575 31.6439 40.9038C31.3568 40.4253 32.0602 40.9708 31.4047 40.2005C30.5506 39.4421 30.1247 38.5784 29.5505 37.6573C28.8663 37.2912 28.7873 36.2218 28.7179 37.6214C28.7179 36.7338 27.8902 36.1381 27.6868 36.3845C27.6868 35.5304 28.5792 35.9586 27.9524 35.327C27.8184 34.4442 27.3734 33.5207 27.2346 32.5231C27.0265 32.0446 27.2035 31.0087 26.5169 32.0996C26.2776 33.2504 26.4355 30.6833 26.8183 31.5302C27.3231 30.6666 26.6389 30.767 26.6102 30.889C26.938 30.1713 26.8183 29.1258 26.5241 29.5182C26.6987 28.7478 26.8016 26.6759 26.2633 27.042C26.5887 26.2357 26.8805 23.3457 25.4642 24.4462C24.7642 24.4745 24.0745 24.6243 23.4258 24.8888C24.8996 25.7022 23.2775 25.1831 22.677 25.0539C22.6004 25.8051 22.0047 25.4797 21.2631 25.4869C22.4593 25.6328 20.6865 26.6999 20.007 26.286C19.1218 26.707 20.7678 27.7621 20.0238 28.0875C20.1147 28.566 18.6697 27.9105 18.7845 29.0445C17.9256 28.6832 18.6649 30.3914 19.0955 29.8124C20.5525 30.2072 20.1219 31.1068 20.1578 31.9657C19.9185 32.4633 18.9855 30.7934 19.9496 30.8723C19.1888 29.6354 19.1075 30.4249 18.4759 30.9991C18.3275 31.0398 20.0884 31.8173 18.9855 32.1953C19.9568 32.346 19.9831 33.1954 20.1817 33.7337C20.7654 34.3414 20.6458 33.0614 21.3468 33.7935C20.9042 33.1427 19.0022 31.9585 20.5334 32.3365C20.5334 31.6809 20.2558 31.1522 20.7248 31.1666C21.1889 30.3244 20.2463 33.2384 21.2846 32.1714C21.5741 32.0446 21.6459 31.3293 22.1674 32.2384C22.9234 32.9824 22.4402 33.5207 21.3731 32.8389C21.5645 33.4872 22.8086 33.7193 22.5693 34.7313C22.8086 35.6213 23.1603 35.2935 23.4593 35.2433C23.6986 36.107 23.8302 35.4825 23.8397 35.0591C24.9187 35.2983 24.6675 35.9275 25.0049 36.3749C25.7489 36.7099 23.9402 34.0997 25.2178 35.5902C26.5623 36.7936 25.725 37.3104 24.5288 37.1166C25.292 37.0544 25.5384 38.1477 26.493 38.1095C27.3638 38.5234 27.9524 40.1119 26.4523 39.4516C25.9331 38.9731 24.0909 38.4037 25.5958 39.2961C26.9834 39.9373 28.0863 40.3225 29.4237 41.1311C30.3807 41.8154 30.7946 42.5977 31.1582 42.7532C30.3544 43.1384 28.7323 42.447 29.9357 42.234C29.1845 42.0977 28.3399 41.7173 29.0601 42.6527C29.6701 43.1647 31.2276 43.1097 31.5051 43.1671C31.2659 43.6886 30.864 43.7293 31.5051 43.77C30.7874 44.1576 31.7444 44.2174 31.8066 44.4399H31.8114ZM30.3185 40.2411C29.8759 39.777 29.7634 38.9109 30.2395 39.6645C30.4788 39.7626 31.0267 41.0809 30.3185 40.2411ZM35.1632 43.3154C35.4383 43.2987 35.1704 43.526 35.1632 43.3154V43.3154ZM29.6199 39.1047C29.6031 38.4061 29.7921 39.6454 29.6199 39.1047V39.1047ZM29.1414 38.4588C28.5959 37.3822 29.84 38.7626 29.139 38.4683L29.1414 38.4588ZM23.3062 34.4323C23.634 34.3437 23.4665 34.9921 23.3062 34.4323V34.4323ZM27.9476 36.9491C28.1485 36.1931 28.1844 37.5807 27.9476 36.9491V36.9491ZM24.6699 34.6667C24.4378 34.2528 25.1532 35.0591 24.6699 34.6667V34.6667ZM27.4834 35.5711C26.9571 34.3892 27.8567 34.9251 27.6007 35.7649L27.4834 35.5711ZM22.6292 32.3341C22.3899 31.9465 22.0047 30.8077 22.1291 30.4608C22.244 31.0278 23.3254 32.8939 22.6627 31.236C21.9258 29.8435 23.5455 31.6857 23.7129 32.0326C23.7919 32.3795 23.2584 31.9393 23.6196 32.7504C22.9593 31.8269 23.2297 33.2576 22.6292 32.3341V32.3341ZM21.1291 31.291C21.1913 30.3986 21.4736 31.9178 21.1291 31.291V31.291ZM21.8038 31.5302C22.1363 30.8508 22.3492 32.4872 21.8038 31.5302V31.5302ZM20.1817 30.2742C19.6219 29.7191 19.2247 29.2072 20.208 29.9297C20.5884 29.944 19.3611 28.7669 20.2989 29.5541C21.2846 29.7383 20.787 31.1761 20.1817 30.2766V30.2742ZM21.0334 30.2503C21.3588 29.9321 21.2057 30.5732 21.0334 30.2527V30.2503ZM21.5573 30.4201C21.0669 29.5014 22.1555 30.8125 21.5573 30.4225V30.4201ZM20.5166 29.4249C18.8922 27.9894 22.555 30.1809 20.7798 29.6928L20.5166 29.4249ZM25.1675 32.1283C24.4642 31.7073 24.9809 29.1617 25.2202 30.9034C25.9044 30.6809 25.1843 31.8006 25.6987 31.791C25.6125 32.4872 25.3853 32.7504 25.1675 32.1283V32.1283ZM26.8877 33.1451C26.9571 32.3772 27.0337 33.6691 26.8877 33.1451V33.1451ZM26.5887 32.8509C26.6676 32.5231 26.5982 33.236 26.5887 32.8509V32.8509ZM20.8468 28.9512C19.8037 27.5157 23.878 30.4058 21.5143 29.3148C21.2559 29.2502 20.9592 29.2287 20.8348 28.9512H20.8468ZM24.1603 30.7072C24.0598 29.4943 24.3804 30.9082 24.1603 30.7072V30.7072ZM26.6628 32.3197C26.8566 31.6307 26.682 32.7767 26.6628 32.3197V32.3197ZM20.9927 28.4009C21.6148 28.2693 23.5622 29.4895 21.7727 28.7502C21.5741 28.5301 21.1506 28.6306 20.9927 28.4009V28.4009ZM26.3183 31.0517C26.3829 29.8124 26.6868 30.3125 26.3183 31.2288V31.0517ZM21.4545 27.9703C21.7081 27.5994 20.7846 26.2955 21.5884 27.4918C21.9353 27.7693 22.5933 27.9535 22.0119 28.0707C22.9258 28.8985 21.7894 28.298 21.4545 27.9703ZM26.0551 30.6666C26.2274 29.255 26.2035 31.4943 26.0551 30.6666V30.6666ZM20.9401 26.6664C21.1219 26.585 21.0286 26.9224 20.9401 26.6664V26.6664ZM22.1363 27.3841C22.4354 26.7453 22.6961 28.1018 22.1363 27.3793V27.3841ZM25.5216 29.267C25.5073 29.0134 25.5743 29.6163 25.5121 29.2622L25.5216 29.267ZM25.3254 28.8339C24.8446 27.6712 25.7513 29.4416 25.3159 28.8292L25.3254 28.8339ZM25.036 28.0731C24.957 27.5946 25.3039 28.676 25.036 28.0731V28.0731ZM25.5145 27.3099C25.1939 26.7429 25.9212 24.8074 25.9929 26.0085C25.6532 26.9439 25.8948 27.4655 26.1341 26.2118C26.5719 25.2261 26.0384 28.1593 25.5049 27.3099H25.5145ZM25.9929 24.439C26.1197 24.2572 26.0097 24.6376 25.9786 24.4294L25.9929 24.439ZM25.1867 40.3081C24.9809 40.143 25.1963 40.4038 25.1723 40.2985L25.1867 40.3081ZM26.847 41.1479C27.7681 41.3871 27.7634 41.0043 26.9308 40.8919C26.481 40.4732 25.0671 40.0306 26.3327 40.8392C26.4164 41.0522 26.682 41.0474 26.847 41.1479V41.1479ZM23.5694 38.9707C24.079 39.3511 25.4833 40.0449 24.2871 39.1167C24.6891 38.6382 23.5191 38.3989 23.9067 38.0879C22.9186 37.485 23.1268 37.5377 23.8182 37.5568C22.622 37.0281 23.9905 37.0664 23.9259 36.796C23.4689 36.7051 21.6554 35.9874 22.7296 36.8534C21.6435 36.3008 22.4713 37.0592 22.1435 36.9802C21.0334 36.6764 23.1316 37.8248 21.9664 37.5401C22.6028 38.0449 23.6794 38.832 22.2344 38.0736C22.0454 38.3487 23.2679 38.7626 23.5694 38.9707V38.9707ZM25.3039 39.9684C27.3997 40.6383 24.256 39.1286 25.2896 39.9588L25.3039 39.9684ZM34.1871 45.349C34.2014 44.9279 33.8856 45.6959 34.1727 45.3394L34.1871 45.349ZM35.101 45.7342C35.5795 45.2557 35.1201 46.4854 35.9072 45.617C35.9072 44.9973 35.8833 44.6313 35.0029 45.3777C34.7637 45.5117 34.6512 46.0835 35.101 45.727V45.7342ZM20.5932 36.6214C20.4449 36.0352 19.5453 36.0376 20.5932 36.6214V36.6214ZM21.5693 37.2721C21.2057 36.662 20.2774 36.7171 21.5693 37.2721V37.2721ZM27.115 40.6215C27.6557 41.1 29.6008 40.9732 27.7729 40.6789C27.5026 40.2651 26.0528 40.3608 27.115 40.6072V40.6215ZM34.7397 45.3299C35.5723 44.6145 33.9311 45.6265 34.7397 45.3155V45.3299ZM36.4719 46.5261C36.4766 46.2821 36.113 46.6027 36.4719 46.5046V46.5261ZM36.4719 46.2127C37.3954 45.2342 35.5771 46.2701 36.4719 46.2127V46.2127ZM18.196 34.6141C17.4088 33.492 17.7175 32.9872 16.9471 32.0709C16.8035 31.3699 15.648 29.7813 16.349 31.4656C16.9925 32.4513 17.1839 33.9753 18.196 34.6141ZM36.1848 45.8849C37.8834 44.7844 35.4886 45.4064 36.1848 45.8849V45.8849ZM37.4815 46.3921C38.3308 45.6576 36.9432 46.2366 37.4815 46.3873V46.3921ZM20.3037 35.3869C20.5477 35.0208 19.6769 35.3366 20.3037 35.3821V35.3869ZM37.2087 46.0428C38.0317 45.5117 37.0197 45.593 37.0604 46.0907L37.2087 46.0428ZM26.036 38.9994C26.0097 38.6406 25.603 39.0306 26.0384 38.9994H26.036ZM26.7274 39.3966C26.5097 38.9468 26.3925 39.466 26.7298 39.3966H26.7274ZM38.5294 46.3993C39.5844 45.6385 37.8906 46.2557 38.3093 46.5452L38.5294 46.3993ZM38.125 46.2055C38.9863 45.4854 37.2207 46.5237 38.1274 46.2055H38.125ZM40.1897 47.5788C40.7687 47.1936 39.4911 47.4544 40.1921 47.5788H40.1897ZM20.8348 35.1189C21.6076 35.2912 23.9235 37.0329 22.5574 35.2385C21.8564 35.0304 22.2775 33.3246 21.5621 33.6236C22.0406 34.4227 21.9569 34.7648 20.9497 34.26C19.6864 33.6428 20.2319 34.5662 20.4879 34.8198C20.1506 34.8988 20.9401 35.1189 20.8348 35.1189ZM17.3107 32.3389C17.4495 31.7695 16.0356 29.188 16.6337 31.0517C16.8729 31.4369 16.8394 32.1738 17.3107 32.3389ZM23.7775 36.3151C23.378 35.9921 23.7584 36.2768 23.7775 36.3151V36.3151ZM24.768 36.5544C24.768 35.9467 23.6747 36.3151 24.768 36.5544V36.5544ZM33.2636 41.9087C33.1009 41.4948 32.6224 41.9087 33.2636 41.9087V41.9087ZM33.6727 42.2077C33.6033 41.9757 33.4263 42.2532 33.6631 42.2077H33.6727ZM37.0389 44.3298C37.3547 44.0906 36.625 44.2987 37.0293 44.3298H37.0389ZM19.0716 32.7887C19.9975 32.4298 18.0692 32.5327 19.0716 32.7887V32.7887ZM32.5076 41.2531C32.4956 40.6526 31.9166 41.4015 32.5076 41.2531V41.2531ZM18.7055 31.9345C19.2989 31.7336 18.1529 31.803 18.7055 31.9345V31.9345ZM20.4329 32.7719C20.4209 32.5733 20.2487 32.8461 20.4329 32.7719V32.7719ZM41.5008 45.6911C42.2664 45.5356 44.0105 46.0811 44.2928 45.4878C43.3621 45.4662 41.0773 44.8322 40.9697 45.6409L41.173 45.672L41.5008 45.6911ZM20.9808 32.9107C20.9951 32.303 20.5071 32.8867 20.9808 32.9107V32.9107ZM16.4351 29.7598C16.2318 28.6019 15.6552 29.5852 16.4399 29.7598H16.4351ZM17.5165 30.0326C17.5356 29.6593 16.5308 29.6976 17.5213 30.0326H17.5165ZM18.1409 30.334C17.9615 30.1905 17.9998 30.5182 18.1409 30.334V30.334ZM22.0358 32.8341C22.2177 32.6642 21.6004 32.7097 22.0358 32.8341V32.8341ZM17.7294 29.6498C17.6242 28.7741 16.4734 29.5182 17.7294 29.6498V29.6498ZM15.5092 28.2143C15.4757 27.8052 15.2915 28.3602 15.5092 28.2095V28.2143ZM15.8394 27.975C15.7844 27.4822 15.5547 28.0205 15.8394 27.9607V27.975ZM17.6624 29.0636C18.4352 28.7598 16.2581 28.4368 17.5069 29.0062L17.6624 29.0636ZM42.0869 44.1504C42.5798 43.6815 41.4601 43.9949 42.0869 44.136V44.1504ZM45.0368 45.6792C45.2354 45.0787 44.5392 45.7414 45.0368 45.6648V45.6792ZM17.849 28.0923C17.9304 27.5253 17.239 28.2047 17.849 28.0923V28.0923ZM15.2532 26.353C15.1145 25.5539 15.1336 24.1495 16.4662 24.6232C14.6862 24.9773 17.7007 26.8386 17.3203 25.3697C18.0692 25.4056 18.7869 24.9271 18.3921 25.6544C19.8659 25.4917 20.8898 24.2189 22.3134 24.3912C23.4235 24.2428 24.6388 24.1328 25.835 23.6854C26.8183 23.616 27.7657 22.5561 27.2251 21.9293C25.8066 21.8469 24.3836 21.9636 22.9976 22.2762C21.354 22.6184 19.8635 23.2667 18.2127 23.5466C16.5978 23.7643 18.5381 24.1447 18.0739 24.2285C17.2318 24.5204 19.0812 24.7189 17.9663 25.0276C17.2773 24.896 16.5595 24.6591 16.8538 23.9342C15.3059 24.1352 13.947 24.7763 15.1791 26.353H15.2532ZM18.9831 24.4534C19.3467 23.116 20.9257 25.5539 19.5764 24.6304C19.4079 24.4988 19.1961 24.4356 18.9831 24.4534V24.4534ZM19.0524 23.805C19.5764 23.415 19.3324 24.0251 19.0524 23.805V23.805ZM19.7175 23.805C19.7654 23.1901 21.2415 24.1304 19.9568 24.0251L19.7175 23.805ZM20.6291 23.439C20.9592 23.0633 20.7224 23.7954 20.6291 23.4509V23.439ZM20.8683 23.2835C21.421 22.6184 24 22.8576 22.1124 23.2189C21.598 22.848 21.2104 23.4533 20.8611 23.2954L20.8683 23.2835ZM24.2345 22.7643C24.1436 20.9604 25.8996 23.4198 24.2273 22.7763L24.2345 22.7643ZM25.1915 22.7643C25.5408 21.848 26.5456 22.3959 25.3542 22.5801C25.3685 22.6782 25.3087 23.0586 25.1819 22.7715L25.1915 22.7643ZM17.4734 27.6234C18.5165 26.9846 16.3657 27.0683 17.4734 27.6234V27.6234ZM18.2438 27.8363C18.6098 27.4487 17.4495 27.6784 18.2438 27.8363V27.8363ZM15.971 26.2238C16.5691 25.7668 15.2652 26.0491 15.971 26.2238V26.2238ZM46.7785 45.4973C46.7953 44.9662 46.324 45.7366 46.7785 45.4973V45.4973ZM43.6492 43.3609C43.7377 42.7484 43.2473 43.4135 43.6492 43.3609V43.3609ZM47.6398 45.7031C48.4724 45.7031 50.1662 45.4447 48.3576 45.4447C48.0729 45.4902 46.6972 45.4806 47.6398 45.7031ZM18.9233 27.4631C19.5979 27.4152 19.9783 26.719 18.7941 26.7453C16.9543 26.5563 20.4138 27.3745 18.5548 27.1425C18.3084 27.3195 18.9089 27.5085 18.9233 27.4631ZM19.5166 27.7621C19.4472 27.3291 19.3084 27.9942 19.5166 27.7621V27.7621ZM20.2224 25.884C20.5142 25.5204 19.818 25.7883 20.2224 25.884V25.884ZM17.9782 22.1327C19.1745 21.7236 20.83 21.2642 21.397 22.336C20.8181 21.6398 21.1578 20.9532 21.7105 21.9724C22.4832 23.0011 22.8708 21.4939 22.3684 21.159C22.9402 21.8767 23.5909 22.2045 22.7512 21.202C23.6651 20.1039 20.9209 21.3456 20.2989 21.3336C19.9975 21.4676 17.2031 22.0466 17.9782 22.1327V22.1327ZM18.684 20.7833C19.3706 20.2642 21.0597 21.092 19.9759 20.2666C19.8707 20.1733 17.6026 20.891 18.684 20.7833V20.7833ZM21.1793 20.8862C21.9832 20.9054 20.8348 19.8072 21.7918 20.3049C21.6339 19.7905 20.6769 19.6948 20.208 19.489C19.9496 19.9603 20.7535 20.8934 21.1793 20.8862V20.8862ZM19.1242 18.611C19.4017 18.2378 18.6362 18.8048 19.1242 18.611V18.611ZM20.1458 18.8502C21.4401 18.6804 19.8156 18.2928 19.885 18.8383L20.1458 18.8502ZM18.2318 17.3574C17.3203 16.1611 19.9448 17.5559 19.019 16.3095C18.2438 15.697 17.495 17.0152 18.2366 17.3645L18.2318 17.3574ZM29.9381 23.6662C30.3568 22.9174 28.2107 22.6782 29.6558 23.3959C29.7921 23.4485 29.7587 23.7189 29.9381 23.6662V23.6662Z" fill="#010101"/>
</svg>
