<svg width="55" height="44" viewBox="0 0 55 44" fill="none" xmlns="http://www.w3.org/2000/svg">
<g id="generali">
<g id="Group">
<path id="Vector" d="M10.5558 38.8483V35.1462C12.8676 35.1462 13.7193 35.0248 14.1452 37.8772H14.3885V34.7214H8.00071V35.1462H9.09577V43.3393H7.87904V43.7641H14.4494V40.4262H14.1452C13.841 42.9752 13.1718 43.3393 11.3467 43.3393H10.495V39.3945H10.9817C11.7726 39.3945 12.2593 39.88 12.4418 41.2758H12.7459V37.149H12.4418C12.4418 37.149 12.3809 38.909 10.9817 38.909H10.5558V38.8483ZM7.93988 38.9696H4.35054V39.3945H5.56726V42.3076C5.38475 43.0358 4.22886 43.3393 3.92468 43.3393C1.6129 43.3393 1.79541 40.0014 1.79541 39.091C1.79541 38.3021 1.73458 34.8427 3.92468 34.8427C5.50642 34.8427 6.2973 36.36 6.60148 37.7558H6.84482V34.4786C6.84482 34.4786 5.74977 35.2676 5.74977 35.2069C5.74977 35.2069 5.26308 34.4786 3.86385 34.4786C1.18705 34.4786 0.152832 37.1489 0.152832 39.0303C0.152832 40.7296 0.943703 43.7034 3.86385 43.7034C4.77639 43.7034 5.38475 43.2179 5.74977 42.7324L6.90566 43.6427V39.3338H7.87904V38.9696H7.93988ZM49.8561 40.3655C49.5519 42.9145 48.8827 43.2786 47.0576 43.2786H46.9359V35.1462H48.0918V34.7214H44.32V35.1462H45.4759V43.3393H44.5633L41.2173 34.4786H40.7306C40.7306 34.4786 37.9322 42.4896 37.9322 42.5503C37.9322 42.5503 37.7497 43.2179 37.263 43.3393C36.8371 43.3393 36.8979 43.1572 36.8979 43.0358V41.4579C36.8979 41.0331 36.8371 40.1227 36.4721 39.6979C35.9854 39.2124 35.1945 39.2124 35.1945 39.1517C35.1945 39.1517 37.263 38.7269 37.263 36.7848C37.263 35.389 36.2896 34.7214 34.7078 34.6607H30.206V35.0855H31.3618V43.2786H30.206V43.7034H33.917V43.2786H32.7611V39.3338H34.282C36.9588 39.5765 33.7953 43.7034 37.3238 43.7034H39.5139V43.2786C39.3922 43.2786 38.6014 43.2786 38.5405 42.7324C38.4797 42.3076 39.0881 40.851 39.0881 40.851H42.1299C42.1299 40.851 43.0424 43.2786 43.1032 43.2786H42.069V43.7034H50.2819V40.3655H49.8561ZM34.2211 38.909H32.7611V35.1462H34.647C35.7421 35.3283 35.8029 36.6027 35.8029 36.9669C35.8029 37.9379 35.377 38.909 34.2211 38.909ZM39.3314 40.4869L40.6698 36.6027L42.069 40.4869H39.3314ZM25.7041 35.0855C28.0158 35.0855 28.9284 34.9641 29.2934 37.8165H29.5368V34.6607H20.2896V35.0855H20.533C20.8372 35.0855 21.628 35.0855 21.6889 35.8138V41.0331L17.3695 34.6607H14.9969V35.0855H15.3619C15.8486 35.0855 16.457 35.0855 16.5178 35.8138V42.4896C16.5178 43.1572 15.5444 43.4 15.1186 43.4V43.7034H18.3429V43.4C17.917 43.4 16.9436 43.1572 16.9436 42.4896V36.6027C18.6471 39.0303 21.8714 43.7034 21.9322 43.7034H22.1147V35.8138C22.1756 35.1462 22.9056 35.0855 23.2706 35.0855H24.3048V43.2786H23.0881V43.7034H29.6584V40.3655H29.3542C29.0501 42.9145 28.3809 43.2786 26.5558 43.2786H25.7041V39.3338H26.1908C26.9816 39.3338 27.4683 39.8193 27.6508 41.2152H27.955V37.0883H27.6508C27.6508 37.0883 27.59 38.8483 26.1908 38.8483H25.7649V35.0855H25.7041ZM50.6469 34.6607V35.1462H51.8028V43.2786H50.6469V43.7034H54.358V43.2786H53.1412V35.1462H54.358V34.6607H50.6469ZM44.5633 29.0772L45.7192 28.6524C47.3618 27.9848 47.6051 27.56 47.4835 26.4676V22.0979C48.7002 25.2538 49.9169 27.4386 52.2895 27.4386C52.5937 27.4386 52.9587 27.3779 53.3237 27.3172L54.2363 27.1352L53.5671 26.4069C53.1412 25.9821 52.9587 25.6179 52.7154 25.1931C52.5937 25.011 52.5329 24.829 52.4112 24.6469C51.8637 23.7366 50.5253 23.4331 49.4302 23.9186C48.9435 22.9476 48.4568 21.6731 47.8485 20.0952L47.7268 19.7917C47.6051 19.549 47.5443 19.3062 47.4226 19.0635V19.0028C47.0576 18.1531 46.6317 17.3641 46.2059 16.5752C45.78 15.8469 45.3542 15.24 44.8675 14.6938C43.5899 13.2373 41.9474 12.3269 39.9398 11.9628C38.5405 11.72 37.5671 11.6593 36.2896 11.5986C36.0462 11.5986 35.7421 11.5986 35.4987 11.5379C34.9512 11.4773 33.7953 11.4166 32.6394 11.2952C31.8485 11.2345 31.1185 11.1738 30.5101 11.1131C30.571 10.931 30.571 10.749 30.571 10.5669C30.571 10.3242 30.571 10.0814 30.5101 9.89932H38.5405C40.609 9.89932 42.1299 8.98898 42.9816 7.16829C45.05 7.16829 46.5101 6.19726 47.4226 4.43726H47.7268C49.8561 4.43726 51.377 3.46623 52.2895 1.52416L52.5937 0.977954H25.4607C23.6965 0.977954 22.1756 2.13106 21.5672 3.95174V4.01243C21.0805 2.73795 20.2896 1.64554 19.1946 0.977954C17.6737 0.0676098 15.9703 -0.235838 14.6319 0.188989C14.206 0.310368 13.7193 0.492437 13.3543 0.735195C13.0501 0.977954 12.5634 1.2814 12.2593 1.70623C11.8942 2.13106 11.5901 2.67726 11.3467 3.16278C11.1642 3.28416 11.0425 3.40554 10.9817 3.52692L10.6775 4.13381V4.1945C10.3125 5.04416 9.8258 5.65105 9.46078 6.13657C9.09577 6.5614 9.09577 6.98622 9.09577 7.22898C9.1566 7.53243 9.27827 7.77519 9.46078 7.95726C9.33911 8.13933 9.27827 8.38208 9.27827 8.56415C9.27827 9.29243 9.88664 9.83863 10.6775 9.83863C11.225 9.83863 11.7117 9.59588 12.1984 9.23174C12.3809 9.11036 12.9285 8.74622 13.111 8.74622C13.3543 8.74622 13.5368 8.92829 13.5368 9.17105C13.5368 9.77794 12.8068 10.0814 12.2593 10.0814L11.1642 10.2028C10.3733 10.2635 10.0083 10.6883 10.0083 11.0524C10.0083 11.4166 10.1908 11.6593 10.3125 11.7807L10.3733 11.8414L10.6775 12.0841L9.39995 14.0262C8.54824 13.2373 7.57486 12.8124 6.72315 12.7517C6.17562 12.7517 5.68893 12.8731 5.32392 13.2373C5.20224 13.3586 5.14141 13.4193 5.08057 13.5407C4.16803 13.5407 3.43799 14.0262 3.07297 14.5724C2.64712 15.1793 2.82963 16.211 3.31632 17L0.274505 17.8497V31.9296H54.4188V29.1379H44.5633V29.0772ZM51.5595 25.2538C51.6812 25.4359 51.742 25.6179 51.8637 25.7393C51.9853 25.9214 52.107 26.1034 52.2287 26.3462C51.377 26.2855 50.7078 25.8 50.1603 24.9503C50.6469 24.7076 51.3161 24.8897 51.5595 25.2538ZM39.8181 13.2373C41.5823 13.5407 42.9816 14.3297 44.0766 15.5435C44.32 15.7862 44.5025 16.0897 44.7458 16.3931C41.8257 16.029 40.7915 15.6041 39.1489 13.1159C39.3922 13.1159 39.5747 13.1766 39.8181 13.2373ZM38.5405 8.98898H33.0044C33.4911 8.56415 33.8561 8.01795 34.1603 7.41105H41.6432C41.0348 8.50346 40.0006 8.98898 38.5405 8.98898ZM42.9207 6.31864H37.3846C37.8713 5.89381 38.2972 5.3476 38.6014 4.68002H46.0842C45.4759 5.77243 44.4416 6.31864 42.9207 6.31864ZM43.3466 2.13106H50.7686C50.0386 3.10209 49.0652 3.58761 47.666 3.58761H42.1299C42.6166 3.16278 43.0424 2.67726 43.3466 2.13106ZM13.1718 2.37381C13.3543 2.13106 13.6585 1.8883 13.9627 1.64554C14.206 1.46347 14.571 1.2814 14.936 1.22071C15.4836 1.09933 16.0919 1.09933 16.7003 1.22071L14.6927 2.4345C14.4494 2.4345 14.206 2.37381 13.9627 2.37381C13.5977 2.37381 13.2935 2.37381 13.0501 2.4345C13.111 2.4345 13.111 2.4345 13.1718 2.37381ZM10.86 11.1131C10.86 11.0524 10.9209 10.9917 10.9817 10.9917L11.9551 11.0524C13.111 10.9917 14.3277 10.5062 14.4494 9.29243C14.4494 8.44277 13.841 7.65381 13.0501 7.65381C12.6243 7.65381 12.0767 7.95726 11.5292 8.32139C11.1642 8.56415 10.86 8.74622 10.6775 8.74622C10.5558 8.74622 10.4342 8.62484 10.4342 8.56415V8.50346L11.0425 7.65381L10.495 7.28967C10.3733 7.22898 10.1908 7.04691 10.1908 6.98622C10.1908 6.92553 10.2517 6.86484 10.2517 6.80415C10.495 6.5614 10.7383 6.25795 10.9817 5.83312C11.1642 5.59036 11.225 5.46898 11.4684 5.46898C11.7117 5.46898 11.9551 5.65105 11.9551 5.9545C11.9551 6.13657 12.1376 6.25795 12.3809 6.25795C12.6243 6.25795 12.7459 6.07588 12.8676 5.9545C12.8676 5.9545 13.4151 5.46898 13.111 5.22622C12.8068 4.98347 11.4684 5.52967 11.8334 4.31588L11.9551 4.13381C12.0767 3.95174 12.7459 3.46623 14.0235 3.46623C14.2668 3.46623 14.5102 3.46623 14.8144 3.52692H14.9969L17.7954 1.82761C17.7954 1.8883 17.8562 1.94899 17.8562 1.94899C17.9779 2.79864 17.4912 3.76968 16.6395 4.25519L16.2744 4.43726L16.5178 5.71174C15.7878 5.9545 15.3011 6.50071 15.3011 7.16829C15.3011 7.41105 15.3619 7.7145 15.4227 8.01795C15.4836 8.44277 15.6052 8.8676 15.6052 9.29243C15.6052 10.6276 13.7802 11.4773 12.2593 11.4166H12.1984C12.1376 11.4166 11.1642 11.3559 10.9209 11.1738C10.86 11.2345 10.86 11.1738 10.86 11.1131ZM3.92468 15.24C4.16803 14.8759 4.65472 14.6331 5.26308 14.6938L5.74977 14.7545L5.93228 14.3297C5.99311 14.2083 6.05395 14.0869 6.11479 14.0262C6.23646 13.9048 6.4798 13.8441 6.72315 13.8441C7.39235 13.8441 8.24406 14.3297 8.91326 15.0579C9.1566 15.3007 9.39995 15.6648 9.58246 15.9683C9.64329 16.029 9.64329 16.0897 9.70413 16.1504C9.76496 16.211 9.8258 16.3324 9.8258 16.3324C9.8258 16.3931 10.1908 16.8786 10.1908 16.9393C10.4342 16.6359 10.6775 16.2717 10.86 15.9683V15.9076C10.7992 15.7862 10.6775 15.6041 10.6167 15.4828L10.5558 15.4221C10.5558 15.4221 10.495 15.3614 10.495 15.3007C10.4342 15.1793 10.3125 14.9972 10.2517 14.9366L11.7117 12.6304C12.0767 12.691 12.3809 12.691 12.5634 12.691H12.6243C14.6927 12.691 16.822 11.4773 16.822 9.53519V9.4745C16.822 8.92829 16.7003 8.44277 16.6395 8.01795C16.5786 7.7145 16.5178 7.47174 16.5178 7.35036C16.5178 7.1076 16.822 6.86484 17.2478 6.86484H17.917L17.6128 5.16554C18.5254 4.49795 19.1338 3.34485 19.0729 2.31312C20.1071 3.10209 20.7763 4.43726 20.898 5.83312C20.9588 6.25795 20.8372 6.80415 20.7155 7.41105L20.6547 7.65381C20.4113 8.62484 20.0463 9.65657 19.8638 10.1421L19.6813 10.5669L20.1071 10.8097C20.8372 11.2345 21.3239 11.5379 21.3239 12.509C21.3239 13.6621 20.2896 14.5117 19.3163 14.6938L17.917 14.9366L19.0729 15.7255C19.4379 15.9683 19.6813 16.3931 19.6813 16.8179C19.6813 17.5462 19.0729 18.0924 18.3429 18.0924H17.917L17.7954 18.4566C17.3695 19.7917 16.9436 20.4593 15.4836 20.6414V19.2455V18.6386L15.4227 17.3641L14.5102 18.2745C14.206 18.5779 13.6585 18.8207 13.0501 18.9421V17.8497L6.66231 16.1504L4.41137 16.7572C3.92468 16.2717 3.80301 15.4221 3.92468 15.24ZM2.09959 29.0772L6.72315 27.8634L11.3467 29.0772H2.09959ZM11.9551 28.1062L6.66231 26.7103L1.36956 28.1062V18.6993L6.66231 17.3035L11.9551 18.6993V28.1062ZM14.4494 26.2855C13.9627 26.9531 13.9018 27.9241 14.2668 29.0772H13.111V20.0952C13.5368 20.0345 13.9627 19.9131 14.3885 19.731C14.3885 20.0952 14.3277 20.4593 14.2668 20.8235C14.2668 20.9448 14.206 21.0055 14.206 21.1269L14.0843 21.7945H14.7535C15.7269 21.7945 16.457 21.6124 17.0653 21.3697V25.1324C17.0653 25.2538 17.0045 25.3145 16.8828 25.3145H16.7003C15.7269 25.2538 14.8752 25.6179 14.4494 26.2855ZM26.6166 26.5283C26.1908 27.0138 25.8257 27.8028 26.0691 29.0772H19.1946C19.9246 29.0165 20.4721 28.8345 20.8372 28.4703C21.263 27.9848 21.3239 27.3779 21.3239 26.8924C21.3239 26.8317 21.3847 26.7103 21.7497 26.5283L22.3581 26.2855L21.9931 25.7393C21.3847 24.829 21.6889 22.8869 21.8714 21.7945H21.9322C24.244 21.7945 25.7649 21.309 27.3466 20.8235C27.7725 20.7021 28.1984 20.5807 28.6242 20.3986C29.0501 20.2166 29.1109 20.2772 29.7193 20.0952L31.9702 23.7972V23.8579C32.2136 24.1614 32.2136 24.4041 31.7877 24.829L30.6926 26.0428L28.8676 25.6786C28.0767 25.5572 27.1641 25.9214 26.6166 26.5283ZM27.225 29.0772C27.0425 28.2883 27.1033 27.6814 27.4683 27.2565C27.8333 26.8317 28.32 26.771 28.7459 26.771L30.8752 27.1352H31.2402L32.7611 25.4966C33.0044 25.1931 33.7953 24.2828 33.0044 23.1297L30.9968 19.8524C31.301 19.7917 31.666 19.7917 31.9702 19.7917C32.2744 19.7917 33.0044 19.7917 34.0995 20.3986C34.2211 20.7021 34.4645 21.1269 34.647 21.6124C35.0729 22.4621 35.6204 23.5545 35.7421 23.9793C35.8029 24.1007 35.9246 24.5255 35.4379 25.0717L31.6052 29.1379H27.225V29.0772ZM40.3656 29.0772H33.0653L36.1679 25.8C36.7763 25.1324 37.0196 24.3434 36.7154 23.6152C36.5938 23.1903 36.1679 22.3407 35.7421 21.4303C36.9588 21.9766 38.8447 22.5228 42.6774 22.8262C43.1641 22.8869 43.2858 23.0083 43.3466 23.4331L43.5291 25.0717L41.5215 25.4966C40.8523 25.6179 40.3048 26.0428 40.0614 26.7103C39.8181 27.4386 39.9398 28.2883 40.3656 29.0772ZM41.1565 27.1352C41.2782 26.8317 41.4607 26.6497 41.7648 26.589L44.7458 25.9214L44.5025 23.251V23.1903C44.4416 22.8262 44.1983 21.7945 42.7991 21.6731C37.4455 21.2483 36.2287 20.4593 34.8903 19.6097L34.8295 19.549C33.4303 18.6386 32.031 18.6386 31.9094 18.6386C30.3885 18.6386 28.5025 19.2455 28.32 19.3062C27.8333 19.4276 27.4075 19.6097 26.9816 19.731C25.2782 20.2772 23.879 20.7628 21.4455 20.6414H21.0197L20.898 21.0662C20.8372 21.3697 20.1071 24.1007 20.7763 25.8C20.168 26.2855 20.168 26.771 20.168 26.8924C20.168 27.4993 20.0463 27.6207 19.9855 27.6814C19.6813 27.9848 18.7687 27.9848 17.9779 27.9848H17.6737L17.4912 28.2276C17.0045 28.8952 15.9703 29.0772 15.3011 28.8952C14.9969 27.9848 14.9969 27.3172 15.3011 26.8924C15.6661 26.4069 16.3353 26.3462 16.6395 26.3462H16.822C17.552 26.3462 18.0995 25.7393 18.0995 25.0717V20.2772C18.3429 19.9738 18.4646 19.549 18.6471 19.1241C19.8029 18.9421 20.7155 17.971 20.7155 16.7572C20.7155 16.2717 20.5938 15.8469 20.3505 15.4828C21.4455 14.9366 22.3581 13.9048 22.3581 12.509C22.3581 11.1131 21.628 10.4455 20.9588 10.0814C21.1413 9.53519 21.4455 8.62484 21.6889 7.65381L22.6014 4.31588C23.0273 2.98071 24.1223 2.13106 25.3999 2.13106H41.9474C41.2173 3.10209 40.2439 3.58761 38.8447 3.58761H28.9284L28.3809 4.68002H37.3846C36.6546 5.77243 35.6204 6.31864 34.1603 6.31864H27.6508L27.1033 7.41105H32.8828C32.1527 8.50346 31.1793 8.98898 29.7193 8.98898H26.1908L25.6432 10.0814H29.3542C29.4151 10.1421 29.4759 10.3242 29.4759 10.749C29.4759 11.4773 28.8676 12.0235 28.1375 12.0235C27.8942 12.0235 27.6508 11.9628 27.2858 11.7807C27.1033 11.72 26.9816 11.6593 26.7991 11.5986L25.9474 12.3876C26.1299 12.4483 26.2516 12.509 26.4341 12.5697C27.1641 12.8731 27.59 13.0552 28.1375 13.0552C28.8067 13.0552 29.4151 12.7517 29.9018 12.3269C30.5101 12.3876 31.5444 12.4483 32.5786 12.509C33.7953 12.6304 34.8903 12.691 35.4987 12.7517C35.8029 12.7517 36.0462 12.7517 36.3504 12.8124C36.8371 12.8124 37.3238 12.8731 37.7497 12.8731C40.0006 16.5145 41.1565 17 45.5367 17.5462C45.8409 18.0924 46.1451 18.6993 46.3884 19.3062V26.9531C46.2059 27.1352 45.5367 27.4386 45.3542 27.4993L41.6432 29.0165C41.1565 28.349 40.974 27.6814 41.1565 27.1352Z" fill="#FFFEFA"/>
<path id="Vector_2" d="M7.27082 20.1531L10.7993 21.0635V19.9103L7.27082 19V20.1531ZM6.11493 19L2.58643 19.9103V21.0635L6.11493 20.1531V19ZM6.11493 21.3062L2.58643 22.2166V23.3697L6.11493 22.4593V21.3062ZM7.27082 22.4593L10.7993 23.3697V22.2166L7.27082 21.3062V22.4593ZM7.27082 24.7655L10.7993 25.6759V24.5228L7.27082 23.6124V24.7655ZM6.11493 23.6124L2.58643 24.5228V25.6759L6.11493 24.7655V23.6124Z" fill="#FFFEFA"/>
</g>
</g>
</svg>
