<svg width="64" height="64" viewBox="0 0 64 64" fill="none" xmlns="http://www.w3.org/2000/svg">
<circle cx="32" cy="32" r="32" fill="#00ACC1"/>
<path d="M13.3206 28.9777C13.2349 28.9777 13.2134 28.9349 13.2563 28.8706L13.7062 28.2922C13.749 28.2279 13.8561 28.1851 13.9418 28.1851H21.5898C21.6755 28.1851 21.6969 28.2493 21.6541 28.3136L21.2899 28.8706C21.247 28.9349 21.1399 28.9991 21.0756 28.9991L13.3206 28.9777ZM10.0857 30.9486C10 30.9486 9.97858 30.9058 10.0214 30.8415L10.4713 30.2631C10.5141 30.1988 10.6213 30.156 10.707 30.156H20.4758C20.5615 30.156 20.6043 30.2202 20.5829 30.2845L20.4115 30.7987C20.3901 30.8843 20.3044 30.9272 20.2187 30.9272L10.0857 30.9486ZM15.27 32.9195C15.1843 32.9195 15.1629 32.8553 15.2058 32.791L15.5057 32.2554C15.5485 32.1911 15.6342 32.1269 15.7199 32.1269H20.0045C20.0902 32.1269 20.133 32.1911 20.133 32.2768L20.0902 32.791C20.0902 32.8767 20.0045 32.9409 19.9402 32.9409L15.27 32.9195Z" fill="white"/>
<path d="M37.507 28.5919C36.1574 28.9346 35.2362 29.1917 33.908 29.5345C33.5867 29.6202 33.5652 29.6416 33.2867 29.3202C32.9654 28.956 32.7297 28.7204 32.2799 28.5062C30.9302 27.8421 29.6234 28.0349 28.4023 28.8275C26.9455 29.7701 26.1957 31.1626 26.2172 32.8979C26.2386 34.6117 27.4169 36.0256 29.1093 36.2613C30.566 36.4541 31.7871 35.9399 32.7512 34.8473C32.944 34.6117 33.1153 34.3546 33.3296 34.0547H29.195C28.7451 34.0547 28.638 33.7762 28.7879 33.412C29.0664 32.7479 29.5806 31.6339 29.8805 31.0769C29.9448 30.9484 30.0947 30.7341 30.4161 30.7341H38.214C38.1712 31.3126 38.1712 31.891 38.0855 32.4694C37.8498 34.0119 37.2714 35.4258 36.3288 36.6683C34.7863 38.7035 32.7726 39.9674 30.2233 40.3102C28.1238 40.5887 26.1743 40.1817 24.4605 38.8963C22.8752 37.6966 21.9754 36.1113 21.7398 34.1404C21.4613 31.8053 22.1468 29.7058 23.5607 27.8635C25.0818 25.8711 27.0955 24.6072 29.5591 24.1573C31.5729 23.7931 33.501 24.0288 35.2362 25.207C36.3716 25.9568 37.1857 26.9851 37.7213 28.2277C37.8498 28.4205 37.7641 28.5276 37.507 28.5919V28.5919Z" fill="white"/>
<path d="M44.598 40.4396C42.6485 40.3967 40.8704 39.8397 39.3708 38.5544C38.1068 37.4618 37.3142 36.0693 37.0571 34.4197C36.6715 31.9989 37.3356 29.8567 38.7924 27.95C40.3562 25.8934 42.2415 24.8223 44.7908 24.3724C46.9759 23.9868 49.0325 24.201 50.8963 25.465C52.5887 26.6218 53.6384 28.1857 53.9169 30.2423C54.2811 33.1344 53.4456 35.4909 51.4533 37.5046C50.0394 38.94 48.3041 39.8397 46.3118 40.2468C45.7334 40.3539 45.155 40.3753 44.598 40.4396V40.4396ZM49.6966 31.7847C49.6752 31.5062 49.6752 31.292 49.6324 31.0778C49.2467 28.9569 47.2973 27.7572 45.2621 28.2285C43.2698 28.6784 41.9844 29.9423 41.5131 31.9561C41.1275 33.6271 41.9415 35.3195 43.484 36.005C44.6622 36.5192 45.8405 36.4549 46.9759 35.8765C48.6683 34.9982 49.5895 33.6271 49.6966 31.7847V31.7847Z" fill="white"/>
</svg>
