<svg width="64" height="64" viewBox="0 0 64 64" fill="none" xmlns="http://www.w3.org/2000/svg">
<circle cx="32" cy="32" r="32" fill="#EFF0F2"/>
<g clip-path="url(#clip0_1914_78142)">
<path d="M26.0338 41.3893C26.0338 41.3893 24.5797 42.2329 27.0674 42.5192C30.0821 42.8612 31.6274 42.8131 34.9436 42.1848C35.6109 42.5817 36.3109 42.9207 37.0361 43.1981C29.5906 46.3876 20.1869 43.0132 26.0338 41.3817M25.1244 37.2271C25.1244 37.2271 23.4929 38.4329 25.9832 38.6913C29.203 39.0232 31.744 39.0511 36.1444 38.2049C36.5955 38.6263 37.1284 38.9505 37.71 39.1575C28.709 41.7871 18.6821 39.3652 25.1244 37.2271" fill="#5482A2"/>
<path d="M32.7979 30.1717C34.632 32.2819 32.3166 34.1794 32.3166 34.1794C32.3166 34.1794 36.9678 31.7778 34.8246 28.7581C32.8308 25.9714 31.3007 24.5679 39.5948 19.7622C39.5948 19.7622 26.5761 23.0125 32.7928 30.1717" fill="#F89921"/>
<path d="M42.6399 44.4644C42.6399 44.4644 43.714 45.3511 41.4543 46.0351C37.1476 47.3372 23.5689 47.7299 19.7943 46.0883C18.4389 45.498 20.9824 44.6798 21.7829 44.5075C22.2124 44.4032 22.6533 44.3538 23.0952 44.3606C21.5752 43.2991 13.3419 46.4455 18.9076 47.3474C34.0848 49.8072 46.5767 46.2378 42.6399 44.4644ZM26.7331 32.9175C26.7331 32.9175 19.8196 34.5566 24.2859 35.1544C26.1707 35.4078 29.9276 35.3495 33.4287 35.0556C36.2888 34.8023 39.1591 34.2956 39.1591 34.2956C38.5558 34.5586 37.9747 34.8695 37.4212 35.2254C30.4039 37.0747 16.8379 36.2184 20.7468 34.3311C24.0401 32.7351 26.7331 32.9175 26.7331 32.9175ZM39.1312 39.8436C46.2676 36.1374 42.9667 32.578 40.6512 33.0568C40.3737 33.1079 40.1009 33.1816 39.8355 33.2772C39.9908 33.062 40.2083 32.8993 40.4587 32.8111C45.0187 31.21 48.5172 37.5307 38.9893 40.0336C39.0476 39.9812 39.0957 39.9185 39.1312 39.8487" fill="#5482A2"/>
<path d="M34.8246 12C34.8246 12 38.7766 15.9495 31.0778 22.0244C24.9041 26.896 29.6693 29.6751 31.0778 32.8468C27.4779 29.5991 24.8306 26.7313 26.6065 24.0764C29.2107 20.17 36.4231 18.2751 34.8246 12Z" fill="#F89921"/>
<path d="M27.4348 49.8807C34.2748 50.319 44.7983 49.6274 45.0491 46.3999C45.0491 46.3999 44.5703 47.6286 39.3871 48.6014C33.5427 49.7008 26.3328 49.5742 22.0565 48.8699C22.0565 48.8699 22.9331 49.5919 27.4348 49.8832" fill="#5482A2"/>
</g>
<defs>
<clipPath id="clip0_1914_78142">
<rect width="28.0465" height="38" fill="white" transform="translate(17 12)"/>
</clipPath>
</defs>
</svg>
