<svg width="64" height="64" viewBox="0 0 64 64" fill="none" xmlns="http://www.w3.org/2000/svg">
<circle cx="32" cy="32" r="32" fill="#FF5252"/>
<path fill-rule="evenodd" clip-rule="evenodd" d="M21.8027 13C21.6232 13 21.4469 13.0479 21.292 13.1386L14.44 17.0858L14.4207 17.1069L14.391 17.1216L14.2876 17.225C14.2588 17.2537 14.2384 17.2808 14.2281 17.2949C14.2215 17.3039 14.2154 17.3127 14.2109 17.3194C14.1987 17.3326 14.1837 17.3499 14.1696 17.3689C14.1556 17.3877 14.1269 17.4278 14.1036 17.4857C14.1002 17.4921 14.0964 17.4992 14.0927 17.5065C14.0804 17.5314 14.0646 17.5672 14.0525 17.6122C14.0503 17.6204 14.0483 17.6287 14.0465 17.637C14.0406 17.6535 14.0339 17.6745 14.0285 17.6993L14.0282 17.7006C13.9993 17.8087 13.9998 17.9061 14 17.9484L14.0001 17.9571V41.196C14.0001 41.5555 14.1828 41.9004 14.5225 42.0881L28.0986 49.9015L28.1148 49.9095C28.129 49.9166 28.1563 49.9303 28.183 49.9417C28.1983 49.9483 28.222 49.958 28.2503 49.9666C28.2559 49.9683 28.2635 49.9706 28.2731 49.9731L28.2777 49.9749C28.2949 49.9813 28.3183 49.989 28.3465 49.9952C28.4551 50.0243 28.5527 50.0238 28.5951 50.0236L28.6038 50.0236L28.6124 50.0236C28.6553 50.0238 28.7542 50.0243 28.8639 49.9944C28.8701 49.9929 28.8763 49.9914 28.8825 49.9897H28.8992L28.9314 49.9735C28.9478 49.9671 28.9633 49.9599 28.9778 49.9524C28.9855 49.9503 28.9942 49.9478 29.0032 49.9449C29.0283 49.9371 29.061 49.9254 29.0972 49.9073L29.1092 49.9013L42.6929 42.0836L42.6966 42.0814C42.9884 41.9061 43.2075 41.5784 43.2075 41.196V34.0427L49.4852 30.4298L49.489 30.4276C49.7807 30.2522 50 29.9246 50 29.5423V21.6284L49.9391 21.5369C49.9386 21.5341 49.938 21.5313 49.9374 21.5286C49.9356 21.5206 49.9338 21.513 49.9318 21.5058V21.4731L49.8951 21.4C49.8911 21.3864 49.8828 21.3598 49.8703 21.3308C49.8684 21.3264 49.8663 21.3218 49.8641 21.3169V21.2562L49.7529 21.1451C49.7486 21.1388 49.7433 21.131 49.7375 21.1232C49.7273 21.1091 49.707 21.0823 49.6785 21.0538L49.6766 21.052L49.6277 21.003L49.627 21.0023C49.6014 20.9767 49.5472 20.9225 49.4559 20.874L42.6759 16.9682L42.6735 16.9668C42.5186 16.8761 42.3424 16.8283 42.1629 16.8283C41.9833 16.8283 41.8071 16.8761 41.6522 16.9669L41.6499 16.9682L39.4896 18.2128L23.2929 13.6966L22.3124 13.138C22.1577 13.0476 21.9819 13 21.8027 13ZM23.3101 13.7064L23.2929 13.6966L21.2947 13.1394L21.2937 13.1376L21.292 13.1386L21.2897 13.14L21.5232 13.536L21.2947 13.1394L23.3101 13.7064ZM39.437 18.2431L39.4896 18.2128L40.1101 18.3858L40.0557 18.4171L39.437 18.2431ZM43.8294 19.4787L43.6407 19.3702L41.6406 18.8125L41.5817 18.8464L43.8294 19.4787ZM48.0672 20.6045L49.6785 21.0538L49.7529 21.1451L48.2924 20.7342L48.0672 20.6045ZM14.7478 41.6873L14.5277 42.0909L14.5225 42.0881L14.5185 42.0857L14.7478 41.6873ZM39.437 18.2431L34.8091 20.9092L34.7847 20.9336L34.7512 20.9505L34.6481 21.0532L34.6475 21.0538C34.6187 21.0825 34.5983 21.1097 34.5882 21.1236C34.5818 21.1324 34.5758 21.141 34.5714 21.1476C34.5592 21.1608 34.5445 21.1778 34.5304 21.1965C34.5162 21.2155 34.4874 21.2559 34.4639 21.314C34.4605 21.3203 34.4567 21.3275 34.4531 21.3348C34.4407 21.3597 34.4249 21.3956 34.4128 21.4405C34.4118 21.4445 34.4108 21.4484 34.4098 21.4524C34.4087 21.4571 34.4076 21.4617 34.4066 21.4664C34.4007 21.4827 34.3942 21.5036 34.3889 21.528C34.3597 21.6366 34.3602 21.7344 34.3604 21.7767L34.3604 21.7854V28.9385L29.6224 31.6623V17.9232L29.6225 17.9146C29.6227 17.8722 29.6231 17.775 29.5944 17.6669L29.5941 17.6654C29.5923 17.6575 29.5905 17.65 29.5885 17.6429V17.612L29.5523 17.5392C29.5484 17.5257 29.5398 17.4979 29.5265 17.4672C29.5248 17.4632 29.5228 17.459 29.5208 17.4545V17.3956L29.4105 17.284C29.4062 17.2777 29.4006 17.2696 29.3947 17.2615C29.3845 17.2475 29.3641 17.2203 29.3354 17.1916L29.2893 17.1458C29.2376 17.0914 29.1774 17.0459 29.1111 17.0109L23.3101 13.7064L39.437 18.2431ZM14.6122 17.5506L14.2871 17.2255L14.2876 17.225L14.289 17.2237L14.6122 17.5506ZM14.5276 17.6691L14.1169 17.4626C14.1179 17.4605 14.1188 17.4589 14.119 17.4584L14.1169 17.4622L14.1163 17.4631C14.1145 17.4663 14.1095 17.4748 14.1036 17.4857C14.0838 17.5348 14.0679 17.5966 14.0679 17.6689L14.0441 17.661C14.0494 17.6367 14.056 17.6173 14.0609 17.6042C14.0659 17.5911 14.0704 17.5813 14.0725 17.5769C14.0744 17.5728 14.076 17.5697 14.0744 17.5728L14.0743 17.5731C14.0733 17.575 14.0699 17.5819 14.0662 17.5896C14.0621 17.5983 14.0558 17.6122 14.0492 17.6296C14.0483 17.6319 14.0474 17.6344 14.0465 17.637C14.0448 17.6447 14.0433 17.6525 14.0419 17.6603L14.0403 17.6598C14.0358 17.6735 14.0318 17.6871 14.0282 17.7006C14.0219 17.7292 14.0169 17.7644 14.0169 17.8047H14.4766L14.0684 17.6691L14.5276 17.6691ZM28.3465 49.9952L28.3469 49.9953C28.3755 50.0015 28.4108 50.0066 28.4512 50.0066V49.5468L28.3065 49.9794C28.2834 49.9742 28.265 49.968 28.2523 49.9633C28.2393 49.9584 28.2297 49.954 28.2252 49.952C28.223 49.9509 28.221 49.95 28.2203 49.9496L28.2212 49.9501L28.2214 49.9502C28.2231 49.951 28.2301 49.9545 28.2379 49.9582C28.2458 49.9618 28.258 49.9673 28.2731 49.9731C28.2824 49.9755 28.2935 49.9782 28.3061 49.9806L28.3053 49.9828C28.3192 49.9874 28.3329 49.9915 28.3465 49.9952ZM14.2109 17.3194C14.2228 17.3065 14.232 17.2974 14.2352 17.2942L14.2362 17.2933C14.2163 17.3132 14.2044 17.3296 14.2023 17.3325L14.2021 17.3327L14.2003 17.3353L14.2042 17.3294L14.2049 17.3283C14.2063 17.3263 14.2084 17.3232 14.2109 17.3194ZM14.4207 17.1069L14.4584 17.0881C14.4335 17.1005 14.411 17.1174 14.3922 17.1378L14.4207 17.1069ZM49.9491 21.6318C49.9491 21.6193 49.9484 21.608 49.9474 21.5982C49.9482 21.6089 49.9487 21.6201 49.9487 21.6317L49.9491 21.6318ZM49.7569 21.1658C49.7569 21.1658 49.7578 21.1667 49.7591 21.1682C49.7575 21.1665 49.7569 21.1658 49.7569 21.1658ZM26.5318 17.9246L21.7957 15.202L17.0583 17.9396L21.7945 20.6621L26.5318 17.9246ZM42.1556 24.4906L37.4206 21.7687L42.1556 19.0468L46.8906 21.7687L42.1556 24.4906ZM22.8139 22.4238L27.5519 19.6862V32.8197L24.4953 34.6001L24.4942 34.6008L22.8139 35.573V22.4238ZM16.0212 40.5761L16.0214 19.7033L20.7594 22.4408V37.3526L20.7594 37.3539C20.7593 37.3637 20.7591 37.4098 20.7677 37.4617C20.7701 37.4763 20.7745 37.5002 20.7833 37.5296C20.7837 37.5326 20.7842 37.5357 20.7847 37.5388C20.7915 37.579 20.8019 37.6151 20.8141 37.6474C20.8279 37.6949 20.8447 37.7292 20.8522 37.7442C20.8614 37.7625 20.8734 37.7843 20.8886 37.8075C20.8899 37.8105 20.8912 37.8134 20.8926 37.8165C20.908 37.8501 20.9387 37.9087 20.9957 37.9656L20.9976 37.9674L21.0273 37.9974L21.0441 38.031L21.0972 38.0841L21.098 38.0849C21.1036 38.0906 21.1347 38.1223 21.1722 38.1504C21.1824 38.158 21.1983 38.1696 21.2195 38.1822C21.2469 38.2034 21.2807 38.2264 21.3221 38.2482L27.5519 41.7709V47.212L16.0212 40.5761ZM36.382 28.9058V23.5314L41.1199 26.2689V31.6432L36.382 28.9058ZM43.1756 26.27L47.9135 23.5326V28.9232L43.1756 31.647V26.27ZM29.088 34.2955L35.3633 30.684L40.096 33.4046L28.5699 39.991L23.8556 37.3153L29.088 34.2955ZM29.5905 47.2133V41.7706L41.1211 35.1812V40.5773L29.5905 47.2133Z" fill="white"/>
</svg>
