<svg width="64" height="64" viewBox="0 0 64 64" fill="none" xmlns="http://www.w3.org/2000/svg">
<circle cx="32" cy="32" r="32" fill="#F1F3F7"/>
<g clip-path="url(#clip0_1914_77932)">
<path d="M36.2563 39.3909H37.4153C38.4223 39.3909 38.682 39.6126 38.5743 40.5943C38.5047 41.2063 38.3968 41.8134 38.2513 42.4119C38.1926 42.6746 38.0581 42.9142 37.8645 43.1011C37.6708 43.288 37.4266 43.4139 37.162 43.4633C34.312 44.0459 31.462 44.5589 28.5803 45.0909C28.175 45.1669 27.7697 45.2303 27.358 45.2683C26.9463 45.3063 26.7247 45.2113 26.6487 44.7806C26.5727 44.3499 26.8323 44.1473 27.225 44.0459C28.2927 43.8569 29.3498 43.6117 30.3917 43.3113H27.909C26.8197 43.2796 26.4523 42.8933 26.2877 41.8229C25.8443 38.9223 26.2877 39.4289 28.441 39.3973H36.2563V39.3909Z" fill="#E54537"/>
<path d="M42.6847 20.1061C42.6727 20.347 42.5942 20.58 42.4578 20.779C42.3214 20.978 42.1324 21.1353 41.912 21.2334C36.1782 23.8723 30.4571 26.5281 24.7487 29.2007C24.2872 29.4619 23.7797 29.6318 23.254 29.7011C22.9666 29.7107 22.6857 29.615 22.464 29.4318C22.2423 29.2487 22.0953 28.9908 22.0507 28.7067C21.9827 28.4148 22.0205 28.1081 22.1574 27.8414C22.2942 27.5747 22.5212 27.3652 22.798 27.2501C24.7487 26.3317 26.6487 25.4071 28.631 24.4951C31.063 23.3614 33.5077 22.2404 35.9397 21.1194C37.5483 20.3721 39.1507 19.6184 40.7657 18.8837C40.9709 18.7843 41.1982 18.739 41.4259 18.7522C41.6535 18.7654 41.8741 18.8366 42.0664 18.9592C42.2588 19.0817 42.4166 19.2514 42.5248 19.4522C42.633 19.6529 42.688 19.878 42.6847 20.1061V20.1061ZM42.6973 14.8177C42.6828 15.0915 42.5912 15.3556 42.4333 15.5797C42.2753 15.8037 42.0573 15.9787 41.8043 16.0844C35.9903 18.7993 30.1806 21.5057 24.375 24.2037C24.0048 24.4613 23.5585 24.5863 23.1083 24.5584C22.8245 24.5211 22.5616 24.3887 22.3626 24.1828C22.1636 23.9769 22.0403 23.7097 22.0127 23.4247C21.9722 23.1442 22.0269 22.8583 22.1682 22.6125C22.3094 22.3668 22.5289 22.1756 22.7917 22.0694L28.4093 19.4474C32.374 17.6065 36.3387 15.7677 40.3033 13.9311C40.7973 13.7094 41.2787 13.3737 41.893 13.6967C42.1069 13.8056 42.2916 13.9643 42.4316 14.1593C42.5716 14.3544 42.6627 14.5802 42.6973 14.8177V14.8177ZM23.1147 34.7741C22.513 34.8944 22.1773 34.4257 22.038 33.8494C21.9619 33.5581 21.9977 33.2489 22.1384 32.9827C22.2791 32.7166 22.5144 32.5129 22.798 32.4117C24.8817 31.4237 26.959 30.4294 29.049 29.4541C31.9687 28.1051 34.901 26.7687 37.8207 25.4261C38.7643 24.9954 39.7207 24.5457 40.6263 24.1087C41.532 23.6717 42.1843 23.9187 42.5263 24.7104C42.8683 25.5021 42.577 26.0531 41.6903 26.4647C39.2837 27.5984 36.8707 28.7067 34.4577 29.8277C31.4557 31.2211 28.4663 32.6207 25.458 34.0014C24.7466 34.4354 23.9447 34.6998 23.1147 34.7741Z" fill="#E54537"/>
<path d="M36.2563 39.3911H33.6153V33.6911C33.5733 33.3245 33.656 32.9544 33.8503 32.6407C34.0445 32.327 34.3388 32.0879 34.6857 31.9621C36.7503 31.0754 38.7833 30.1254 40.8353 29.2071C40.9853 29.1264 41.1503 29.0779 41.32 29.0644C41.4898 29.0509 41.6604 29.0729 41.8212 29.1289C41.982 29.1848 42.1294 29.2736 42.254 29.3896C42.3787 29.5055 42.4779 29.6461 42.5453 29.8024C42.6348 29.9512 42.6896 30.1182 42.7054 30.2911C42.7213 30.464 42.6979 30.6383 42.6371 30.8009C42.5762 30.9634 42.4793 31.1102 42.3538 31.2301C42.2282 31.35 42.0772 31.44 41.912 31.4934C40.259 32.2851 38.5933 33.0514 36.9087 33.7734C36.703 33.8361 36.5264 33.9699 36.4103 34.1509C36.2943 34.332 36.2464 34.5483 36.2753 34.7614C36.2817 36.3004 36.2563 37.8457 36.2563 39.3911V39.3911Z" fill="#E54537"/>
<path d="M32.887 14.3173C32.9199 14.5719 32.8608 14.8299 32.7203 15.0447C32.5798 15.2596 32.3671 15.4171 32.1207 15.489C29.4607 16.7113 26.807 17.94 24.1153 19.1433C23.1147 19.5993 22.4813 19.4093 22.114 18.605C21.7467 17.8007 22.0887 17.2117 23.0197 16.8C25.6797 15.5713 28.3439 14.3595 31.0123 13.1647C32.032 12.7087 32.887 13.2217 32.887 14.3173Z" fill="#E54537"/>
<path d="M37.1683 45.3C37.561 45.2683 38.0677 45.3 38.1373 45.7877C38.207 46.2753 37.7257 46.4653 37.2507 46.554C33.9827 47.1493 30.721 47.751 27.4593 48.3843C26.9843 48.4793 26.6867 48.3843 26.56 47.9347C26.4333 47.485 26.769 47.1937 27.1617 47.124C30.4233 46.4907 33.685 45.9017 36.953 45.3C37.0246 45.2935 37.0967 45.2935 37.1683 45.3V45.3Z" fill="#E54537"/>
<path d="M31.082 39.3911H28.4283V35.2301C28.4283 34.2548 29.0237 33.5264 29.7647 33.5328C30.5057 33.5391 31.082 34.2421 31.082 35.2301V39.3911Z" fill="#E54537"/>
<path d="M28.973 51H27.377C27.149 51 26.7437 51.1773 26.7437 50.7657C26.7437 50.4743 27.1047 50.3857 27.377 50.3287C28.3207 50.126 29.277 49.9423 30.227 49.7713L36.6427 48.606C36.7864 48.5674 36.9323 48.5378 37.0797 48.5173C37.5293 48.5173 38.0867 48.454 38.169 49.005C38.2513 49.556 37.751 49.7017 37.276 49.7777C34.4893 50.1767 31.804 51.0443 28.973 51Z" fill="#E54537"/>
</g>
<defs>
<clipPath id="clip0_1914_77932">
<rect width="20.6973" height="38" fill="white" transform="translate(22 13)"/>
</clipPath>
</defs>
</svg>
