<svg width="52" height="48" viewBox="0 0 52 48" fill="none" xmlns="http://www.w3.org/2000/svg">
<g id="mazda">
<g id="Mazda">
<path id="path5946" d="M35.8795 45.8951H38.8951C38.8951 45.8951 40.2129 45.8848 40.2129 43.924C40.2129 41.923 38.8951 41.9201 38.8951 41.9201H35.8795V45.8951ZM17.0683 44.5573C16.7475 44.5573 16.4874 44.8391 16.4874 45.1868C16.4874 45.5345 16.7473 45.8162 17.0683 45.8162L20.5847 45.8156V44.5578L17.0683 44.5573ZM45.6864 44.5575C45.3656 44.5575 45.1055 44.8391 45.1055 45.1868C45.1055 45.5345 45.3655 45.8164 45.6864 45.8164L49.2028 45.8157V44.5578L45.6864 44.5575ZM44.4585 42.9318L49.2539 42.932C49.2546 42.4888 49.2224 41.7872 48.127 41.7866C46.9955 41.7861 43.2083 41.7866 43.2083 41.7866V39.7889C43.2083 39.7889 46.8649 39.7897 49.2028 39.7894C50.6627 39.7891 51.8164 40.3534 51.8166 42.0075L51.8156 47.9948H44.4747L44.5584 48C43.5863 48 42.7688 47.1883 42.5394 46.0911C41.8858 47.9945 40.3054 47.9938 39.0828 47.9909L33.1733 47.991V41.5629L24.8578 47.9947H15.8566L15.9403 47.9997C15.1329 47.9997 14.4322 47.4399 14.0865 46.6215L14.0855 47.9945H11.517V42.7128C11.517 42.7128 11.5089 42.0094 10.7208 42.0077H8.82203V47.9945H6.28112V42.0077H3.61674V47.9945H0.98291L0.98829 39.7887L11.7097 39.7884C12.893 39.7884 14.0908 40.5253 14.0908 42.0077L14.0899 44.3019C14.4359 43.4863 15.1346 42.9288 15.9403 42.9288L15.8421 42.9309H20.6375C20.6381 42.4877 20.6057 41.7863 19.5105 41.7857C18.3791 41.7852 14.592 41.7857 14.592 41.7857V39.7878C14.592 39.7878 18.2484 39.7886 20.5863 39.7883C22.0462 39.7879 23.2 40.3523 23.2001 42.0064L23.1994 46.1243L31.5961 39.7878H33.1748H39.1048C40.6651 39.7878 42.8444 39.7879 42.8444 43.8786L42.8434 44.0261C43.2189 43.3629 43.8469 42.9282 44.5584 42.9282L44.4601 42.9302L44.4585 42.9318ZM24.1187 39.7887H30.1122L27.4582 42.0078H24.117L24.1191 39.7887H24.1187ZM32.3946 47.9884H26.4012L29.0553 45.7694H32.3963L32.3942 47.9884" fill="#FFFEFA"/>
<path id="path4-6" fill-rule="evenodd" clip-rule="evenodd" d="M12.5979 29.5478C11.3503 28.7806 10.9531 27.8069 9.05731 27.0258C7.1689 24.5521 6.43633 21.4745 6.43662 18.3951C6.43662 16.1475 6.8273 13.8993 7.44309 11.8837L9.34719 15.6741C9.23335 16.5165 9.18301 17.4298 9.18301 18.4032C9.18301 30.9628 17.5146 33.4969 26.3025 33.4682C35.0905 33.4966 43.4221 30.9629 43.4221 18.4032C43.4222 17.1147 43.3344 15.9308 43.1672 14.8454L44.5292 12.042C46.4046 16.7096 46.0381 24.7853 41.5274 27.6449C40.7555 28.792 40.0556 29.6414 38.9618 30.5047C35.0642 33.5809 29.4189 33.9742 24.6492 33.7968C20.6415 33.6477 16.1252 32.828 13.0701 30.0205L12.5979 29.5478ZM7.45089 6.93096L7.1893 6.67008C4.94564 9.3909 3.53369 13.1727 3.53369 18.4032C3.53369 34.2386 16.459 36.8065 26.3026 36.8065C36.1464 36.8064 49.0716 34.2386 49.0716 18.4032C49.0717 13.1731 47.6597 9.39098 45.4161 6.67023H45.4162L45.1554 6.92245C45.1075 8.30666 44.8685 9.74065 44.6693 11.0947C45.6519 13.2123 46.1165 15.7283 46.1829 18.403C46.3269 26.2692 42.329 34.5337 26.3025 35.0717C16.2276 34.9924 9.8965 31.8854 7.30979 25.3932C5.59706 24.3045 4.76067 22.2999 3.9668 20.3545C3.6477 16.2547 4.23888 11.6487 6.54323 8.14717L7.03309 7.46439C7.21986 8.7984 7.45155 10.569 7.86417 10.9085C12.9631 15.1897 21.9368 14.6376 26.2547 23.2659C30.9469 13.6976 39.2314 14.9065 44.3301 10.6253L44.8046 6.52451C38.8587 12.952 30.7774 10.7719 26.2547 20.3853C21.3816 10.9472 13.4116 13.2764 7.45089 6.93096ZM11.4457 9.22773C14.5041 4.4959 20.2967 3.31841 26.3025 3.33795C32.2067 3.3173 37.905 4.45629 41.0155 9.04404L44.6946 6.25842L44.6937 6.25732L44.9117 6.09222C40.2949 1.07231 32.6576 4.4691e-10 26.3023 4.4691e-10C19.8134 -2.58109e-05 11.9873 1.11754 7.40563 6.41392L7.49204 6.48434L7.49117 6.48497L7.682 6.63904L7.68241 6.63873C8.67117 7.60649 9.7643 8.62267 10.8732 9.20347C11.0524 9.28194 11.2548 9.31371 11.4456 9.22931L11.4457 9.22773ZM44.3565 6.0259L42.6976 7.06755C37.78 2.74211 32.5407 1.68479 26.3025 1.72774C19.9998 1.68463 14.4701 2.80664 9.61695 7.42327L7.91665 6.38115C9.66778 4.51636 11.6111 3.26333 13.9849 2.31946C19.1626 0.260463 26.5126 -0.0144805 32.0147 0.693963C36.4213 1.26135 40.9889 2.669 44.2132 5.8734L44.3565 6.0259ZM26.2547 26.1789C24.1501 21.6624 21.8516 19.6229 18.3389 18.1659V18.1658L9.54894 15.2035L8.3349 11.8527C10.4986 13.5111 13.6821 14.6358 16.7203 15.809C21.4035 17.5982 23.9506 19.873 26.2547 24.5277H26.2547V26.1789ZM26.2547 26.1789C28.3593 21.6624 30.658 19.3313 34.1705 17.8745L42.8635 14.7664L44.072 11.5228C41.9082 13.1813 38.4876 14.4415 35.4493 15.6147C30.7659 17.4039 28.5589 19.873 26.2547 24.5277H26.2547V26.1789ZM41.5746 11.9757C42.2866 11.603 42.9863 11.2104 43.6308 10.7272L43.9944 10.4383L44.3344 7.50078C41.4959 10.1212 38.6807 11.0622 35.139 12.5852H35.1392C34.6177 12.826 33.2317 13.4326 32.7605 13.757C31.3221 14.9827 30.6021 16.171 30.3075 17.4269C32.1322 15.9418 34.0733 14.9916 36.2469 14.1247C38.0323 13.4126 39.8426 12.806 41.5746 11.9757ZM31.0674 14.8569C30.6757 15.1371 29.5002 16.1342 29.2461 16.4963C28.7448 17.4409 28.5225 18.3056 28.5446 19.1423H28.5446L29.5347 18.1068L29.7855 17.8806C29.9254 16.8849 30.3532 15.8878 31.0673 14.8571L31.0674 14.8569ZM18.3657 13.369C17.1235 12.763 15.2806 12.095 13.9685 11.5603C11.2978 10.3979 9.4513 9.45598 7.36847 7.35553C7.44302 7.86874 7.51917 8.38017 7.60098 8.89028C7.6766 9.30745 7.81923 10.3506 8.12025 10.6584C8.47323 11.0192 9.64359 11.7431 10.1145 12.005C12.2173 13.1747 14.6324 13.9613 16.8467 14.8591V14.859C18.2845 15.4808 19.6967 16.1218 21.0203 16.9655C20.2786 15.7328 19.3416 14.5495 18.366 13.369H18.3657Z" fill="#FFFEFA"/>
</g>
</g>
</svg>
