<svg width="92" height="25" viewBox="0 0 92 25" fill="none" xmlns="http://www.w3.org/2000/svg">
<g id="mercado-libre">
<g id="Group 43722">
<path id="Vector" d="M39.7362 13.5088H40.2308V23.4006H38.3584V14.7099C38.3584 14.4273 38.959 13.5088 39.7362 13.5088ZM49.9812 15.6991C49.0627 15.6991 48.3562 16.0877 47.8616 16.8649V13.5088H47.6496C46.7311 13.5088 46.2365 14.0034 45.9892 14.4273V14.3567V20.0444C45.9892 22.2701 47.155 23.4006 49.4866 23.4006C51.8183 23.3652 52.9488 22.0934 52.9488 19.6205C52.9488 17.0416 51.9596 15.7698 49.9812 15.6991ZM49.416 21.7755C48.3562 21.7755 47.8262 20.9983 47.8616 19.5145C47.9322 18.0661 48.4268 17.3595 49.4513 17.3595C50.4758 17.3595 50.9704 18.0661 51.0411 19.5145C51.0411 21.0336 50.4758 21.7755 49.416 21.7755ZM54.0439 19.5145C54.1146 17.1122 55.2804 15.7698 57.7887 15.7698H58.3539V17.7128H57.4707C56.4109 17.7128 55.9516 18.384 55.9516 19.4792V23.3652H54.0439V19.5145ZM61.3214 21.4575C61.6394 21.7402 62.0633 21.8815 62.6286 21.8815C63.0172 21.8815 63.3705 21.7755 63.6531 21.5635C63.9357 21.3516 64.1124 21.1396 64.183 20.9276H65.9494C65.6668 21.8108 65.2428 22.4114 64.6423 22.8C64.0417 23.1886 63.3705 23.3652 62.5226 23.3652C61.9573 23.3652 61.4274 23.2593 60.9682 23.0826C60.5089 22.906 60.1203 22.6234 59.8024 22.3054C59.4844 21.9521 59.2371 21.5635 59.0605 21.1043C58.8839 20.645 58.8132 20.1151 58.8132 19.5499C58.8132 19.02 58.9192 18.49 59.0958 18.0308C59.2725 17.5715 59.5197 17.1476 59.8377 16.8296C60.1556 16.4763 60.5443 16.2291 61.0035 16.0171C61.4628 15.8051 61.9573 15.7345 62.5226 15.7345C63.1232 15.7345 63.6884 15.8404 64.1477 16.0877C64.6069 16.335 64.9956 16.653 65.2782 17.0416C65.5608 17.4302 65.7727 17.8894 65.914 18.4194C66.0554 18.9139 66.0907 19.4792 66.0554 20.0444H60.7915C60.8622 20.7156 61.0388 21.1749 61.3214 21.4575ZM63.5824 17.6422C63.3351 17.3949 62.9819 17.2536 62.4873 17.2536C62.1693 17.2536 61.8867 17.3242 61.6747 17.4302C61.4627 17.5362 61.2861 17.6775 61.1802 17.8188C61.0388 17.9954 60.9682 18.1368 60.8975 18.3134C60.8269 18.49 60.8268 18.6666 60.7915 18.8079H64.0417C64.0064 18.278 63.8297 17.8895 63.5824 17.6422ZM42.2445 13.5088H44.1168V15.2045H42.2445V13.5088ZM42.2445 16.0524H44.1168V23.3652H42.2445V16.0524Z" fill="#FFFEFA"/>
<path id="Vector_2" d="M88.9478 9.58737C88.6298 9.94065 88.2059 10.1526 87.676 10.1526C87.1461 10.1526 86.7221 9.94065 86.4041 9.58737C86.0862 9.23409 85.9802 8.63354 85.9802 7.92698C85.9802 7.1851 86.1215 6.65519 86.4041 6.30192C86.7221 5.94864 87.1461 5.73664 87.676 5.73664C88.2059 5.73664 88.6298 5.94864 88.9478 6.30192C89.2657 6.65519 89.3717 7.25576 89.3717 7.92698C89.3717 8.59821 89.2657 9.16344 88.9478 9.58737ZM90.4315 5.20672C89.8663 4.46484 88.9124 4.04093 87.676 4.04093C86.4748 4.04093 85.4856 4.39418 84.9204 5.20672C84.3551 5.9486 84.0019 6.86716 84.0019 7.89166C84.0019 8.9515 84.3198 9.87001 84.9204 10.5766C85.4856 11.3184 86.4395 11.707 87.676 11.707C88.8771 11.707 89.8663 11.3538 90.4315 10.5766C90.9968 9.83468 91.35 8.91617 91.35 7.89166C91.3854 6.90249 91.0674 5.98393 90.4315 5.20672ZM81.2463 9.58737C80.999 9.94065 80.5751 10.1526 80.0451 10.1526C79.5152 10.1526 79.0913 9.94065 78.8794 9.58737C78.6321 9.16344 78.5261 8.63354 78.5261 7.92698C78.5261 7.29108 78.6321 6.79648 78.8794 6.40787C79.1266 5.98394 79.5153 5.772 80.0805 5.772C80.4338 5.772 80.7517 5.87795 81.0343 6.08991C81.4583 6.44319 81.7056 7.14978 81.7056 8.0683C81.5996 8.7042 81.5289 9.23409 81.2463 9.58737ZM83.4366 1.88595C83.4366 1.88595 81.5289 1.67396 81.5289 3.19306V5.20672C81.317 4.88877 81.0697 4.6415 80.6811 4.39421C80.3631 4.18224 79.9392 4.14689 79.5152 4.14689C78.5614 4.14689 77.8195 4.50017 77.2189 5.20672C76.6537 5.87795 76.3711 6.90246 76.3711 8.17426C76.3711 9.23409 76.6184 10.1526 77.2189 10.7532C77.7842 11.4244 78.9147 11.707 79.9039 11.707C83.4013 11.707 83.3306 8.73949 83.3306 8.73949L83.4366 1.88595ZM74.0394 8.70418C74.0394 9.34008 73.8275 9.76404 73.5095 10.0113C73.1562 10.2233 72.7676 10.3646 72.379 10.3646C72.1317 10.3646 71.9198 10.3292 71.7431 10.1526C71.5665 9.97597 71.4958 9.79937 71.4958 9.48142C71.4958 9.12814 71.6371 8.8455 71.9198 8.66886C72.0611 8.56287 72.379 8.45691 72.7676 8.42158L73.1916 8.31558C73.4036 8.28025 73.5449 8.20958 73.7215 8.20958C73.8275 8.17425 73.9688 8.10363 74.0748 8.0683L74.0394 8.70418ZM74.9933 4.57085C74.3574 4.2529 73.6862 4.11157 72.8736 4.11157C71.6725 4.11157 70.7893 4.42955 70.2947 5.06545C69.9767 5.48938 69.8354 5.98394 69.7648 6.58451H71.5665C71.6018 6.33722 71.7078 6.12528 71.8138 5.94864C72.0258 5.73667 72.3437 5.63068 72.7676 5.63068C73.1916 5.63068 73.4389 5.66602 73.6861 5.772C73.8981 5.87798 74.0041 6.08992 74.0041 6.40787C74.0041 6.65517 73.8628 6.83181 73.5802 6.93779C73.4389 6.97312 73.1563 7.04378 72.8383 7.07911L72.2024 7.11443C71.4605 7.22041 70.9306 7.36174 70.542 7.57371C69.8708 7.92699 69.5175 8.63355 69.5175 9.48142C69.5175 10.1526 69.7294 10.6826 70.1534 11.0712C70.5773 11.4244 71.1073 11.6011 71.7785 11.6364C75.9118 11.7777 75.8765 9.44608 75.8765 8.98682V6.30192C75.9118 5.52471 75.6292 4.8888 74.9933 4.57085ZM65.6314 5.73664C66.0907 5.73664 66.444 5.87798 66.6913 6.1606C66.8326 6.37256 66.9386 6.61985 66.9386 6.90247H68.9523C68.8463 5.87797 68.493 5.13608 67.8924 4.78281C67.3272 4.35887 66.5146 4.21757 65.5608 4.21757C64.4303 4.21757 63.5471 4.53553 62.9112 5.24208C62.2753 5.94864 61.9574 6.90248 61.9574 8.10362C61.9574 9.23411 62.2047 10.082 62.8052 10.7532C63.3705 11.4244 64.289 11.7777 65.4901 11.7777C66.6913 11.7777 67.6098 11.3538 68.2457 10.5766C68.599 10.0466 68.8109 9.51671 68.8816 8.91613H66.8679C66.8326 9.26941 66.7266 9.5874 66.5146 9.83469C66.3027 10.0467 65.9847 10.188 65.4901 10.188C64.8542 10.188 64.3597 9.86999 64.183 9.26941C64.077 8.95146 63.971 8.52754 63.971 7.99762C63.971 7.46771 64.0064 6.97313 64.183 6.69051C64.501 6.05461 64.9249 5.73664 65.6314 5.73664ZM61.4274 4.14689C57.2234 4.14689 57.5061 7.8563 57.5061 7.8563V11.6011H59.4138V8.10362C59.4138 7.53838 59.4491 7.07913 59.6257 6.83183C59.873 6.37257 60.3676 6.08991 61.1448 6.08991H61.3568C61.4628 6.08991 61.5687 6.08995 61.6747 6.12528V4.21757H61.5334C61.4981 4.14691 61.4981 4.14689 61.4274 4.14689ZM51.9596 6.08991C52.2069 5.84262 52.5955 5.666 53.0901 5.666C53.514 5.666 53.9026 5.77198 54.2206 6.01928C54.5385 6.26657 54.6798 6.65516 54.6798 7.14975H51.4297C51.5357 6.72582 51.677 6.37254 51.9596 6.08991ZM54.5032 9.58737C54.4679 9.69336 54.3619 9.79936 54.2559 9.83469C54.0086 10.0467 53.62 10.082 53.1961 10.082C52.7721 10.082 52.4542 10.0467 52.1716 9.83469C51.7123 9.5874 51.4297 9.02213 51.4297 8.3509H56.6582C56.6582 7.715 56.6582 7.22041 56.6229 6.93779C56.5169 6.37255 56.3756 5.87797 56.0576 5.45404C55.7397 4.99478 55.3157 4.60618 54.8565 4.39421C54.3972 4.18224 53.7966 4.07625 53.1607 4.07625C52.1009 4.07625 51.2531 4.39421 50.6172 5.10076C49.9813 5.77199 49.5926 6.72583 49.5926 7.9623C49.5926 9.26943 49.9459 10.2586 50.7231 10.8238C51.465 11.3891 52.3129 11.7424 53.2667 11.7424C54.4326 11.7424 55.3511 11.3891 55.9516 10.6825C56.3049 10.3292 56.5169 9.94066 56.5876 9.55205L54.5032 9.58737ZM48.7801 11.5657H47.0137V7.22043C47.0137 6.7965 46.9077 5.91328 45.7419 5.91328C45 5.91328 44.4348 6.44322 44.4348 7.22043V11.5657H42.6684V7.22043C42.6684 6.7965 42.5624 5.91328 41.3966 5.91328C40.6547 5.91328 40.1248 6.44322 40.1248 7.22043V11.5657H38.3584V7.25575C38.3584 5.45403 39.5242 4.07625 41.3613 4.07625C42.2798 4.07625 43.0217 4.42954 43.5516 5.10076C44.0815 4.46486 44.8234 4.07625 45.7419 4.07625C47.6496 4.07625 48.7448 5.38338 48.7448 7.25575L48.7801 11.5657Z" fill="#FFFEFA"/>
<g id="Group 43721">
<path id="Subtract" fill-rule="evenodd" clip-rule="evenodd" d="M17.3883 0.888306C26.9761 0.888306 34.7411 5.99204 34.7411 12.2259V12.8821C34.7411 19.517 27.9968 24.8759 17.3883 24.8759C6.81632 24.8759 0.0356445 19.517 0.0356445 12.8821V12.2259C0.0356445 5.99204 7.80061 0.888306 17.3883 0.888306ZM17.4608 22.8709C26.6476 22.8709 34.1209 18.0953 34.1209 12.226C34.1209 6.35668 26.6476 1.58105 17.4608 1.58105C8.2741 1.58105 0.800781 6.35668 0.800781 12.226C0.800781 18.0953 8.2741 22.8709 17.4608 22.8709Z" fill="#FFFEFA"/>
<path id="Vector_3" d="M26.7205 13.356C25.08 11.9342 21.2886 8.6168 20.2314 7.85124C19.6481 7.41377 19.2472 7.15859 18.8826 7.08568C18.7368 7.04923 18.518 6.9763 18.2264 6.9763C17.9712 6.9763 17.6796 7.01276 17.3879 7.12213C16.7317 7.34086 16.0755 7.85124 15.4193 8.36162L15.3829 8.39806C14.7996 8.87198 14.1799 9.34591 13.706 9.45528C13.4872 9.49173 13.3049 9.52817 13.0862 9.52817C12.5758 9.52817 12.1019 9.38235 11.9197 9.16362C11.8832 9.12716 11.9196 9.05425 11.9925 8.98134L13.4508 7.41379C14.5809 6.28368 15.6381 5.22645 18.117 5.15354H18.2264C19.7575 5.15354 21.2886 5.84618 21.4709 5.91909C22.9291 6.61174 24.3873 6.9763 25.882 6.9763C27.4496 6.9763 29.0536 6.57531 30.7306 5.80975C30.5483 5.66393 30.3296 5.48163 30.1473 5.33581C28.6526 5.99201 27.2673 6.28364 25.882 6.28364C24.4967 6.28364 23.1114 5.95556 21.7626 5.29937C21.6897 5.26291 20.0127 4.46088 18.2264 4.46088H18.0806C16.0027 4.49733 14.8361 5.22645 14.0705 5.88264C13.305 5.88264 12.6488 6.10137 12.0655 6.24719C11.5551 6.39302 11.0812 6.50241 10.6437 6.50241H10.0969C9.58651 6.50241 7.03463 5.88266 5.02959 5.08064C4.81086 5.22646 4.6286 5.37227 4.40987 5.51809C6.52428 6.39302 9.11259 7.04922 9.91461 7.12213C10.1333 7.12213 10.3885 7.15858 10.6437 7.15858C11.1905 7.15858 11.7009 7.01278 12.2478 6.86696C12.5759 6.79405 12.9039 6.68466 13.232 6.61175L12.9404 6.90341L11.4822 8.50745C11.3728 8.61681 11.1176 8.94489 11.2634 9.30945C11.3363 9.45527 11.4822 9.60107 11.6644 9.74689C12.029 9.96562 12.6487 10.1479 13.232 10.1479C13.4508 10.1479 13.6695 10.1115 13.8518 10.075C14.4715 9.92918 15.1277 9.41883 15.7839 8.872C16.3307 8.43454 17.0963 7.88768 17.6796 7.70541C17.8618 7.66895 18.0441 7.63251 18.2264 7.63251H18.3722C18.7732 7.66897 19.1378 7.8148 19.8304 8.32517C21.0335 9.23655 26.3924 13.9028 26.4288 13.9392C26.4288 13.9392 26.7569 14.2309 26.7569 14.7413C26.7569 14.9965 26.5747 15.2517 26.3195 15.434C26.1008 15.5798 25.8456 15.6527 25.6268 15.6527C25.2623 15.6527 25.0071 15.4704 25.0071 15.4704C25.0071 15.4704 23.1479 13.7934 22.4917 13.2101C22.3823 13.1008 22.2729 13.0279 22.1636 13.0279C22.0907 13.0279 22.0542 13.0644 22.0177 13.1008C21.9084 13.2466 22.0178 13.4289 22.1636 13.5383L24.3144 15.6891C24.3144 15.6891 24.5696 15.9443 24.6061 16.2724C24.6061 16.6369 24.4603 16.9286 24.0957 17.1473C23.8405 17.3296 23.5853 17.4025 23.3301 17.4025C23.002 17.4025 22.7833 17.2567 22.7104 17.2202L22.3823 16.9286C21.8355 16.3818 21.2522 15.7985 20.8147 15.4704C20.7054 15.3975 20.596 15.2881 20.4866 15.2881C20.4502 15.2881 20.3773 15.2881 20.3408 15.361C20.3044 15.3975 20.2679 15.5068 20.3773 15.6891C20.4137 15.762 20.4866 15.7985 20.4866 15.7985L22.0542 17.5483C22.0542 17.5483 22.3823 17.9493 22.0907 18.2774L22.0177 18.3504L21.8719 18.4962C21.6167 18.7149 21.2522 18.7514 21.1064 18.7514H20.8876C20.7418 18.7149 20.6324 18.6785 20.5595 18.6055C20.4866 18.4962 19.6846 17.7306 19.0284 17.1838C18.9555 17.1109 18.8461 17.0379 18.7368 17.0379C18.7003 17.0379 18.6274 17.0744 18.5909 17.1109C18.4816 17.2567 18.6639 17.4754 18.7368 17.5483L20.0856 19.0065C20.0856 19.0065 20.0856 19.043 20.0492 19.1159C20.0127 19.1888 19.8305 19.3346 19.3565 19.4075H19.1743C18.6639 19.4075 18.1535 19.1524 17.8618 19.0065C17.9712 18.7514 18.0441 18.4597 18.0441 18.1681C18.0441 17.0744 17.1692 16.1995 16.0756 16.1995H16.0026C16.0391 15.6891 15.9662 14.7413 14.9819 14.3403C14.6903 14.2309 14.4351 14.158 14.1434 14.158C13.9247 14.158 13.7424 14.1944 13.5237 14.2674C13.305 13.8663 12.9768 13.5747 12.5394 13.4289C12.2842 13.356 12.0655 13.3195 11.8103 13.3195C11.4093 13.3195 11.0447 13.4289 10.7166 13.6841C10.5582 13.4891 10.3581 13.3321 10.1309 13.2249C9.90377 13.1176 9.65543 13.0628 9.40423 13.0644C8.96676 13.0644 8.52932 13.2466 8.23768 13.5383C7.83667 13.2102 6.19615 12.1894 1.78506 11.1687C1.56633 11.1322 1.09243 10.9864 0.80079 10.877C0.764335 11.0958 0.727862 11.351 0.691406 11.6061C0.691406 11.6061 1.49345 11.7884 1.67573 11.8249C6.15973 12.8092 7.65438 13.8664 7.90957 14.0486C7.83666 14.2674 7.80019 14.4861 7.80019 14.7048C7.80019 15.6527 8.56574 16.3818 9.47712 16.3818C9.58649 16.3818 9.69586 16.3818 9.80523 16.3453C9.95105 17.038 10.3885 17.5484 11.0812 17.8035C11.2999 17.8765 11.4822 17.9129 11.6644 17.9129C11.7738 17.9129 11.9197 17.9129 12.0655 17.8764C12.1748 18.2045 12.4665 18.6055 13.1226 18.8607C13.3414 18.9701 13.5601 19.0065 13.7789 19.0065C13.9611 19.0065 14.1434 18.9701 14.2892 18.8972C14.5809 19.6263 15.31 20.1366 16.112 20.1366C16.6588 20.1366 17.1692 19.9179 17.5338 19.5169C17.8619 19.6992 18.5181 20.0273 19.2107 20.0273H19.4659C20.1585 19.9544 20.4502 19.6628 20.596 19.4805C20.6324 19.444 20.6325 19.4076 20.6689 19.3711C20.8147 19.4076 20.997 19.444 21.2157 19.444C21.5803 19.444 21.9449 19.3346 22.3094 19.043C22.674 18.7878 22.9291 18.4233 22.9291 18.0952C23.0385 18.1316 23.1843 18.1316 23.2937 18.1316C23.6582 18.1316 24.0592 18.0222 24.4238 17.7671C25.1164 17.3296 25.2258 16.7099 25.2258 16.3453C25.3352 16.3818 25.481 16.3818 25.5904 16.3818C25.9549 16.3818 26.3195 16.2724 26.6476 16.0537C27.0851 15.762 27.3402 15.361 27.3767 14.8871C27.4132 14.559 27.3038 14.2309 27.1579 13.9392C28.3245 13.4289 30.9493 12.481 34.0844 11.7519C34.0844 11.4967 34.048 11.278 33.9751 11.0228C30.2202 11.8248 27.4131 13.0279 26.7205 13.356ZM16.1849 19.444C15.4558 19.444 14.8725 18.8607 14.8361 18.1316C14.8361 18.0587 14.8361 17.9129 14.6902 17.9129C14.6173 17.9129 14.5809 17.9494 14.508 17.9858C14.3621 18.1316 14.1434 18.2774 13.8518 18.2774C13.7059 18.2774 13.5601 18.241 13.4143 18.1681C12.6487 17.84 12.6123 17.3296 12.6488 17.1109C12.6488 17.038 12.6488 17.0015 12.6123 16.9651L12.5758 16.9286H12.5394C12.5029 16.9286 12.4665 16.9286 12.3935 17.0015C12.1748 17.1473 11.9561 17.2202 11.7374 17.2202C11.628 17.2202 11.4822 17.1838 11.3728 17.1473C10.3521 16.7463 10.425 15.7985 10.4979 15.5068C10.4979 15.4339 10.4979 15.3975 10.4614 15.361L10.3885 15.2881L10.3156 15.361C10.0969 15.5433 9.84169 15.6527 9.5865 15.6527C9.00322 15.6527 8.52929 15.1787 8.52929 14.5955C8.52929 14.0122 9.00322 13.5383 9.5865 13.5383C10.0969 13.5383 10.5708 13.9393 10.6437 14.4496L10.6802 14.7413L10.826 14.4861C10.826 14.4496 11.2635 13.7935 12.0655 13.8299C12.2113 13.8299 12.3571 13.8663 12.5394 13.9028C13.1591 14.0851 13.2685 14.6684 13.2685 14.8871C13.2685 15.0329 13.3779 15.0329 13.3779 15.0329C13.4143 15.0329 13.4872 14.9965 13.4872 14.96C13.5966 14.8506 13.8518 14.6319 14.2528 14.6319C14.4351 14.6319 14.6173 14.6684 14.8361 14.7777C15.8204 15.2152 15.3829 16.4547 15.3829 16.4911C15.31 16.7099 15.2735 16.7828 15.3829 16.8557H15.4558C15.4922 16.8557 15.5652 16.8557 15.6381 16.8192C15.7839 16.7828 15.9662 16.7099 16.1485 16.7099C16.8776 16.7099 17.4973 17.3296 17.4973 18.0587C17.5337 18.8607 16.914 19.444 16.1849 19.444Z" fill="#FFFEFA"/>
</g>
</g>
</g>
</svg>
