<svg width="64" height="64" viewBox="0 0 64 64" fill="none" xmlns="http://www.w3.org/2000/svg">
<circle cx="32" cy="32" r="32" fill="#E0244F"/>
<g clip-path="url(#clip0_1914_77756)">
<path fill-rule="evenodd" clip-rule="evenodd" d="M35.4628 13.0001C35.2026 13.0054 34.945 13.0527 34.6998 13.14C35.1537 13.4341 35.4805 13.888 35.6154 14.4117C35.6154 14.4803 35.646 14.5312 35.6561 14.5999C35.6681 14.6585 35.6749 14.7181 35.6765 14.7779C35.7146 15.6426 35.4476 15.752 35.2619 16.2658C35.1264 16.5763 35.0682 16.915 35.0921 17.2529C35.116 17.5909 35.2214 17.918 35.3993 18.2063C35.4312 18.2825 35.4713 18.355 35.5188 18.4225C35.1424 15.93 37.2228 15.5562 37.6069 14.7779C37.6348 14.0963 37.0753 13.6436 36.6302 13.3282C36.2803 13.1098 35.8753 12.996 35.4628 13.0001V13.0001ZM38.5962 13.5622C38.5784 13.6569 38.5716 13.7533 38.5759 13.8496C38.5759 13.9284 38.5759 14.0251 38.5581 14.1039C38.539 14.1841 38.5152 14.2631 38.4869 14.3404C38.4663 14.4211 38.44 14.5001 38.408 14.577L38.3012 14.8033C38.2707 14.844 38.2503 14.8822 38.2224 14.9229C38.1944 14.9636 38.1817 14.9814 38.1639 15.0119C38.113 15.0806 38.0647 15.1492 38.0138 15.2077C37.9599 15.2714 37.9012 15.3309 37.8383 15.3858C37.7798 15.4341 37.7188 15.4926 37.6501 15.5434C37.4441 15.7011 37.2076 15.8181 36.9914 15.9656C36.9217 16.0099 36.8554 16.0592 36.793 16.1132C36.7272 16.1609 36.6651 16.2136 36.6073 16.2708C36.5428 16.3285 36.4833 16.3914 36.4293 16.459C36.3738 16.5193 36.3243 16.5849 36.2818 16.6549C36.2309 16.7261 36.1826 16.7948 36.1419 16.8634L36.0351 17.0898C36.0043 17.1636 35.978 17.2392 35.9562 17.3162C35.9257 17.4052 35.9079 17.484 35.8876 17.5705C35.8876 17.6086 35.8876 17.6595 35.8672 17.6977C35.8469 17.7358 35.8672 17.7765 35.8469 17.8172V18.0715C35.8418 18.1299 35.8418 18.1886 35.8469 18.247C35.847 18.3327 35.8573 18.4181 35.8774 18.5013C35.8774 18.5802 35.9079 18.659 35.9257 18.7379C35.9435 18.8167 35.9766 18.8956 36.0046 18.9744C36.0325 19.0532 36.0554 19.0736 36.0732 19.1117L33.8071 18.2368C33.4231 18.1275 33.0441 18.0283 32.6652 17.9393L32.0446 17.7918C31.4545 17.6748 30.8518 17.5857 30.2643 17.5374H30.2159C29.6295 17.4773 29.0404 17.4476 28.4509 17.4484C28.0185 17.4484 27.5836 17.4688 27.1614 17.4967C26.5586 17.5374 25.9584 17.6163 25.3582 17.7129C25.2106 17.7333 25.0631 17.7638 24.9156 17.7918C24.6079 17.8528 24.3128 17.9215 24.028 17.9901L23.5854 18.1071C23.4354 18.1682 23.2981 18.2368 23.1607 18.2953L22.8352 18.4428C22.8148 18.4428 22.797 18.4428 22.7868 18.4632C22.6877 18.5115 22.5986 18.5522 22.5096 18.6005L22.4409 18.6311C22.3341 18.6794 22.2248 18.7379 22.1357 18.7887C22.0467 18.8396 21.9984 18.8574 21.9399 18.8854C21.9112 18.904 21.8815 18.921 21.8509 18.9363C21.7619 18.9846 21.6729 19.0354 21.5966 19.0838C21.5149 19.1283 21.436 19.1776 21.36 19.2313C21.2914 19.2796 21.2227 19.3203 21.1642 19.3686C21.1642 19.3686 21.1438 19.3686 21.1337 19.389C21.0752 19.4271 21.0065 19.478 20.9455 19.5263L20.9277 19.5467L20.7801 19.6637C20.7598 19.6637 20.7395 19.6942 20.7191 19.7043C20.6988 19.7145 20.6225 19.7934 20.5716 19.8315C20.5615 19.8473 20.5486 19.8611 20.5334 19.8722C20.4724 19.9307 20.4139 19.979 20.3554 20.0401L20.3351 20.0579C20.2766 20.1087 20.2181 20.1672 20.157 20.2257C20.157 20.2257 20.157 20.2461 20.1392 20.2461C20.0869 20.2956 20.0376 20.3482 19.9917 20.4038C19.9714 20.4241 19.9408 20.4419 19.923 20.4623C19.8722 20.5208 19.8137 20.5818 19.7552 20.6403C19.7552 20.6606 19.7247 20.6708 19.7145 20.6886C19.6356 20.7675 19.567 20.8463 19.4881 20.9251L19.4576 20.9557C19.2983 21.1272 19.1284 21.2886 18.9489 21.4389C18.7708 21.5802 18.5839 21.7102 18.3894 21.828C18.191 21.9654 18.0054 22.0824 17.7994 22.2019C17.5977 22.3132 17.3896 22.4126 17.1762 22.4995C16.9702 22.5859 16.754 22.6648 16.5379 22.736C16.1421 22.8517 15.7405 22.9468 15.3349 23.0209C15.2495 23.0257 15.1646 23.0359 15.0805 23.0514C14.9915 23.0692 14.9127 23.0895 14.8262 23.1099L14.5897 23.1989C14.509 23.2302 14.43 23.2659 14.3531 23.3057C14.2845 23.3566 14.2056 23.3947 14.1369 23.443C14.0677 23.4942 14.0022 23.5503 13.9411 23.6109C13.8714 23.6662 13.8052 23.7256 13.7427 23.7889C13.6842 23.8576 13.6257 23.9161 13.5749 23.9873C13.524 24.0585 13.4681 24.1348 13.4274 24.2137C13.3766 24.286 13.3307 24.3616 13.29 24.44C13.2519 24.5291 13.2112 24.6079 13.1807 24.6944C13.1501 24.7808 13.1222 24.8622 13.0942 24.9487C13.0724 25.0264 13.0554 25.1054 13.0433 25.1852V25.2158C13.0255 25.3048 13.0255 25.4218 13.0153 25.4701C13.0035 25.5356 12.9967 25.6019 12.995 25.6685C12.99 25.7107 12.99 25.7534 12.995 25.7956C13.003 25.8592 13.0158 25.9221 13.0331 25.9838C13.0535 26.0423 13.0738 26.1008 13.1018 26.1619C13.1349 26.2232 13.1714 26.2827 13.2112 26.3399C13.2519 26.3984 13.29 26.4594 13.3383 26.5179C13.3867 26.5764 13.4477 26.6248 13.5062 26.6756C13.5654 26.7323 13.6283 26.7849 13.6944 26.8333C13.87 27.0087 14.0727 27.1547 14.2946 27.2657C14.3455 27.2962 14.3938 27.3166 14.4523 27.3445H14.4828C14.4778 27.3602 14.4778 27.3771 14.4828 27.3929C14.4941 27.4726 14.5102 27.5516 14.5312 27.6294C14.5497 27.7106 14.5761 27.7898 14.61 27.8659C14.6405 27.927 14.6583 27.9854 14.6889 28.0439C14.6967 28.0622 14.707 28.0793 14.7194 28.0948C14.7575 28.1737 14.7982 28.2423 14.8364 28.311L14.9839 28.517C15.0347 28.5755 15.0932 28.6442 15.1517 28.7052C15.2102 28.7663 15.2713 28.812 15.3399 28.8731C15.3458 28.8745 15.3519 28.8745 15.3578 28.8731C15.4188 28.9239 15.4773 28.9723 15.5358 29.013C15.6042 29.0613 15.6765 29.1038 15.752 29.1401C15.8255 29.1822 15.902 29.2187 15.9809 29.2495C16.0443 29.2773 16.1098 29.3003 16.1767 29.3182C16.1767 29.3182 16.1971 29.3182 16.2149 29.3385L16.3446 29.3665C16.2941 29.7704 16.307 30.1797 16.3827 30.5797C16.4717 30.7755 16.9066 30.1753 17.339 29.486C17.2805 30.1651 17.2398 30.9637 17.339 31.2002C17.4382 31.4368 18.0384 30.6763 18.5522 29.8294C20.1427 29.4427 21.7979 29.4036 23.4049 29.7145C25.0119 30.0255 26.533 30.6793 27.8644 31.6313C29.1959 32.5833 30.3065 33.8112 31.1205 35.2313C31.9344 36.6513 32.4327 38.2302 32.5812 39.8603C32.4515 38.7946 31.1417 38.2046 30.5466 38.3521C30.2515 39.082 29.748 40.018 28.9417 40.5979C29.0114 39.9397 28.978 39.2746 28.8425 38.6268C28.6347 39.5493 28.2237 40.4138 27.6395 41.1574C27.1884 41.1882 26.7366 41.107 26.3244 40.9211C25.9122 40.7352 25.5523 40.4503 25.2768 40.0917C25.2361 40.0638 25.2259 40.0027 25.1979 39.9646C25.1672 39.8977 25.1409 39.8289 25.1191 39.7586C25.0894 39.6923 25.0697 39.622 25.0606 39.55C25.0553 39.478 25.0553 39.4058 25.0606 39.3338V39.1863C25.0719 39.1166 25.088 39.0477 25.1089 38.9803C25.128 38.9096 25.1509 38.8399 25.1776 38.7717C25.2136 38.7009 25.2535 38.6321 25.2971 38.5657C25.4624 38.0927 25.4624 37.7086 25.1572 37.4823C25.0987 37.4432 25.0366 37.41 24.9716 37.3831C24.9309 37.3831 24.8826 37.3526 24.8419 37.3449L24.763 37.3144C24.6959 37.2923 24.627 37.2761 24.557 37.2661C24.4902 37.246 24.4208 37.2357 24.351 37.2356C24.2795 37.2238 24.2073 37.217 24.1348 37.2152H23.9848C23.9116 37.2146 23.8387 37.2249 23.7686 37.2457C23.6991 37.2535 23.6302 37.2663 23.5626 37.2839C23.4939 37.3042 23.4252 37.3246 23.354 37.3526C23.2828 37.3805 23.2268 37.4136 23.1582 37.4416C23.0895 37.4696 23.0412 37.5102 22.97 37.5408C20.681 39.0388 22.0442 42.5461 23.6109 43.5608C23.0208 43.6677 22.4181 43.7974 22.2527 43.9245L22.2324 43.9449C22.6569 44.2008 23.1018 44.4211 23.5626 44.6036C24.1933 44.8122 24.8622 44.9978 25.1572 45.0767C25.9742 45.244 26.8096 45.3039 27.6421 45.2547C29.7661 45.0978 31.7734 44.2221 33.3332 42.7718C34.893 41.3216 35.9124 39.3833 36.2233 37.2763C36.2411 37.3653 36.2614 37.4441 36.2818 37.5306C36.3098 37.7086 36.3505 37.8943 36.3708 38.0825C36.3886 38.1715 36.3988 38.2605 36.409 38.3368V38.375C36.4203 38.4593 36.4271 38.5442 36.4293 38.6293C36.4293 38.7361 36.4497 38.8455 36.4497 38.9549V39.7916C36.4544 39.8339 36.4544 39.8765 36.4497 39.9188V40.1375C36.4444 40.167 36.4444 40.1971 36.4497 40.2265C36.4497 40.3054 36.4293 40.374 36.4191 40.4529C36.4228 40.4824 36.4228 40.5123 36.4191 40.5419C36.4191 40.6386 36.3886 40.7276 36.3784 40.8268V40.8471C36.3581 40.9336 36.3403 41.0328 36.3199 41.1218V41.1574C36.2996 41.2464 36.2793 41.3329 36.2614 41.4117V41.4524C36.2411 41.5414 36.2208 41.6305 36.1928 41.7068V41.7373C36.1623 41.8365 36.1317 41.9255 36.1139 42.012C36.1116 42.0185 36.1116 42.0257 36.1139 42.0323L36.0249 42.3273C35.9842 42.4265 35.9562 42.5155 35.9156 42.6147C35.8749 42.7139 35.8469 42.8106 35.8087 42.8996L35.6892 43.1844C35.651 43.2734 35.6104 43.3726 35.562 43.4617C35.5538 43.4853 35.5436 43.5083 35.5315 43.5303C35.5315 43.5303 35.5315 43.5507 35.5137 43.5608C34.8617 44.8643 33.913 45.9968 32.744 46.8672C32.6652 46.918 32.5863 46.9765 32.5075 47.035C32.4871 47.0554 32.4592 47.0656 32.4388 47.0834C32.3701 47.1342 32.3015 47.1826 32.2226 47.2334L32.2506 47.2919L32.6652 47.2334C32.9195 47.1927 33.1738 47.1444 33.4282 47.0935C33.5012 47.0823 33.5735 47.0662 33.6444 47.0452L33.7817 47.0147C33.8529 47.0147 33.9216 46.9867 33.9902 46.9765C34.0589 46.9664 34.1072 46.946 34.1657 46.9257C35.1425 46.6888 36.0986 46.3732 37.0244 45.9821C35.4405 48.1384 33.335 49.8572 30.9052 50.9772C32.0425 50.9019 33.1686 50.7066 34.2649 50.3948C38.1985 49.2245 41.5195 46.5643 43.5201 42.981C43.1142 45.2622 42.2093 47.4256 40.87 49.3164C41.8249 48.687 42.7069 47.9534 43.4998 47.1291C45.7052 44.8265 47.1528 41.9037 47.648 38.7539C47.984 40.3139 48.08 41.916 47.9328 43.5049C55.0542 33.5859 48.5254 23.2981 45.7964 20.5869C45.7851 20.5731 45.778 20.5563 45.7761 20.5386C45.7761 20.6556 45.7761 20.7751 45.7583 20.8921C45.7278 21.1184 45.6972 21.3372 45.6591 21.5533C45.6209 21.7695 45.5497 21.9857 45.4912 22.2044C45.4327 22.4232 45.3437 22.6266 45.2547 22.8326C45.1657 23.0387 45.0665 23.237 44.9597 23.4354C44.8528 23.6338 44.7333 23.8195 44.6036 23.9975C44.4739 24.1755 44.3493 24.3612 44.1992 24.5291C44.0491 24.6969 43.894 24.8622 43.7363 25.0199C43.6397 25.1089 43.5507 25.1878 43.4515 25.2743L43.2251 25.4726C43.0484 25.6107 42.8641 25.7389 42.6732 25.8567C42.485 25.9737 42.2892 26.0932 42.0908 26.1924C41.8924 26.2916 41.6788 26.3781 41.4702 26.4671C41.261 26.5464 41.0479 26.6152 40.8318 26.6731C40.6131 26.7341 40.3867 26.7825 40.1706 26.8206C39.9544 26.8588 39.7178 26.8816 39.5017 26.8994C39.344 26.8994 39.1863 26.9198 39.0286 26.9198C38.8022 26.9198 38.5759 26.8994 38.3572 26.8816C38.1261 26.8613 37.8967 26.8256 37.6705 26.7748C37.4467 26.733 37.2258 26.6769 37.0092 26.607C37.2279 26.5866 37.4441 26.5688 37.6603 26.5281C37.8765 26.4874 38.1028 26.4391 38.3216 26.3806C38.5377 26.3227 38.7507 26.2539 38.9599 26.1746C39.1695 26.0942 39.3741 26.0016 39.5729 25.8974C39.7789 25.7982 39.9645 25.6914 40.1629 25.5718C40.3613 25.4523 40.5368 25.3175 40.7148 25.1776C40.8938 25.0413 41.0637 24.8934 41.2235 24.7351C41.3882 24.5835 41.5436 24.4221 41.6889 24.2518C41.8364 24.0763 41.9738 23.8983 42.101 23.7203C42.1213 23.6898 42.1416 23.6516 42.1594 23.6211C42.2586 23.4634 42.3578 23.3057 42.4468 23.148C42.5359 22.9903 42.6529 22.7538 42.7419 22.5478C42.8313 22.3417 42.9102 22.1311 42.9784 21.917C43.0471 21.711 43.0954 21.4949 43.1463 21.2761C43.1971 21.0574 43.2251 20.8336 43.2455 20.6174C43.2658 20.4012 43.2836 20.1647 43.2836 19.946C43.2836 19.7883 43.2836 19.6306 43.2633 19.4754C43.2455 19.2465 43.2149 19.0304 43.1844 18.8142C43.1539 18.598 43.0954 18.3716 43.0369 18.1529C42.9784 17.9342 42.8996 17.7307 42.8207 17.5222C42.7419 17.3136 42.6427 17.1101 42.546 16.9118C42.4494 16.7134 42.3273 16.5175 42.2103 16.3319C42.0933 16.1462 41.956 15.9656 41.8161 15.7901C41.6762 15.6147 41.5211 15.4544 41.3634 15.2815L41.109 15.0271C40.6679 14.6851 40.2113 14.3634 39.7407 14.0632C39.6764 14.0266 39.6102 13.9935 39.5424 13.964C39.2499 13.7855 38.9352 13.6461 38.6064 13.5495L38.5962 13.5622Z" fill="white"/>
</g>
<defs>
<clipPath id="clip0_1914_77756">
<rect width="38.1501" height="38" fill="white" transform="translate(13 13)"/>
</clipPath>
</defs>
</svg>
