<svg width="107" height="33" viewBox="0 0 107 33" fill="none" xmlns="http://www.w3.org/2000/svg">
<g id="news-corp">
<g id="Newscorp">
<g id="g2993">
<g id="g3011">
<g id="g3013">
<g id="g3019">
<g id="g3021">
<g id="g3027">
<path id="path3029" d="M70.0296 21.6694C69.7267 21.6694 69.6064 21.32 69.9514 20.9225C71.0546 20.1375 71.4885 19.8953 71.548 19.8656C72.2591 19.8656 70.8971 21.6694 70.0296 21.6694ZM106.248 17.7254C106.184 17.672 106.121 17.6301 106.058 17.594C106.043 17.583 106.03 17.572 106.013 17.5611C105.459 17.2044 104.854 17.3631 104.854 17.3631C104.854 17.3631 104.968 17.5703 104.405 18.0304C104.37 18.0588 104.345 18.0838 104.324 18.107C104.307 18.1202 104.292 18.1334 104.275 18.1466C102.227 19.8165 99.495 21.141 96.647 21.6996C97.5684 21.1579 99.7503 19.0943 98.2342 17.9813C97.3502 17.3321 95.7832 17.6172 94.3044 18.3603C94.4758 18.0838 94.8825 17.4945 94.7186 16.7865C94.5547 16.0785 93.2003 15.8732 92.4485 16.1406C92.4234 16.8725 92.3066 17.262 92.179 17.4229C88.863 20.342 84.5241 21.8926 84.1689 21.5378C83.8799 21.249 84.8506 20.1113 85.1729 19.6571C85.4417 19.2781 85.4489 18.8172 85.2581 18.4698C84.9602 17.9272 84.403 17.8952 83.3746 18.1202C81.9526 18.3626 80.9435 17.8536 80.0939 16.5585C79.677 15.9234 78.6635 16.0508 78.1421 16.3984C78.2719 16.8087 78.2368 17.2236 78.1137 17.6436C77.241 19.6671 74.6069 19.6811 73.6106 18.9943C73.4687 18.5708 73.0948 17.7883 72.3428 17.6735C70.0176 17.3182 69.2186 18.7446 68.8375 19.1793C68.0116 20.1222 62.4205 22.5695 61.1135 21.5073C60.1516 20.726 60.9604 17.8828 62.7961 15.0353C65.5178 10.7366 66.751 10.787 67.1861 11.2219C67.4549 11.4908 67.7184 12.0868 67.1712 13.1405C67.1316 13.2165 67.0927 13.2874 67.0538 13.3569C66.1136 14.9001 65.7474 14.8216 65.7474 14.8216C65.4403 15.7485 65.8331 16.254 66.1238 16.4865C66.4381 16.7962 66.8897 16.6905 67.0277 16.6431C67.4887 16.4847 67.7742 16.0807 68.0385 15.6707C69.3541 13.63 70.1746 10.386 68.019 9.2129C66.476 8.37322 63.8783 9.50718 61.0039 14.1644C58.4509 18.3012 57.7288 21.559 59.5697 23.1029C61.8107 24.982 66.5206 22.5026 68.0698 21.7851C68.0268 22.0986 68.1483 23.67 69.7048 23.5817C71.6967 23.4647 72.9291 21.748 73.4587 20.8719C74.2348 21.3215 77.6355 21.9662 79.6986 18.8676C79.9206 19.0556 81.163 19.9589 82.8191 19.9589C82.2333 21.031 81.4798 22.3171 82.5937 23.1992C84.1557 24.4354 89.5076 21.4584 91.0666 20.541C90.1809 22.1527 88.6399 25.7977 87.0846 29.03C86.4445 30.3607 85.552 32.1496 86.4915 32.6252C87.2216 32.9945 88.3173 32.6132 88.4827 31.6555C88.6986 30.4029 89.9084 26.909 90.7667 25.0179C92.398 21.3906 93.8648 19.5117 96.3417 19.5117C96.188 19.8075 96.1416 20.0399 95.3184 20.8622C94.421 21.7592 93.4184 21.7078 93.4695 22.6754C93.4994 23.2455 94.0837 23.4059 94.2464 23.45C95.5384 23.7984 99.1152 22.7363 100.536 22.2168C102.17 21.6196 104.392 20.5275 106.036 19.4796C106.812 18.9848 106.885 18.2643 106.248 17.7254ZM50.4111 14.0816C49.0357 14.1834 47.3713 14.64 46.7543 16.0211C46.2435 17.1633 46.646 18.3671 47.7178 19.719C48.4052 20.5579 49.0342 21.2727 49.213 21.4672C48.7186 21.5714 47.6416 21.5338 46.5603 21.336C46.5563 21.3353 46.5513 21.3345 46.5469 21.3335C46.3 21.2879 46.0537 21.2333 45.8136 21.1709C45.2031 20.9781 45.0354 20.7322 45.0354 20.7322L44.9463 20.7976C44.9463 20.7951 44.9463 20.7936 44.9463 20.7936L45.0354 20.7322C44.6222 20.7891 44.2787 21.0764 44.0351 21.3934C43.7915 21.7103 43.541 22.3236 43.7534 22.6181C43.9345 22.869 44.2939 23.0066 44.9782 23.0298C46.0357 23.0797 48.8852 23.4565 49.9383 23.5742C50.7513 23.6653 51.2981 23.0757 51.4577 22.6874C51.6732 22.1702 51.4512 21.5998 51.1782 21.2846C49.8262 19.7227 47.9325 18.0167 48.6197 16.5905C48.9345 15.9368 50.4557 16.0685 50.9578 16.2176C52.0294 16.5366 52.5611 16.1485 52.8047 15.4306C52.9617 14.969 52.6814 13.9138 50.4111 14.0816ZM22.5455 15.8795C22.7378 16.0717 22.3273 16.5049 21.9659 16.7398C20.9743 17.3835 19.9758 17.7566 19.2634 18.0202C20.0365 16.4368 22.275 15.5031 22.5455 15.8795ZM45.5216 19.3357C46.0621 19.0332 46.2783 18.407 45.8459 17.8885C45.4135 17.3703 44.5585 17.4134 44.1769 17.6441C43.8578 17.8366 43.4874 18.1691 42.3867 18.2259C41.3506 18.2793 40.9341 17.8346 40.2795 17.8346C39.5475 17.8346 39.2521 18.3484 38.3459 19.4773C37.8841 20.0522 36.8462 21.3742 36.3714 21.3742C35.9689 21.3742 35.8155 20.2158 35.8155 18.7092C35.8155 18.0247 35.5139 17.4695 34.7347 17.5214C34.0861 17.5646 33.978 18.407 33.639 18.8025C32.6235 19.9853 31.8073 21.1415 31.3926 21.1415C30.8815 21.1415 30.6845 20.0242 30.6845 19.1629C30.6845 19.1629 30.8436 17.8022 29.6114 17.5646C29.0757 17.4616 28.5187 17.7586 28.5187 17.7586C28.5695 17.8616 28.5847 17.9678 28.5748 18.074C28.4186 18.6446 27.3475 19.4591 27.3475 19.4591H27.3478C26.202 20.2991 23.9142 21.7754 21.8511 21.8849C19.441 22.0128 19.0191 20.7465 18.9349 20.1933C21.0119 19.4309 22.3968 18.5613 23.2925 17.8671C24.2433 17.1304 24.8709 16.3141 24.8156 15.5151C24.7404 14.4335 23.7588 14.0425 22.9804 14.0425C21.3051 14.0425 18.5244 14.7647 17.1871 18.4374C16.8994 18.5302 16.2169 18.5347 15.853 18.4401C15.3678 18.3137 15.3755 18.1062 15.3755 18.1062C14.9212 18.2234 14.7252 18.4456 14.5655 18.8392C14.3097 19.4689 14.6477 20.0113 15.167 20.2998C15.5429 20.5088 16.1375 20.6412 16.9769 20.5425C17.0949 21.6557 17.8342 23.6867 21.7801 23.5333C24.914 23.4116 28.5825 20.8342 28.9118 20.6327C29.051 21.2759 29.4934 23.5827 30.8257 23.5827C32.426 23.5827 34.0672 21.1948 34.0672 21.1948C34.0672 21.1948 34.4847 23.5984 36.093 23.5984C37.4345 23.5984 39.1183 21.5101 39.5382 21.0128C39.8877 20.5988 40.5662 19.8033 40.9371 19.8033C41.3 19.7417 42.0191 20.2227 44.08 19.8115C44.1263 19.8023 45.0576 19.5953 45.5216 19.3357ZM19.9745 7.74353C20.1187 7.36247 19.9937 6.89886 19.7573 6.72155C18.972 6.13275 18.2594 6.46144 17.7266 7.04475C17.1016 7.72931 16.2899 9.2139 15.9464 9.76853C12.7911 14.8655 10.3857 20.3125 10.3857 20.3125C10.3857 20.3125 9.55053 17.776 9.43496 15.7608C9.32586 13.8607 9.23919 12.0469 9.15774 11.1586C9.13134 10.803 8.98114 10.2466 8.35919 10.0429C7.87971 9.88599 7.18079 9.82464 6.69085 10.0059C6.65149 10.6125 6.62559 10.9057 6.37278 11.623C6.12046 12.3397 4.49372 15.5034 4.21724 15.9954C2.80247 18.5137 0.936362 21.6457 0.827763 21.8475C0.446671 22.5527 -0.0816309 23.5141 0.824023 23.854C1.72943 24.194 2.52325 24.0126 2.9143 23.4336C2.98977 23.3221 3.09339 23.1136 3.09339 23.1136C3.09339 23.1136 2.83061 22.8974 3.39403 21.5831C3.56141 21.236 3.76117 20.8312 3.9846 20.3851C4.02794 20.3058 4.07302 20.2242 4.11985 20.1404C4.18735 20.02 4.23468 19.9145 4.27079 19.8172C5.19986 17.9833 6.43728 15.6189 7.54145 13.5452C7.53299 14.7522 7.63436 16.2456 7.79975 17.3304C8.05182 19.4462 8.57065 20.3387 8.76394 22.0263C8.72533 23.1665 8.83817 23.3632 9.66959 23.5927C10.447 23.8072 10.9 23.5922 11.192 22.8742C12.3148 20.0409 15.5426 13.5332 18.2843 10.0025C18.571 9.63312 19.6599 8.57298 19.9745 7.74353Z" fill="#FFFEFA"/>
</g>
</g>
</g>
</g>
</g>
</g>
</g>
</g>
</svg>
