<svg width="64" height="64" viewBox="0 0 64 64" fill="none" xmlns="http://www.w3.org/2000/svg">
<circle cx="32" cy="32" r="32" fill="#F1F3F7"/>
<path d="M32 15.0833C31.55 15.0833 31.0833 15.1999 30.7 15.4166L18.3 22.5833C17.5 23.0499 17 23.9166 17 24.8499V39.1499C17 40.0833 17.5 40.9499 18.3 41.4166L21.55 43.2833C23.1333 44.0499 23.6667 44.0666 24.4 44.0666C26.7333 44.0666 28.0833 42.6499 28.0833 40.1833V26.0666C28.0833 25.8666 27.9167 25.6999 27.7167 25.6999H26.1667C25.95 25.6999 25.7833 25.8666 25.7833 26.0666V40.1833C25.7833 41.2833 24.65 42.3666 22.8333 41.4499L19.4167 39.4999C19.3606 39.4603 19.3147 39.4079 19.2828 39.347C19.2509 39.2862 19.234 39.2186 19.2333 39.1499V24.8499C19.2333 24.6999 19.3 24.5666 19.4167 24.4999L31.8167 17.3499C31.9167 17.2833 32.0833 17.2833 32.1833 17.3499L44.5833 24.4999C44.7 24.5666 44.7667 24.6999 44.7667 24.8499V39.1499C44.7667 39.2833 44.7 39.4166 44.5833 39.4999L32.1833 46.6499C32.0833 46.7166 31.9167 46.7166 31.8 46.6499L28.6667 44.7499C28.5333 44.6999 28.4 44.6832 28.3167 44.7332C27.4333 45.2332 27.2667 45.3332 26.45 45.5832C26.25 45.6499 25.9333 45.7666 26.5667 46.1166L30.7 48.5666C31.1 48.7999 31.5333 48.9166 32 48.9166C32.4667 48.9166 32.9 48.7999 33.3 48.5666L45.7 41.4166C46.5 40.9499 47 40.0833 47 39.1499V24.8499C47 23.9166 46.5 23.0499 45.7 22.5833L33.3 15.4166C32.9167 15.1999 32.4667 15.0833 32 15.0833M35.3333 25.3333C31.8 25.3333 29.6833 26.8166 29.6833 29.3166C29.6833 31.9999 31.7833 32.7833 35.1833 33.1166C39.2333 33.5166 39.55 34.1166 39.55 34.9166C39.55 36.2999 38.4333 36.8833 35.8333 36.8833C32.5333 36.8833 31.8333 36.0666 31.5833 34.4333C31.5658 34.3488 31.5198 34.273 31.4531 34.2184C31.3863 34.1638 31.3029 34.1337 31.2167 34.1333H29.6167C29.4167 34.1333 29.2667 34.2833 29.2667 34.4999C29.2667 36.5666 30.4 39.0666 35.8333 39.0666C39.75 39.0666 42 37.5166 42 34.8166C42 32.1333 40.2 31.4333 36.3833 30.9166C32.5333 30.4166 32.15 30.1499 32.15 29.2499C32.15 28.4999 32.4833 27.4999 35.3333 27.4999C37.8333 27.4999 38.8167 28.0499 39.2 29.7666C39.2333 29.9333 39.3833 30.0499 39.55 30.0499H41.1667C41.25 30.0499 41.35 30.0166 41.4167 29.9333C41.4833 29.8666 41.5333 29.7666 41.5 29.6666C41.2667 26.6999 39.3 25.3333 35.3333 25.3333Z" fill="#8BC34A"/>
</svg>
