<svg width="100" height="40" viewBox="0 0 100 40" fill="none" xmlns="http://www.w3.org/2000/svg">
<g id="pfizer">
<g id="Group 43720">
<path id="path4664" d="M6.72798 16.3384C7.78464 12.4752 12.1856 11.5558 16.2375 11.4422C19.5684 11.3488 23.2824 11.7893 23.2824 11.7893L21.5373 18.1694C21.5373 18.1694 17.8233 17.729 14.4924 17.8224C10.4405 17.9359 6.03958 18.8554 4.98291 22.7186L6.72798 16.3384Z" fill="#FFFEFA"/>
<path id="path4655" d="M62.7968 9.54578C57.4626 9.54581 56.0961 14.7084 55.3313 17.5044L49.6332 38.3334H52.9576L58.0095 19.8645H61.4623L59.1638 28.2684H62.4881L65.2447 18.1901H58.4678C58.815 16.9198 59.1853 15.5665 59.4872 14.4631C60.0446 12.4252 60.955 10.9453 62.2791 10.9951C63.7425 11.0501 62.9978 12.011 62.7974 12.7437C62.5201 13.7573 63.2686 14.7765 64.5801 14.7765C67.4286 14.7765 68.1311 9.54578 62.7968 9.54578ZM43.939 13.1904V13.1906L39.8149 28.2684H43.2806L44.8078 22.6849H47.8182C51.1399 22.6849 53.3443 20.8516 53.9404 18.3032C54.497 15.9238 53.1073 13.1904 49.385 13.1904C47.5696 13.1904 45.7545 13.1904 43.939 13.1904ZM46.9195 14.9647H48.2519C49.647 14.9647 50.7539 16.0815 50.4866 18.0249C50.2389 19.8265 48.2826 20.9064 46.5768 20.9064H45.2942L46.9195 14.9647ZM79.7838 17.8848C76.8698 17.8848 74.7678 20.3917 74.2633 22.8971C73.7786 25.3046 75.1592 28.5039 78.9602 28.5039C81.6617 28.5039 83.0204 27.3143 83.0204 27.3143L82.3986 25.7795C82.3986 25.7795 81.2629 26.7039 79.6803 26.7039C78.0978 26.7039 77.105 25.4546 77.3246 23.464H83.787C84.249 22.2917 84.502 17.8848 79.7838 17.8848ZM92.6653 18.0204C90.498 18.0204 89.2201 20.2586 89.2201 20.2586L89.7858 18.1902H86.4614L83.7048 28.2684H87.0292C87.0292 28.2684 87.8297 25.3239 88.2371 23.8539C88.8661 21.5559 90.1488 20.117 90.7655 20.0581C91.4781 19.9901 91.4099 21.7073 92.7999 21.7073C94.9083 21.7073 95.3631 18.0204 92.6657 18.0204H92.6653ZM66.4973 18.1902L66.0392 19.8648H70.253L63.6285 28.2684H72.9831L73.4411 26.5938H68.6877L75.3119 18.1902H66.4973ZM79.7714 19.5489V19.5491C81.5789 19.5491 81.1676 21.9356 81.1676 21.9356L77.5467 21.9272C77.5467 21.9272 78.1472 19.5489 79.7714 19.5489Z" fill="#FFFEFA"/>
<path id="path4668" d="M32.0139 28.2919C20.0925 27.5485 6.2387 21.3993 6.72772 16.3384L5.08292 22.3521C4.58399 27.5155 17.4353 33.6459 30.2689 34.672L32.0139 28.2919Z" fill="#FFFEFA"/>
<path id="path4672" d="M36.3463 20.0003C35.2897 23.8636 30.8887 24.783 26.8369 24.8966C23.5059 24.9899 19.792 24.5495 19.792 24.5495L21.5371 18.1693C21.5371 18.1693 25.251 18.6098 28.5819 18.5164C32.6338 18.4028 37.0347 17.4834 38.0914 13.6202L36.3463 20.0003Z" fill="#FFFEFA"/>
<path id="path4674" d="M11.061 8.04691C22.9825 8.79031 36.8363 14.9395 36.3473 20.0004L37.9921 13.9867C38.491 8.82327 25.6397 2.69285 12.8061 1.66675L11.061 8.04691Z" fill="#FFFEFA"/>
</g>
</g>
</svg>
