<svg width="64" height="64" viewBox="0 0 64 64" fill="none" xmlns="http://www.w3.org/2000/svg">
<circle cx="32" cy="32" r="32" fill="#EF5423"/>
<g clip-path="url(#clip0_1914_77904)">
<path d="M19.3064 16C21.6735 16.3738 23.8164 17.2677 25.5357 18.9527C26.7816 20.1674 27.8966 21.5098 29.0864 22.7775C30.2762 24.0452 31.3601 25.2692 32.606 26.4185C34.3159 27.9759 36.4059 28.7265 38.9599 28.8417C37.6549 29.6048 36.4931 30.0284 35.1631 29.9755C33.7055 29.9163 32.5312 29.2684 31.4878 28.2936C30.8431 27.6893 30.1766 27.1069 29.211 27.0477C27.5571 26.9823 26.7536 27.926 27.2394 29.5083C27.8075 31.4065 29.0967 33.0065 30.8306 33.9653C33.7771 35.6815 36.9447 36.021 40.2525 35.2797L40.6325 35.1925C40.7039 35.2092 40.7737 35.2321 40.8412 35.261C40.3179 35.7158 39.8725 36.1581 39.371 36.5256C38.0424 37.4963 36.5018 38.1369 34.8766 38.3944C33.0078 38.7059 31.3321 38.2605 30.0021 36.9149C28.8715 35.7625 27.8779 34.4917 26.794 33.2957C26.22 32.6593 25.604 32.062 24.9502 31.5079C24.5986 31.2431 24.1971 31.0524 23.7697 30.9472C23.3588 30.811 22.9182 30.7909 22.4967 30.8893C22.0751 30.9877 21.6889 31.2007 21.3808 31.5048C20.7298 32.1277 20.7111 32.9718 20.9852 33.766C21.8199 36.1892 23.4582 37.7372 26.0278 38.4069C25.218 38.4069 24.3926 38.5128 23.5984 38.4069C18.615 37.6313 15.1888 33.8376 14.759 28.8262C14.5815 26.7113 14.4475 24.5715 14.0053 22.5096C13.563 20.4477 12.2891 19.0056 10.0372 18.7378C9.69171 18.7189 9.34547 18.7189 9 18.7378C9.74129 17.9435 11.5384 17.0496 13.1487 16.651C14.2015 16.3987 15.2729 16.2149 16.335 16H19.3064ZM14.2139 17.8221C14.8369 18.5509 15.4598 18.7222 16.0827 18.4917C16.4191 18.3734 16.6589 17.9934 16.9455 17.7318L16.7866 17.5013L14.2139 17.8221Z" fill="white"/>
<path d="M55.7199 37.8464C53.8511 38.759 52.6052 38.5223 51.0946 37.1892C50.3471 36.5351 49.4034 36.1022 48.6029 35.6039C49.7304 34.6414 51.8764 34.9062 52.9291 35.9402C53.2619 36.3389 53.638 36.6993 54.0504 37.0148C54.5862 37.2882 55.1448 37.5144 55.7199 37.6907V37.8464Z" fill="white"/>
<path d="M30.731 39.2916C30.2836 39.4011 29.8469 39.5501 29.4259 39.737C29.1861 39.8678 28.8933 40.1762 28.8964 40.4036C28.9213 40.5505 28.9809 40.6893 29.0703 40.8085C29.1597 40.9277 29.2763 41.0238 29.4104 41.0888C30.0831 41.3531 30.7899 41.5208 31.5096 41.5871C33.067 41.665 34.5838 41.7491 35.9543 42.5527C36.4533 42.8564 36.8847 43.2592 37.2219 43.7362C36.599 43.5961 35.9761 43.3407 35.3531 43.3376C33.829 43.2759 32.3023 43.3332 30.787 43.5089C26.3767 44.1598 22.9381 42.3938 19.9511 39.3913C19.3984 38.8235 18.9096 38.1968 18.4935 37.5225C18.9046 37.7623 19.3095 38.0084 19.7238 38.242C22.337 39.7028 25.0187 40.2945 27.9278 39.0705C28.3773 38.8747 28.8682 38.7924 29.357 38.831C29.8458 38.8695 30.3177 39.0277 30.731 39.2916V39.2916ZM30.9988 23.491C34.4468 25.9079 38.0099 26.3938 41.8783 25.148C42.9825 24.7878 44.1462 24.646 45.3045 24.7306C47.6716 24.958 49.1573 26.8392 49.1168 29.3652C48.6496 28.2813 47.9986 27.3781 46.9365 27.213C45.9443 27.0799 44.9352 27.1509 43.9714 27.4217C39.2527 28.708 35.132 27.7767 31.6249 24.3319C31.4633 24.1634 31.3105 23.9867 31.167 23.8024C31.1053 23.7018 31.0492 23.5978 30.9988 23.491V23.491ZM50.6492 33.9375C50.4085 33.9319 50.1684 33.9132 49.9297 33.8815C48.7898 33.6354 47.9395 34.0777 47.1452 34.8875C46.244 35.8545 45.2568 36.7375 44.1956 37.5256C42.9498 38.4071 41.3925 38.6033 39.8943 38.7715C39.4567 38.8335 39.0131 38.8408 38.5737 38.7933C40.1123 38.1423 41.1028 36.8965 42.1898 35.7721C43.227 34.6975 44.3047 33.6977 45.7997 33.2803C47.1828 32.8681 48.6663 32.9507 49.9951 33.5139C50.2244 33.6371 50.4431 33.7787 50.6492 33.9375V33.9375ZM47.98 32.0407C47.737 32.0002 47.4941 31.966 47.2511 31.9223C46.397 31.748 45.5169 31.7447 44.6615 31.9126C43.8061 32.0804 42.9925 32.4162 42.2677 32.9004C39.86 34.4047 37.2032 34.6508 34.4592 33.9406C34.3873 33.9161 34.3184 33.8837 34.2537 33.8441C34.1882 33.8067 34.1291 33.7662 33.9422 33.651C34.1389 33.611 34.3408 33.6026 34.5402 33.6261C35.9792 34.1057 37.1752 33.4828 38.3245 32.7664C40.0189 31.7106 41.7506 30.8229 43.8125 30.7325C45.3543 30.6671 46.7621 31.016 47.98 32.0407V32.0407Z" fill="white"/>
<path d="M28.5133 20.2299C30.5339 20.0831 32.5385 20.679 34.1509 21.9056C34.481 22.1578 34.8205 22.3977 35.1382 22.6655C36.2751 23.6404 37.5988 24.0079 39.2527 23.7775C36.6426 25.3628 31.0954 23.5376 28.5133 20.2299Z" fill="white"/>
<path d="M40.1622 48.0002C39.0099 47.9535 37.9195 47.4663 37.116 46.6391C36.1816 45.6455 35.1756 44.7298 33.8332 44.2719C36.0757 44.11 37.9352 44.6987 39.1094 46.7637C39.4196 47.2088 39.7722 47.6229 40.1622 48.0002V48.0002Z" fill="white"/>
<path d="M14.2139 17.8222L16.7898 17.5107L16.9548 17.7412C16.6683 18.0029 16.4285 18.3828 16.0921 18.5012C15.4473 18.7223 14.8306 18.551 14.2139 17.8222Z" fill="#EF5423"/>
</g>
<defs>
<clipPath id="clip0_1914_77904">
<rect width="46.7199" height="32" fill="white" transform="translate(9 16)"/>
</clipPath>
</defs>
</svg>
