<svg width="64" height="64" viewBox="0 0 64 64" fill="none" xmlns="http://www.w3.org/2000/svg">
<circle cx="32" cy="32" r="32" fill="#1E88E5"/>
<path d="M32 42.6399C20.3975 42.6399 11 37.8799 11 31.9999C11 26.1199 20.3975 21.3599 32 21.3599C43.6025 21.3599 53 26.1199 53 31.9999C53 37.8799 43.6025 42.6399 32 42.6399ZM22.9175 28.7274C23.8625 28.7274 24.51 28.9024 24.825 29.2699C25.14 29.6199 25.21 30.2499 25.0525 31.0724C24.8775 31.9999 24.545 32.5949 24.0375 32.9799C23.5475 33.3649 22.795 33.5574 21.78 33.5574H20.2575L21.185 28.7274H22.9175ZM16.7925 38.4399H19.3125L19.9075 35.3774H22.06C23.005 35.3774 23.775 35.2724 24.3875 35.0799C25 34.8699 25.56 34.5374 26.0675 34.0649C26.4875 33.6799 26.82 33.2599 27.0825 32.7874C27.345 32.3324 27.5375 31.8074 27.625 31.2474C27.905 29.8824 27.7125 28.8149 27.0475 28.0624C26.365 27.2924 25.315 26.9249 23.8625 26.9249H19.0325L16.7925 38.4399M29.48 23.8624L27.24 35.3774H29.725L31.02 28.7799H33.015C33.645 28.7799 34.065 28.8849 34.2575 29.0949C34.45 29.3049 34.485 29.6899 34.38 30.2499L33.3825 35.3774H35.92L36.9525 30.0049C37.18 28.9199 37.005 28.1324 36.48 27.6249C35.955 27.1524 34.9925 26.9249 33.5925 26.9249H31.37L32 23.8624H29.48M42.5 28.7274C43.4625 28.7274 44.0925 28.9024 44.4075 29.2699C44.7225 29.6199 44.7925 30.2499 44.635 31.0724C44.46 31.9999 44.1275 32.5949 43.6375 32.9799C43.13 33.3649 42.3775 33.5574 41.3625 33.5574H39.875L40.75 28.7274H42.5M36.375 38.4399H38.895L39.49 35.3774H41.625C42.5875 35.3774 43.375 35.2724 43.9875 35.0799C44.6 34.8699 45.125 34.5374 45.65 34.0649C46.07 33.6799 46.42 33.2599 46.665 32.7874C46.9275 32.3324 47.12 31.8074 47.225 31.2474C47.4875 29.8824 47.295 28.8149 46.63 28.0624C46 27.2924 44.8975 26.9249 43.445 26.9249H38.6325L36.375 38.4399V38.4399Z" fill="white"/>
</svg>
