<svg width="100" height="12" viewBox="0 0 100 12" fill="none" xmlns="http://www.w3.org/2000/svg">
<g id="polaris">
<g id="XMLID 17">
<path id="XMLID 356" d="M82.5932 0.38208H79.3047V11.3656H82.5932V0.38208Z" fill="#FFFEFA"/>
<path id="XMLID 309" d="M11.2333 0.38208H0.381348V11.3656H3.80137V8.32377H11.2333C13.338 8.32377 15.0151 6.64665 15.0151 4.60778V4.11451C15.0809 2.04276 13.3544 0.38208 11.2333 0.38208ZM10.3783 5.84097H3.80137V2.86488H10.3783C11.184 2.86488 11.8746 3.55547 11.8746 4.36115C11.8746 5.16683 11.184 5.84097 10.3783 5.84097Z" fill="#FFFEFA"/>
<path id="XMLID 306" d="M75.5886 7.69901C76.6409 7.00842 77.3315 5.90678 77.3315 4.54206V4.11455C77.3315 2.05925 75.6544 0.39856 73.5497 0.39856H62.6978V11.3821H66.1178V8.32382H72.0699L73.8128 11.3657H77.6604L75.5886 7.69901ZM66.0849 5.84101V2.86493H72.6619C73.4675 2.86493 74.1581 3.55551 74.1581 4.36119C74.1581 5.16687 73.4675 5.85745 72.6619 5.85745H66.0849V5.84101Z" fill="#FFFEFA"/>
<path id="XMLID 305" d="M95.6817 4.47625H88.3648C87.9373 4.47625 87.5591 4.09807 87.5591 3.67057C87.5591 3.24306 87.9373 2.86488 88.3648 2.86488H97.8521V0.38208H87.74C85.882 0.38208 84.3857 1.87834 84.3857 3.73634C84.3857 5.59433 85.882 7.09059 87.74 7.09059H95.0569C95.4844 7.09059 95.8625 7.46877 95.8625 7.89627C95.8625 8.32378 95.4844 8.70195 95.0569 8.70195H84.7639V11.2999H95.6817C97.5397 11.2999 99.0359 9.8036 99.0359 7.9456C99.0359 6.08761 97.5397 4.47625 95.6817 4.47625Z" fill="#FFFEFA"/>
<g id="XMLID 300">
<path id="XMLID 304" d="M28.4318 2.24007L27.4946 4.83798L32.2793 5.52856V3.67057C32.2793 1.87834 30.7831 0.38208 28.9908 0.38208H24.7651L25.6366 3.29239L28.4318 2.24007Z" fill="#FFFEFA"/>
<path id="XMLID 303" d="M27.4946 6.82736L28.4318 9.42527L25.6366 8.37295L24.7651 11.2833H28.9908C30.7831 11.2833 32.2793 9.787 32.2793 7.99477V6.13678L27.4946 6.82736Z" fill="#FFFEFA"/>
<path id="XMLID 302" d="M16.6919 3.67081V5.52881L21.4766 4.83822L20.5394 2.24032L23.3346 3.29263L24.2061 0.382324H19.9804C18.1224 0.382324 16.6919 1.86214 16.6919 3.67081Z" fill="#FFFEFA"/>
<path id="XMLID 301" d="M20.5394 9.42527L21.4766 6.82736L16.6919 6.13678V7.99477C16.6919 9.787 18.1882 11.2833 19.9804 11.2833H24.2061L23.3346 8.37295L20.5394 9.42527Z" fill="#FFFEFA"/>
</g>
<path id="XMLID 299" d="M38.0507 8.81705C37.7382 8.81705 37.4916 8.57041 37.4916 8.19224V0.38208H34.2031V9.01436C34.2031 10.3133 35.2554 11.3163 36.5051 11.3163H44.7592V8.76772H38.0507V8.81705Z" fill="#FFFEFA"/>
<path id="XMLID 18" d="M57.1567 0.38208H50.0864C47.9818 0.38208 46.3047 2.0592 46.3047 4.09807V11.2999H49.5932V8.32377H57.6664V11.3656H60.9549V4.09807C60.9384 2.04276 59.2613 0.38208 57.1567 0.38208ZM57.65 5.84097H49.5767V4.04874C49.5767 3.42393 50.07 2.86488 50.7606 2.86488H53.6216H56.4825C57.1074 2.86488 57.6664 3.42393 57.6664 4.04874V5.84097H57.65Z" fill="#FFFEFA"/>
</g>
</g>
</svg>
