<svg width="64" height="64" viewBox="0 0 64 64" fill="none" xmlns="http://www.w3.org/2000/svg">
<circle cx="32" cy="32" r="32" fill="#EFF0F2"/>
<path d="M28.6117 16.1665C27.4107 16.1665 26.2589 16.6436 25.4096 17.4928C24.5604 18.342 24.0833 19.4938 24.0833 20.6948V23.3548H30.8758C31.4933 23.3548 32 24.2573 32 24.8748H20.695C19.494 24.8748 18.3422 25.3519 17.493 26.2012C16.6437 27.0504 16.1667 28.2022 16.1667 29.4032V35.3898C16.1667 36.5907 16.6437 37.7425 17.493 38.5918C18.3422 39.441 19.494 39.9181 20.695 39.9181H22.5633V35.6748C22.5612 35.0808 22.6764 34.4923 22.9023 33.943C23.1281 33.3937 23.4602 32.8944 23.8794 32.4737C24.2986 32.053 24.7968 31.7192 25.3453 31.4914C25.8938 31.2637 26.4819 31.1464 27.0758 31.1464H35.3883C37.89 31.1464 39.9167 29.134 39.9167 26.6323V20.6948C39.9167 19.4938 39.4396 18.342 38.5903 17.4928C37.7411 16.6436 36.5893 16.1665 35.3883 16.1665H28.6117ZM27.4717 18.7157C28.105 18.7157 28.6117 18.9057 28.6117 19.8398C28.6117 20.774 28.105 21.2506 27.4717 21.2506C26.8542 21.2506 26.3475 20.7756 26.3475 19.8414C26.3475 18.9073 26.8542 18.7157 27.4717 18.7157V18.7157Z" fill="#3C78AA"/>
<path d="M41.4351 24.0835V28.3268C41.437 28.9206 41.3216 29.5089 41.0957 30.0581C40.8698 30.6072 40.5377 31.1063 40.1185 31.5269C39.6993 31.9474 39.2012 32.2811 38.6528 32.5087C38.1043 32.7364 37.5164 32.8536 36.9226 32.8536H28.6117C28.0178 32.8515 27.4293 32.9667 26.88 33.1925C26.3306 33.4184 25.8313 33.7504 25.4106 34.1696C24.9899 34.5889 24.6561 35.087 24.4283 35.6356C24.2006 36.1841 24.0833 36.7722 24.0833 37.3661V43.3036C24.0833 44.5046 24.5604 45.6564 25.4097 46.5056C26.2589 47.3548 27.4107 47.8319 28.6117 47.8319H35.3883C36.5891 47.8319 37.7406 47.355 38.5898 46.5062C39.439 45.6573 39.9163 44.5059 39.9167 43.3052V40.6452H33.1226C32.5051 40.6452 32 39.7427 32 39.1252H43.305C44.506 39.1252 45.6578 38.6481 46.507 37.7988C47.3563 36.9496 47.8333 35.7978 47.8333 34.5968V28.6118C47.8333 27.4108 47.3563 26.259 46.507 25.4098C45.6578 24.5606 44.506 24.0835 43.305 24.0835H41.4351ZM26.1733 31.2291L26.167 31.2354C26.186 31.2322 26.2066 31.2338 26.2272 31.2291H26.1733ZM36.5283 42.7494C37.1458 42.7494 37.6525 43.2244 37.6525 44.1586C37.6525 44.3062 37.6234 44.4524 37.5669 44.5888C37.5104 44.7252 37.4276 44.8491 37.3233 44.9535C37.2189 45.0579 37.0949 45.1407 36.9585 45.1972C36.8222 45.2537 36.676 45.2827 36.5283 45.2827C35.895 45.2827 35.3883 45.0927 35.3883 44.1586C35.3883 43.2244 35.895 42.7494 36.5283 42.7494Z" fill="#FDD835"/>
</svg>
