<svg width="64" height="64" viewBox="0 0 64 64" fill="none" xmlns="http://www.w3.org/2000/svg">
<circle cx="32" cy="32" r="32" fill="#CC0000"/>
<g clip-path="url(#clip0_1914_77860)">
<path fill-rule="evenodd" clip-rule="evenodd" d="M13.2346 44.5502H27.1675C27.1675 44.5502 24.5044 32.3985 33.3227 27.4778C35.2451 26.5431 41.3651 23.051 51.3827 30.4584C51.7002 30.1939 52 29.9823 52 29.9823C52 29.9823 42.8289 20.8288 32.6173 21.8517C27.485 22.3103 21.1711 26.984 17.4674 33.1569C13.7637 39.3297 13.2346 44.5502 13.2346 44.5502Z" fill="white"/>
<path fill-rule="evenodd" clip-rule="evenodd" d="M13.2346 44.5502H27.1675C27.1675 44.5502 24.5044 32.3985 33.3227 27.4778C35.2451 26.5431 41.3651 23.051 51.3827 30.4584C51.7002 30.1939 52 29.9823 52 29.9823C52 29.9823 42.8289 20.8288 32.6173 21.8517C27.485 22.3103 21.1711 26.984 17.4674 33.1569C13.7637 39.3297 13.2346 44.5502 13.2346 44.5502Z" fill="white"/>
<path fill-rule="evenodd" clip-rule="evenodd" d="M13.2346 44.5502H27.1675C27.1675 44.5502 24.5044 32.3986 33.3227 27.4779C35.2451 26.5432 41.3651 23.0511 51.3827 30.4585C51.7002 30.194 52 29.9823 52 29.9823C52 29.9823 42.8289 20.8289 32.6173 21.8518C27.4674 22.3104 21.1534 26.9841 17.4497 33.1569C13.746 39.3298 13.2346 44.5502 13.2346 44.5502ZM42.2645 22.8395L42.3351 21.6578C42.1764 21.5696 41.7354 21.358 40.6243 21.0405L40.5538 22.2045C41.1358 22.3986 41.7002 22.6102 42.2645 22.8395Z" fill="white"/>
<path fill-rule="evenodd" clip-rule="evenodd" d="M40.5891 26.5785L40.5185 27.6896C41.1057 27.7078 41.69 27.7787 42.2646 27.9012L42.3351 26.8078C41.7592 26.6903 41.1757 26.6137 40.5891 26.5785V26.5785ZM34.0635 21.0758H34.2399L33.8871 20C33.3211 20.0012 32.7557 20.0365 32.194 20.1058L32.5291 21.1464C33.039 21.0965 33.5512 21.0729 34.0635 21.0758V21.0758ZM34.9101 27.5661L35.3157 28.7831C35.8112 28.5396 36.3241 28.3333 36.8501 28.1658L36.4621 27.0018C35.9331 27.1563 35.4147 27.3448 34.9101 27.5661V27.5661ZM26.903 22.9277L26.1093 21.7108C25.6684 21.94 25.2099 22.1869 24.7337 22.4691L25.545 23.7037C26.0035 23.4215 26.4444 23.157 26.903 22.9277ZM30.5185 30.8642L31.3651 32.134C31.6766 31.6885 32.0246 31.2696 32.4056 30.8818L31.612 29.6825C31.2156 30.0456 30.8498 30.4409 30.5185 30.8642ZM27.9612 36.5432L29.3898 37.672C29.4618 36.9759 29.5856 36.2861 29.7601 35.6085L28.4903 34.6032C28.2753 35.2387 28.0986 35.8865 27.9612 36.5432V36.5432ZM20.2363 28.1658L18.9841 27.0723C18.5256 27.5132 18.0847 27.9541 17.679 28.3951L19.037 29.5591C19.4126 29.0744 19.8129 28.6093 20.2363 28.1658V28.1658ZM14.9101 36.0494L12.8818 35.3086C12.5467 36.067 12.1764 36.9489 12 37.425L14.0282 38.1658C14.2575 37.5661 14.6279 36.7019 14.9101 36.0494ZM27.6966 41.0229C27.7209 41.7673 27.7916 42.5095 27.9083 43.2451L30.0247 44.0035C29.8454 43.2468 29.7042 42.4816 29.6014 41.7108L27.6966 41.0229Z" fill="white"/>
</g>
<defs>
<clipPath id="clip0_1914_77860">
<rect width="40" height="24.5503" fill="white" transform="translate(12 20)"/>
</clipPath>
</defs>
</svg>
