<svg width="64" height="64" viewBox="0 0 64 64" fill="none" xmlns="http://www.w3.org/2000/svg">
<circle cx="32" cy="32" r="32" fill="#222222"/>
<g clip-path="url(#clip0_1914_77853)">
<path d="M37.9305 28.474C40.4415 32.8232 41.9369 37.1615 42.3513 40.6363C42.5587 42.3752 42.4901 43.8539 42.1763 44.9947C41.864 46.1304 41.329 46.8701 40.6388 47.2686C39.9485 47.6672 39.0403 47.7606 37.9007 47.4633C36.7559 47.1646 35.4409 46.4846 34.0386 45.4355C31.2367 43.3393 28.2273 39.8751 25.7162 35.5259C23.2052 31.1766 21.7098 26.8382 21.2954 23.3636C21.088 21.6246 21.1566 20.1459 21.4704 19.0051C21.7827 17.8695 22.3176 17.1297 23.0079 16.7312C23.6982 16.3326 24.6064 16.2392 25.746 16.5366C26.8908 16.8352 28.2058 17.5152 29.6081 18.5643C32.41 20.6605 35.4194 24.1247 37.9305 28.474Z" stroke="#53C1DE" stroke-width="1.5"/>
<path d="M25.7163 28.474C23.2053 32.8232 21.7099 37.1615 21.2955 40.6363C21.088 42.3752 21.1567 43.8539 21.4704 44.9947C21.7827 46.1304 22.3177 46.8701 23.008 47.2686C23.6983 47.6672 24.6065 47.7606 25.7461 47.4633C26.8908 47.1646 28.2059 46.4846 29.6081 45.4355C32.41 43.3393 35.4194 39.8751 37.9305 35.5259C40.4415 31.1766 41.9369 26.8382 42.3514 23.3636C42.5588 21.6246 42.4901 20.1459 42.1763 19.0051C41.8641 17.8695 41.3292 17.1297 40.6388 16.7312C39.9485 16.3326 39.0403 16.2392 37.9007 16.5366C36.756 16.8352 35.4409 17.5152 34.0387 18.5643C31.2368 20.6605 28.2274 24.1247 25.7163 28.474Z" stroke="#53C1DE" stroke-width="1.5"/>
<path d="M31.8235 24.948C26.8014 24.948 22.2966 25.8221 19.0803 27.2006C17.4706 27.8905 16.2243 28.6892 15.3932 29.5313C14.5659 30.3695 14.1927 31.2027 14.1927 31.9999C14.1927 32.7969 14.5659 33.6301 15.3932 34.4685C16.2243 35.3105 17.4706 36.1093 19.0803 36.7992C22.2966 38.1776 26.8014 39.0518 31.8235 39.0518C36.8456 39.0518 41.3505 38.1776 44.5667 36.7992C46.1765 36.1093 47.4228 35.3105 48.2539 34.4685C49.0812 33.6301 49.4543 32.7969 49.4543 31.9999C49.4543 31.2027 49.0812 30.3695 48.2539 29.5313C47.4228 28.6892 46.1765 27.8905 44.5667 27.2006C41.3505 25.8221 36.8456 24.948 31.8235 24.948Z" stroke="#53C1DE" stroke-width="1.5"/>
<path d="M31.8232 35.3057C33.649 35.3057 35.1291 33.8256 35.1291 31.9998C35.1291 30.174 33.649 28.6938 31.8232 28.6938C29.9974 28.6938 28.5172 30.174 28.5172 31.9998C28.5172 33.8256 29.9974 35.3057 31.8232 35.3057Z" fill="#53C1DE"/>
</g>
<defs>
<clipPath id="clip0_1914_77853">
<rect width="37.6471" height="40" fill="white" transform="translate(13 12)"/>
</clipPath>
</defs>
</svg>
