<svg width="64" height="64" viewBox="0 0 64 64" fill="none" xmlns="http://www.w3.org/2000/svg">
<circle cx="32" cy="32" r="32" fill="#1E212A"/>
<g clip-path="url(#clip0_1160_8411)">
<path d="M45.2965 25.7972C44.8865 25.6561 44.4616 25.5226 44.0242 25.3963C44.0961 25.1029 44.1621 24.8132 44.2207 24.5285C45.1838 19.8536 44.5541 16.0874 42.4039 14.8474C40.3421 13.6584 36.9701 14.8981 33.5646 17.8618C33.2371 18.1468 32.9087 18.4485 32.5805 18.7648C32.3618 18.5555 32.1434 18.3534 31.9256 18.16C28.3565 14.991 24.7791 13.6555 22.6309 14.8991C20.5711 16.0915 19.9611 19.6321 20.828 24.0626C20.9117 24.4906 21.0096 24.9276 21.1202 25.3719C20.6139 25.5156 20.1251 25.6688 19.6575 25.8318C15.4731 27.2907 12.8008 29.5771 12.8008 31.9486C12.8008 34.398 15.6695 36.8548 20.0278 38.3444C20.3718 38.462 20.7287 38.5732 21.0965 38.6787C20.9771 39.1592 20.8732 39.6302 20.7861 40.0895C19.9595 44.4431 20.605 47.9 22.6594 49.0849C24.7813 50.3086 28.3426 49.0508 31.8104 46.0196C32.0844 45.78 32.3595 45.5259 32.6351 45.2595C32.9922 45.6035 33.3488 45.929 33.7035 46.2343C37.0625 49.1248 40.38 50.2919 42.4324 49.1037C44.5523 47.8765 45.2412 44.163 44.3468 39.6448C44.2785 39.2997 44.199 38.9472 44.1097 38.5884C44.3598 38.5145 44.6053 38.4382 44.8447 38.3588C49.3756 36.8576 52.3236 34.4307 52.3236 31.9486C52.3236 29.5685 49.5651 27.2667 45.2965 25.7972ZM44.3137 36.7562C44.0976 36.8277 43.8759 36.8969 43.6499 36.9639C43.1497 35.3804 42.4747 33.6966 41.6485 31.9569C42.4369 30.2586 43.0859 28.5963 43.572 27.0231C43.9763 27.1401 44.3688 27.2635 44.7469 27.3937C48.4042 28.6527 50.6352 30.5143 50.6352 31.9486C50.6352 33.4765 48.2258 35.4599 44.3137 36.7562ZM42.6905 39.9727C43.086 41.9706 43.1425 43.7769 42.8805 45.189C42.6451 46.4578 42.1717 47.3037 41.5864 47.6426C40.3409 48.3635 37.6773 47.4264 34.8047 44.9544C34.4754 44.671 34.1437 44.3685 33.8109 44.0482C34.9245 42.8303 36.0375 41.4143 37.1238 39.8418C39.0345 39.6722 40.8396 39.3951 42.4765 39.0166C42.5572 39.3419 42.6288 39.6608 42.6905 39.9727ZM26.275 47.518C25.0581 47.9477 24.0889 47.96 23.503 47.6222C22.2563 46.9032 21.7381 44.1276 22.445 40.4044C22.526 39.978 22.6224 39.54 22.7334 39.0923C24.3525 39.4503 26.1444 39.7079 28.0596 39.8632C29.1532 41.4019 30.2983 42.8163 31.4523 44.0548C31.2002 44.2982 30.9491 44.5299 30.6993 44.7483C29.1659 46.0887 27.6292 47.0396 26.275 47.518ZM20.5739 36.7468C18.6467 36.0881 17.0552 35.232 15.9643 34.2978C14.984 33.4584 14.4891 32.6249 14.4891 31.9486C14.4891 30.5095 16.6347 28.6739 20.2132 27.4262C20.6474 27.2748 21.1019 27.1321 21.5736 26.9981C22.0682 28.6069 22.717 30.2889 23.4999 31.9897C22.7068 33.7158 22.0489 35.4246 21.5494 37.0523C21.2132 36.9556 20.8874 36.8539 20.5739 36.7468ZM22.485 23.7384C21.7422 19.9424 22.2355 17.0789 23.4768 16.3603C24.7991 15.5949 27.7229 16.6863 30.8045 19.4225C31.0015 19.5974 31.1992 19.7805 31.3975 19.9699C30.2492 21.2029 29.1145 22.6066 28.0307 24.1363C26.1719 24.3086 24.3926 24.5854 22.7567 24.956C22.6538 24.5423 22.5627 24.1358 22.485 23.7384ZM39.5333 27.948C39.1422 27.2725 38.7407 26.613 38.3315 25.9715C39.5925 26.1309 40.8007 26.3425 41.9353 26.6015C41.5946 27.6932 41.1701 28.8346 40.6703 30.0047C40.3118 29.3241 39.9326 28.6378 39.5333 27.948ZM32.581 21.1765C33.3598 22.0202 34.1397 22.9622 34.9068 23.9842C34.1338 23.9477 33.3512 23.9287 32.5622 23.9287C31.7806 23.9287 31.0038 23.9473 30.2356 23.9832C31.0034 22.9706 31.7901 22.0299 32.581 21.1765ZM25.5842 27.9597C25.1936 28.6371 24.8214 29.3197 24.4686 30.0035C23.9769 28.8374 23.5563 27.6908 23.2127 26.5836C24.3403 26.3313 25.5428 26.1249 26.7958 25.9685C26.3807 26.616 25.9759 27.2804 25.5842 27.9596V27.9597ZM26.8319 38.0492C25.5373 37.9048 24.3167 37.709 23.1894 37.4637C23.5385 36.3367 23.9684 35.1656 24.4704 33.9744C24.8242 34.6578 25.1979 35.3406 25.5909 36.0195H25.591C25.9913 36.7111 26.4061 37.3885 26.8319 38.0492ZM32.6278 42.8398C31.8275 41.9764 31.0293 41.0213 30.2498 39.994C31.0065 40.0237 31.7781 40.0389 32.5622 40.0389C33.3678 40.0389 34.1641 40.0208 34.948 39.9859C34.1783 41.0317 33.4013 41.9882 32.6278 42.8398ZM40.6864 33.9137C41.2147 35.1178 41.66 36.2828 42.0136 37.3905C40.8676 37.6519 39.6304 37.8625 38.3268 38.0189C38.7371 37.3688 39.1421 36.6979 39.5401 36.0078C39.9427 35.3097 40.325 34.6105 40.6864 33.9137ZM38.0776 35.1643C37.4597 36.2356 36.8255 37.2582 36.1816 38.2234C35.0087 38.3073 33.7971 38.3505 32.5622 38.3505C31.3323 38.3505 30.1359 38.3123 28.9838 38.2375C28.314 37.2596 27.6659 36.2339 27.052 35.1736H27.0522C26.4399 34.1161 25.8764 33.0496 25.3658 31.9892C25.8763 30.9262 26.4383 29.8586 27.047 28.803L27.0469 28.8032C27.6572 27.7448 28.2996 26.7242 28.9633 25.7524C30.1387 25.6635 31.344 25.6171 32.5621 25.6171H32.5622C33.7858 25.6171 34.9926 25.6639 36.1677 25.7535C36.8212 26.7182 37.4593 27.7355 38.072 28.7941C38.6917 29.8645 39.261 30.9251 39.7758 31.9652C39.2625 33.0232 38.6945 34.0944 38.0776 35.1643ZM41.5605 16.3101C42.884 17.0733 43.3987 20.1514 42.5672 24.1878C42.5141 24.4453 42.4544 24.7077 42.3895 24.9735C40.7498 24.5952 38.9692 24.3136 37.105 24.1387C36.019 22.5922 34.8937 21.1863 33.764 19.9691C34.0677 19.6769 34.371 19.3983 34.673 19.1354C37.5909 16.5962 40.318 15.5936 41.5605 16.3101ZM32.5622 28.4194C34.5113 28.4194 36.0914 29.9995 36.0914 31.9486C36.0914 33.8978 34.5113 35.4779 32.5622 35.4779C30.6131 35.4779 29.0329 33.8978 29.0329 31.9486C29.0329 29.9995 30.6131 28.4194 32.5622 28.4194Z" fill="#00D8FF"/>
</g>
<defs>
<clipPath id="clip0_1160_8411">
<rect width="39.6" height="35.2" fill="white" transform="translate(12.8008 14.3999)"/>
</clipPath>
</defs>
</svg>
