<svg width="207" height="286" viewBox="0 0 207 286" fill="none" xmlns="http://www.w3.org/2000/svg">
<g opacity="0.95" filter="url(#filter0_b_1408_9457)">
<path d="M69.4877 70.2691L169.829 -115.016C180.934 -135.522 210.427 -135.327 221.26 -114.677L338.903 109.566C343.499 118.328 343.336 128.823 338.47 137.438L230.643 328.314C219.054 348.828 189.174 347.823 178.991 326.576L68.8338 96.7416C64.7985 88.3222 65.0416 78.479 69.4877 70.2691Z" fill="url(#paint0_radial_1408_9457)" fill-opacity="0.15"/>
<path d="M69.8664 70.4741L170.208 -114.811C181.148 -135.013 210.206 -134.822 220.879 -114.477L338.522 109.766C343.05 118.398 342.89 128.739 338.095 137.226L230.268 328.102C218.85 348.313 189.412 347.323 179.379 326.39L69.2222 96.5555C65.2465 88.2605 65.486 78.5628 69.8664 70.4741Z" stroke="url(#paint1_radial_1408_9457)" stroke-width="0.861305"/>
</g>
<g opacity="0.95" filter="url(#filter1_b_1408_9457)">
<path d="M100.706 71.5779L186.251 -86.3838C197.355 -106.889 226.848 -106.695 237.682 -86.0448L338.646 106.409C343.243 115.17 343.08 125.666 338.213 134.28L246.256 297.064C234.667 317.578 204.788 316.573 194.604 295.325L100.052 98.0505C96.017 89.631 96.2601 79.7878 100.706 71.5779Z" fill="url(#paint2_radial_1408_9457)" fill-opacity="0.15"/>
<path d="M101.085 71.783L186.629 -86.1788C197.57 -106.381 226.627 -106.189 237.3 -85.8447L338.265 106.609C342.794 115.241 342.633 125.581 337.838 134.068L245.881 296.852C234.463 317.063 205.026 316.073 194.992 295.139L100.441 97.8643C96.4649 89.5693 96.7045 79.8716 101.085 71.783Z" stroke="url(#paint3_radial_1408_9457)" stroke-width="0.861305"/>
</g>
<g opacity="0.95" filter="url(#filter2_b_1408_9457)">
<path d="M127.962 74.2586L201.277 -61.1217C212.382 -81.6268 241.875 -81.4324 252.708 -60.7827L339.89 105.398C344.487 114.16 344.324 124.655 339.457 133.27L260.615 272.836C249.026 293.351 219.147 292.345 208.963 271.098L127.308 100.731C123.273 92.3117 123.516 82.4685 127.962 74.2586Z" fill="url(#paint4_radial_1408_9457)" fill-opacity="0.15"/>
<path d="M128.341 74.4636L201.656 -60.9166C212.597 -81.1187 241.654 -80.9272 252.327 -60.5826L339.509 105.598C344.037 114.23 343.877 124.571 339.082 133.058L260.24 272.624C248.823 292.836 219.385 291.845 209.352 270.912L127.697 100.545C123.721 92.25 123.96 82.5523 128.341 74.4636Z" stroke="url(#paint5_radial_1408_9457)" stroke-width="0.861305"/>
</g>
<g opacity="0.95" filter="url(#filter3_b_1408_9457)">
<path d="M156.268 75.4443L216.165 -35.1586C227.27 -55.6637 256.763 -55.4693 267.596 -34.8195L339.654 102.534C344.251 111.295 344.088 121.791 339.221 130.405L274.77 244.497C263.181 265.012 233.302 264.006 223.118 242.759L155.614 101.917C151.579 93.4974 151.822 83.6542 156.268 75.4443Z" fill="url(#paint6_radial_1408_9457)" fill-opacity="0.15"/>
<path d="M156.647 75.6494L216.544 -34.9535C227.484 -55.1556 256.542 -54.9641 267.215 -34.6195L339.273 102.734C343.802 111.366 343.641 121.706 338.847 130.193L274.395 244.285C262.978 264.497 233.54 263.506 223.507 242.573L156.003 101.731C152.027 93.4357 152.266 83.738 156.647 75.6494Z" stroke="url(#paint7_radial_1408_9457)" stroke-width="0.861305"/>
</g>
<g opacity="0.95" filter="url(#filter4_b_1408_9457)">
<path d="M185.212 76.6757L232.896 -11.3765C244.001 -31.8816 273.494 -31.6872 284.327 -11.0374L342.621 100.079C347.218 108.841 347.055 119.336 342.188 127.951L290.835 218.857C279.246 239.372 249.366 238.366 239.183 217.119L184.558 103.148C180.522 94.7288 180.765 84.8857 185.212 76.6757Z" fill="url(#paint8_radial_1408_9457)" fill-opacity="0.15"/>
<path d="M185.59 76.8808L233.275 -11.1714C244.215 -31.3735 273.273 -31.1819 283.946 -10.8373L342.24 100.279C346.768 108.911 346.608 119.251 341.813 127.739L290.46 218.645C279.042 238.857 249.604 237.866 239.571 216.933L184.946 102.962C180.97 94.6671 181.21 84.9694 185.59 76.8808Z" stroke="url(#paint9_radial_1408_9457)" stroke-width="0.861305"/>
</g>
<g opacity="0.95" filter="url(#filter5_b_1408_9457)">
<path d="M213.834 79.4858L250.178 12.3749C261.283 -8.13025 290.776 -7.93579 301.609 12.714L347.121 99.466C351.718 108.228 351.555 118.723 346.688 127.338L307.497 196.713C295.909 217.228 266.029 216.223 255.845 194.975L213.181 105.958C209.145 97.5389 209.388 87.6958 213.834 79.4858Z" fill="url(#paint10_radial_1408_9457)" fill-opacity="0.15"/>
<path d="M214.213 79.6909L250.557 12.58C261.498 -7.62214 290.555 -7.43056 301.228 12.914L346.74 99.666C351.269 108.298 351.108 118.638 346.313 127.126L307.122 196.502C295.705 216.713 266.267 215.723 256.234 194.789L213.569 105.772C209.593 97.4772 209.833 87.7795 214.213 79.6909Z" stroke="url(#paint11_radial_1408_9457)" stroke-width="0.861305"/>
</g>
<defs>
<filter id="filter0_b_1408_9457" x="52.3114" y="-143.941" width="303.587" height="500.723" filterUnits="userSpaceOnUse" color-interpolation-filters="sRGB">
<feFlood flood-opacity="0" result="BackgroundImageFix"/>
<feGaussianBlur in="BackgroundImageFix" stdDeviation="6.83004"/>
<feComposite in2="SourceAlpha" operator="in" result="effect1_backgroundBlur_1408_9457"/>
<feBlend mode="normal" in="SourceGraphic" in2="effect1_backgroundBlur_1408_9457" result="shape"/>
</filter>
<filter id="filter1_b_1408_9457" x="83.5296" y="-115.308" width="272.113" height="440.84" filterUnits="userSpaceOnUse" color-interpolation-filters="sRGB">
<feFlood flood-opacity="0" result="BackgroundImageFix"/>
<feGaussianBlur in="BackgroundImageFix" stdDeviation="6.83004"/>
<feComposite in2="SourceAlpha" operator="in" result="effect1_backgroundBlur_1408_9457"/>
<feBlend mode="normal" in="SourceGraphic" in2="effect1_backgroundBlur_1408_9457" result="shape"/>
</filter>
<filter id="filter2_b_1408_9457" x="110.786" y="-90.0458" width="246.1" height="391.351" filterUnits="userSpaceOnUse" color-interpolation-filters="sRGB">
<feFlood flood-opacity="0" result="BackgroundImageFix"/>
<feGaussianBlur in="BackgroundImageFix" stdDeviation="6.83004"/>
<feComposite in2="SourceAlpha" operator="in" result="effect1_backgroundBlur_1408_9457"/>
<feBlend mode="normal" in="SourceGraphic" in2="effect1_backgroundBlur_1408_9457" result="shape"/>
</filter>
<filter id="filter3_b_1408_9457" x="139.092" y="-64.0829" width="217.558" height="337.049" filterUnits="userSpaceOnUse" color-interpolation-filters="sRGB">
<feFlood flood-opacity="0" result="BackgroundImageFix"/>
<feGaussianBlur in="BackgroundImageFix" stdDeviation="6.83004"/>
<feComposite in2="SourceAlpha" operator="in" result="effect1_backgroundBlur_1408_9457"/>
<feBlend mode="normal" in="SourceGraphic" in2="effect1_backgroundBlur_1408_9457" result="shape"/>
</filter>
<filter id="filter4_b_1408_9457" x="168.035" y="-40.3007" width="191.582" height="287.626" filterUnits="userSpaceOnUse" color-interpolation-filters="sRGB">
<feFlood flood-opacity="0" result="BackgroundImageFix"/>
<feGaussianBlur in="BackgroundImageFix" stdDeviation="6.83004"/>
<feComposite in2="SourceAlpha" operator="in" result="effect1_backgroundBlur_1408_9457"/>
<feBlend mode="normal" in="SourceGraphic" in2="effect1_backgroundBlur_1408_9457" result="shape"/>
</filter>
<filter id="filter5_b_1408_9457" x="196.658" y="-16.5492" width="167.459" height="241.731" filterUnits="userSpaceOnUse" color-interpolation-filters="sRGB">
<feFlood flood-opacity="0" result="BackgroundImageFix"/>
<feGaussianBlur in="BackgroundImageFix" stdDeviation="6.83004"/>
<feComposite in2="SourceAlpha" operator="in" result="effect1_backgroundBlur_1408_9457"/>
<feBlend mode="normal" in="SourceGraphic" in2="effect1_backgroundBlur_1408_9457" result="shape"/>
</filter>
<radialGradient id="paint0_radial_1408_9457" cx="0" cy="0" r="1" gradientUnits="userSpaceOnUse" gradientTransform="translate(128.046 -117.983) rotate(40.0906) scale(289.354 355.202)">
<stop stop-color="#F6F1E7"/>
<stop offset="0.25" stop-color="#4CB7A3"/>
<stop offset="0.5" stop-color="#3F59E4"/>
<stop offset="0.75" stop-color="#4016A0"/>
<stop offset="1" stop-color="#191919"/>
</radialGradient>
<radialGradient id="paint1_radial_1408_9457" cx="0" cy="0" r="1" gradientUnits="userSpaceOnUse" gradientTransform="translate(25.2603 76.5731) rotate(44.9402) scale(364.033 201.383)">
<stop stop-color="#191919"/>
<stop offset="0.177083" stop-color="#4016A0"/>
<stop offset="0.34375" stop-color="#3F59E4"/>
<stop offset="0.5" stop-color="#4CB7A3"/>
<stop offset="0.682292" stop-color="#F6F1E7"/>
<stop offset="0.807292" stop-color="#4016A0"/>
</radialGradient>
<radialGradient id="paint2_radial_1408_9457" cx="0" cy="0" r="1" gradientUnits="userSpaceOnUse" gradientTransform="translate(151.986 -94.3516) rotate(40.0906) scale(257.271 315.817)">
<stop stop-color="#F6F1E7"/>
<stop offset="0.25" stop-color="#4CB7A3"/>
<stop offset="0.5" stop-color="#3F59E4"/>
<stop offset="0.75" stop-color="#4016A0"/>
<stop offset="1" stop-color="#191919"/>
</radialGradient>
<radialGradient id="paint3_radial_1408_9457" cx="0" cy="0" r="1" gradientUnits="userSpaceOnUse" gradientTransform="translate(60.5979 78.6321) rotate(44.9403) scale(323.669 179.053)">
<stop stop-color="#191919"/>
<stop offset="0.177083" stop-color="#4016A0"/>
<stop offset="0.34375" stop-color="#3F59E4"/>
<stop offset="0.5" stop-color="#4CB7A3"/>
<stop offset="0.682292" stop-color="#F6F1E7"/>
<stop offset="0.807292" stop-color="#4016A0"/>
</radialGradient>
<radialGradient id="paint4_radial_1408_9457" cx="0" cy="0" r="1" gradientUnits="userSpaceOnUse" gradientTransform="translate(173.228 -73.2227) rotate(40.0906) scale(230.756 283.268)">
<stop stop-color="#F6F1E7"/>
<stop offset="0.25" stop-color="#4CB7A3"/>
<stop offset="0.5" stop-color="#3F59E4"/>
<stop offset="0.75" stop-color="#4016A0"/>
<stop offset="1" stop-color="#191919"/>
</radialGradient>
<radialGradient id="paint5_radial_1408_9457" cx="0" cy="0" r="1" gradientUnits="userSpaceOnUse" gradientTransform="translate(91.2581 81.9328) rotate(44.9403) scale(290.311 160.6)">
<stop stop-color="#191919"/>
<stop offset="0.177083" stop-color="#4016A0"/>
<stop offset="0.34375" stop-color="#3F59E4"/>
<stop offset="0.5" stop-color="#4CB7A3"/>
<stop offset="0.682292" stop-color="#F6F1E7"/>
<stop offset="0.807292" stop-color="#4016A0"/>
</radialGradient>
<radialGradient id="paint6_radial_1408_9457" cx="0" cy="0" r="1" gradientUnits="userSpaceOnUse" gradientTransform="translate(194.934 -51.7948) rotate(40.0906) scale(201.662 247.554)">
<stop stop-color="#F6F1E7"/>
<stop offset="0.25" stop-color="#4CB7A3"/>
<stop offset="0.5" stop-color="#3F59E4"/>
<stop offset="0.75" stop-color="#4016A0"/>
<stop offset="1" stop-color="#191919"/>
</radialGradient>
<radialGradient id="paint7_radial_1408_9457" cx="0" cy="0" r="1" gradientUnits="userSpaceOnUse" gradientTransform="translate(123.299 83.7987) rotate(44.9403) scale(253.709 140.351)">
<stop stop-color="#191919"/>
<stop offset="0.177083" stop-color="#4016A0"/>
<stop offset="0.34375" stop-color="#3F59E4"/>
<stop offset="0.5" stop-color="#4CB7A3"/>
<stop offset="0.682292" stop-color="#F6F1E7"/>
<stop offset="0.807292" stop-color="#4016A0"/>
</radialGradient>
<radialGradient id="paint8_radial_1408_9457" cx="0" cy="0" r="1" gradientUnits="userSpaceOnUse" gradientTransform="translate(217.871 -32.1404) rotate(40.0906) scale(175.183 215.049)">
<stop stop-color="#F6F1E7"/>
<stop offset="0.25" stop-color="#4CB7A3"/>
<stop offset="0.5" stop-color="#3F59E4"/>
<stop offset="0.75" stop-color="#4016A0"/>
<stop offset="1" stop-color="#191919"/>
</radialGradient>
<radialGradient id="paint9_radial_1408_9457" cx="0" cy="0" r="1" gradientUnits="userSpaceOnUse" gradientTransform="translate(155.642 85.6492) rotate(44.9403) scale(220.396 121.923)">
<stop stop-color="#191919"/>
<stop offset="0.177083" stop-color="#4016A0"/>
<stop offset="0.34375" stop-color="#3F59E4"/>
<stop offset="0.5" stop-color="#4CB7A3"/>
<stop offset="0.682292" stop-color="#F6F1E7"/>
<stop offset="0.807292" stop-color="#4016A0"/>
</radialGradient>
<radialGradient id="paint10_radial_1408_9457" cx="0" cy="0" r="1" gradientUnits="userSpaceOnUse" gradientTransform="translate(240.917 -12.2221) rotate(40.0906) scale(150.594 184.864)">
<stop stop-color="#F6F1E7"/>
<stop offset="0.25" stop-color="#4CB7A3"/>
<stop offset="0.5" stop-color="#3F59E4"/>
<stop offset="0.75" stop-color="#4016A0"/>
<stop offset="1" stop-color="#191919"/>
</radialGradient>
<radialGradient id="paint11_radial_1408_9457" cx="0" cy="0" r="1" gradientUnits="userSpaceOnUse" gradientTransform="translate(187.422 89.0342) rotate(44.9403) scale(189.46 104.809)">
<stop stop-color="#191919"/>
<stop offset="0.177083" stop-color="#4016A0"/>
<stop offset="0.34375" stop-color="#3F59E4"/>
<stop offset="0.5" stop-color="#4CB7A3"/>
<stop offset="0.682292" stop-color="#F6F1E7"/>
<stop offset="0.807292" stop-color="#4016A0"/>
</radialGradient>
</defs>
</svg>
