<svg width="64" height="64" viewBox="0 0 64 64" fill="none" xmlns="http://www.w3.org/2000/svg">
<circle cx="32" cy="32" r="32" fill="#F44336"/>
<path d="M42.0683 17.2951C45.8017 17.9317 46.8667 20.4934 46.8067 23.1734V23.1167L45.1183 45.2267L23.2317 46.7217H23.245C21.4233 46.6484 17.3817 46.4701 17.1883 40.8134L19.2167 37.1101L23.32 46.6767L26.815 35.3934L26.74 35.4084L26.77 35.3784L38.1867 39.0217L35.2417 27.5001L46.125 26.8184L37.5517 19.7984L42.0683 17.2817V17.2967M17.1883 40.7534V40.7817V40.7534ZM23.5267 23.4567C27.91 19.0867 33.5817 16.5101 35.76 18.7167C37.9217 20.8934 35.64 26.2551 31.2567 30.6084C26.8133 34.9634 21.2317 37.6884 19.0533 35.4967C16.8767 33.2901 19.1133 27.8101 23.5117 23.4567H23.5267Z" fill="white"/>
</svg>
