<svg width="64" height="64" viewBox="0 0 64 64" fill="none" xmlns="http://www.w3.org/2000/svg">
<circle cx="32" cy="32" r="32" fill="#EFF0F2"/>
<path d="M51.7121 31.5104L50.0341 30.4707C50.0199 30.3075 50.004 30.1444 49.9863 29.9815L51.4311 28.636C51.5779 28.4992 51.6437 28.2966 51.6039 28.1009C51.585 28.0043 51.5416 27.9141 51.4778 27.8391C51.414 27.7642 51.332 27.7069 51.2396 27.6728L49.3934 26.9848C49.3469 26.825 49.2988 26.6658 49.249 26.507L50.3995 24.9093C50.5168 24.7468 50.5409 24.5354 50.4645 24.3512C50.4268 24.2605 50.3667 24.1808 50.2898 24.1197C50.2129 24.0586 50.1218 24.018 50.0249 24.0018L48.0793 23.6853C48.0038 23.5388 47.9258 23.3935 47.8454 23.2496L48.6634 21.4531C48.7047 21.3635 48.7223 21.2648 48.7146 21.1664C48.7069 21.0681 48.6741 20.9733 48.6194 20.8913C48.5646 20.8092 48.4898 20.7425 48.4019 20.6976C48.314 20.6527 48.2161 20.631 48.1176 20.6347L46.1414 20.7035C46.0394 20.5758 45.9355 20.4496 45.8295 20.3251L46.2844 18.4025C46.3071 18.3064 46.3049 18.2061 46.2779 18.1111C46.2509 18.0161 46.2001 17.9296 46.1303 17.8598C46.0605 17.7899 45.974 17.7391 45.879 17.7122C45.784 17.6852 45.6837 17.683 45.5876 17.7057L43.6649 18.1606C43.5401 18.0547 43.4137 17.9507 43.2858 17.8487L43.3549 15.8725C43.3582 15.7741 43.3362 15.6764 43.2912 15.5888C43.2462 15.5012 43.1796 15.4265 43.0976 15.3718C43.0157 15.3172 42.9212 15.2843 42.823 15.2763C42.7248 15.2683 42.6262 15.2855 42.5366 15.3263L40.7439 16.1443C40.5995 16.0647 40.4542 15.9866 40.3082 15.91L39.9909 13.9644C39.9753 13.8673 39.9349 13.7759 39.8737 13.6989C39.8125 13.6219 39.7326 13.562 39.6415 13.5248C39.5507 13.4871 39.4517 13.4732 39.354 13.4846C39.2563 13.4959 39.1632 13.5322 39.0835 13.5898L37.4857 14.7403C37.3284 14.6903 37.1704 14.6422 37.0118 14.5962L36.3238 12.75C36.2894 12.6578 36.2321 12.5759 36.1572 12.512C36.0823 12.4482 35.9923 12.4045 35.8958 12.3853C35.7993 12.366 35.6994 12.3717 35.6057 12.4019C35.512 12.4321 35.4276 12.4858 35.3605 12.5578L34.0151 14.0026C33.8526 13.9847 33.689 13.9682 33.5258 13.9548L32.4861 12.273C32.4342 12.1895 32.3619 12.1206 32.276 12.0728C32.19 12.0251 32.0933 12 31.995 12C31.8966 12 31.7999 12.0251 31.714 12.0728C31.6281 12.1206 31.5557 12.1895 31.5038 12.273L30.4641 13.9548C30.3008 13.9684 30.1377 13.9844 29.9749 14.0026L28.6294 12.5578C28.5622 12.486 28.4778 12.4324 28.3842 12.4022C28.2906 12.372 28.1908 12.3661 28.0943 12.385C27.9977 12.4041 27.9075 12.4477 27.8326 12.5116C27.7576 12.5755 27.7003 12.6576 27.6662 12.75L26.9782 14.5962C26.8184 14.6421 26.6602 14.6906 26.5042 14.7403L24.9065 13.5898C24.8268 13.5321 24.7337 13.4958 24.6359 13.4844C24.5382 13.473 24.4392 13.4869 24.3484 13.5248C24.1638 13.6013 24.0312 13.7687 23.9991 13.9644L23.6818 15.91C23.535 15.986 23.3898 16.0644 23.2461 16.1443L21.4534 15.3263C21.3637 15.2854 21.2651 15.2681 21.1669 15.2761C21.0687 15.284 20.9741 15.3169 20.8921 15.3716C20.8102 15.4263 20.7435 15.501 20.6985 15.5887C20.6535 15.6763 20.6317 15.774 20.635 15.8725L20.7038 17.8487C20.5762 17.9507 20.4496 18.0551 20.3246 18.1606L18.402 17.7057C18.3059 17.6829 18.2055 17.685 18.1105 17.7119C18.0155 17.7389 17.9289 17.7897 17.859 17.8595C17.7892 17.9294 17.7384 18.0159 17.7114 18.111C17.6845 18.206 17.6824 18.3064 17.7052 18.4025L18.1562 20.3251C18.0509 20.4499 17.9471 20.576 17.8451 20.7035L15.869 20.6347C15.7705 20.6314 15.6728 20.6533 15.5851 20.6983C15.4974 20.7433 15.4227 20.8099 15.368 20.8919C15.3133 20.9738 15.2804 21.0684 15.2725 21.1666C15.2646 21.2648 15.2819 21.3634 15.3227 21.4531L16.1407 23.2496C16.0612 23.3937 15.9825 23.539 15.9064 23.6853L13.9609 24.0018C13.8638 24.0177 13.7724 24.0582 13.6954 24.1193C13.6184 24.1805 13.5582 24.2603 13.5207 24.3512C13.4832 24.4421 13.4695 24.5411 13.481 24.6387C13.4925 24.7364 13.5287 24.8295 13.5863 24.9093L14.7368 26.507C14.6867 26.6648 14.6382 26.8235 14.5923 26.9848L12.7461 27.6728C12.6539 27.7072 12.5721 27.7646 12.5083 27.8395C12.4445 27.9145 12.401 28.0045 12.3818 28.101C12.3626 28.1975 12.3684 28.2973 12.3987 28.391C12.4289 28.4846 12.4826 28.569 12.5546 28.636L13.9995 29.9815C13.9815 30.1439 13.9654 30.3075 13.9517 30.4707L12.2737 31.5104C12.1036 31.6155 12 31.8013 12 32.0035C12 32.2057 12.1036 32.3895 12.2737 32.4928L13.9517 33.5324C13.9654 33.696 13.9815 33.8592 13.9995 34.0217L12.5546 35.3671C12.4828 35.4343 12.4293 35.5187 12.3992 35.6122C12.369 35.7058 12.3633 35.8056 12.3825 35.902C12.4016 35.9985 12.4451 36.0884 12.5087 36.1634C12.5724 36.2383 12.6541 36.2958 12.7461 36.3304L14.5923 37.0184C14.6382 37.1782 14.6867 37.3368 14.7368 37.4962L13.5863 39.0939C13.5284 39.1738 13.4921 39.2673 13.4807 39.3653C13.4693 39.4633 13.4833 39.5626 13.5213 39.6536C13.5592 39.7447 13.62 39.8245 13.6976 39.8854C13.7752 39.9462 13.8672 39.9862 13.9647 40.0013L15.9102 40.3178C15.9863 40.4654 16.0643 40.6106 16.1445 40.7536L15.3266 42.5462C15.2857 42.6359 15.2684 42.7345 15.2763 42.8327C15.2843 42.931 15.3171 43.0255 15.3718 43.1075C15.4265 43.1895 15.5013 43.2561 15.5889 43.3011C15.6766 43.3461 15.7743 43.3679 15.8728 43.3646L17.8451 43.2954C17.9479 43.4238 18.0515 43.5496 18.157 43.6746L17.706 45.5972C17.6601 45.7922 17.7178 45.9947 17.86 46.1362C17.9298 46.2061 18.0163 46.2569 18.1113 46.2838C18.2064 46.3107 18.3067 46.3128 18.4028 46.2898L20.3254 45.8388C20.4504 45.945 20.5769 46.0483 20.7046 46.1499L20.6358 48.1261C20.6326 48.2245 20.6545 48.3221 20.6996 48.4097C20.7446 48.4972 20.8113 48.5718 20.8932 48.6265C20.9752 48.6811 21.0697 48.7139 21.1678 48.7218C21.266 48.7296 21.3645 48.7123 21.4541 48.6715L23.2468 47.8535C23.3913 47.9338 23.5365 48.0118 23.6826 48.0878L23.9998 50.0334C24.0319 50.2314 24.1642 50.3988 24.3492 50.4768C24.5338 50.5536 24.7467 50.5288 24.9072 50.4122L26.505 49.2617C26.6628 49.3118 26.8215 49.3607 26.9828 49.4065L27.6708 51.2527C27.7407 51.44 27.9028 51.5788 28.0989 51.617C28.1954 51.6364 28.2953 51.6307 28.389 51.6004C28.4827 51.5702 28.567 51.5164 28.634 51.4442L29.9795 49.9994C30.1419 50.0181 30.3055 50.0338 30.4687 50.0483L31.5084 51.7263C31.6131 51.8956 31.7993 52 31.9977 52C32.196 52 32.3837 51.896 32.4907 51.7263L33.5304 50.0483C33.6937 50.0341 33.8568 50.0178 34.0197 49.9994L35.3651 51.4442C35.5016 51.591 35.7042 51.6568 35.9003 51.617C35.9969 51.5981 36.087 51.5546 36.1619 51.4908C36.2369 51.4271 36.2942 51.3451 36.3283 51.2527L37.0164 49.4065C37.1761 49.3607 37.3348 49.3118 37.4942 49.2617L39.0919 50.4122C39.1719 50.4698 39.2654 50.506 39.3633 50.5172C39.4613 50.5285 39.5605 50.5144 39.6515 50.4764C39.7425 50.4385 39.8222 50.3778 39.8831 50.3002C39.944 50.2227 39.984 50.1308 39.9993 50.0334L40.3166 48.0878C40.4633 48.0118 40.6086 47.9327 40.7523 47.8535L42.545 48.6715C42.6346 48.7128 42.7332 48.7304 42.8315 48.7228C42.9299 48.7151 43.0246 48.6823 43.1067 48.6276C43.1887 48.5729 43.2554 48.4981 43.3004 48.4103C43.3453 48.3225 43.367 48.2246 43.3633 48.1261L43.2945 46.1499C43.4222 46.0479 43.5487 45.945 43.6733 45.8388L45.596 46.2898C45.6917 46.3126 45.7916 46.3106 45.8863 46.2839C45.981 46.2572 46.0674 46.2068 46.1372 46.1375C46.2069 46.0681 46.2579 45.9821 46.2851 45.8875C46.3123 45.793 46.315 45.6931 46.2928 45.5972L45.8417 43.6746C45.9472 43.5496 46.0512 43.4238 46.1529 43.2954L48.129 43.3646C48.2275 43.3683 48.3252 43.3467 48.4129 43.3018C48.5006 43.2569 48.5753 43.1902 48.6297 43.1081C48.6847 43.0261 48.7177 42.9314 48.7256 42.8331C48.7335 42.7347 48.716 42.6359 48.6749 42.5462L47.8569 40.7536C47.9368 40.6087 48.0151 40.4634 48.0908 40.3178L50.0364 40.0013C50.1335 39.9859 50.2251 39.9457 50.3021 39.8845C50.3791 39.8232 50.439 39.7432 50.4759 39.652C50.5524 39.4674 50.5283 39.2544 50.411 39.0939L49.2604 37.4962C49.3101 37.3383 49.3587 37.1797 49.4049 37.0184L51.2511 36.3304C51.4388 36.26 51.5771 36.0984 51.6154 35.9023C51.6347 35.8057 51.629 35.7059 51.5988 35.6122C51.5685 35.5185 51.5148 35.4341 51.4426 35.3671L49.9978 34.0217C50.0153 33.8592 50.0314 33.6956 50.0455 33.5324L51.7235 32.4928C51.8936 32.388 51.9972 32.2019 51.9972 32.0035C51.9972 31.8051 51.894 31.6174 51.7239 31.5104H51.7121ZM40.4744 45.4619C40.1663 45.3949 39.8974 45.2083 39.7268 44.9431C39.5562 44.6779 39.4979 44.3558 39.5647 44.0476C39.5973 43.895 39.6596 43.7503 39.7481 43.6218C39.8366 43.4932 39.9496 43.3834 40.0806 43.2985C40.2116 43.2137 40.358 43.1555 40.5115 43.1273C40.665 43.0991 40.8226 43.1014 40.9752 43.1341C41.6173 43.2713 42.0263 43.9062 41.8887 44.5484C41.7511 45.1905 41.1204 45.5995 40.4783 45.4619H40.4744ZM39.9049 41.6014C39.7658 41.5713 39.6222 41.5691 39.4823 41.5947C39.3423 41.6204 39.2088 41.6735 39.0895 41.7509C38.9701 41.8284 38.8672 41.9286 38.7868 42.046C38.7063 42.1633 38.6498 42.2954 38.6206 42.4346L38.0243 45.2173C36.1265 46.0749 34.0676 46.5179 31.985 46.5169C29.7834 46.5169 27.704 46.0314 25.8311 45.1599L25.2348 42.3773C25.2053 42.2382 25.1486 42.1063 25.0681 41.9891C24.9876 41.8719 24.8847 41.7718 24.7654 41.6944C24.6461 41.617 24.5128 41.5639 24.3729 41.5381C24.2331 41.5123 24.0896 41.5143 23.9505 41.544L21.4928 42.0715C21.0372 41.6006 20.6132 41.1001 20.2237 40.5732H32.1876C32.3229 40.5732 32.4131 40.5487 32.4131 40.4256V36.1828C32.4131 36.0597 32.3229 36.0353 32.1876 36.0353H28.6902V33.3558H32.4705C32.8156 33.3558 34.3167 33.4544 34.7944 35.374C34.9447 35.9627 35.2761 37.8815 35.5016 38.4969C35.7263 39.1849 36.6406 40.5609 37.6153 40.5609H43.5782C43.6458 40.5609 43.7181 40.5533 43.7941 40.5395C43.3807 41.1005 42.9286 41.6318 42.441 42.1296L39.9259 41.5907L39.9049 41.6014ZM23.3542 45.4046C23.2016 45.4374 23.044 45.4399 22.8905 45.4117C22.7369 45.3836 22.5904 45.3254 22.4594 45.2405C22.3284 45.1557 22.2154 45.0458 22.1269 44.9172C22.0384 44.7886 21.9762 44.6437 21.9438 44.491C21.8774 44.1829 21.9361 43.8609 22.1071 43.5961C22.2781 43.3312 22.5472 43.1451 22.8554 43.0787C23.1636 43.0123 23.4855 43.071 23.7504 43.242C24.0153 43.413 24.2014 43.6821 24.2678 43.9903C24.3339 44.299 24.2749 44.6213 24.1036 44.8864C23.9323 45.1516 23.6628 45.338 23.3542 45.4046V45.4046ZM18.8057 27.0192C18.9332 27.3077 18.9413 27.635 18.8281 27.9294C18.7149 28.2238 18.4897 28.4614 18.2017 28.5902C17.6016 28.8566 16.9021 28.5856 16.6346 27.9862C16.367 27.3869 16.6392 26.6828 17.2385 26.4153C17.8386 26.1492 18.5381 26.4198 18.8057 27.0192ZM17.4105 30.3217L19.9715 29.1826C20.1016 29.125 20.2191 29.0424 20.3172 28.9393C20.4153 28.8363 20.4922 28.7149 20.5433 28.5821C20.5944 28.4493 20.6189 28.3077 20.6152 28.1654C20.6115 28.0232 20.5798 27.883 20.5219 27.7531L19.9944 26.5605H22.0661V35.887H17.8998C17.5289 34.5814 17.341 33.2307 17.3417 31.8735C17.3417 31.3422 17.3704 30.8186 17.4254 30.3026L17.4105 30.3217ZM28.6481 29.4158V26.6637H33.5789C33.8339 26.6637 35.3793 26.9584 35.3793 28.1124C35.3793 29.0718 34.1943 29.4158 33.2197 29.4158H28.6329H28.6481ZM46.5749 31.8926C46.5749 32.2581 46.5615 32.6189 46.5347 32.9782H45.0326C44.8823 32.9782 44.8219 33.0768 44.8219 33.224V33.912C44.8219 35.5326 43.9084 35.8881 43.1057 35.976C42.3413 36.062 41.4965 35.6565 41.3933 35.1886C40.9423 32.6544 40.1931 32.1155 39.0082 31.1752C40.4798 30.2425 42.0087 28.8627 42.0087 27.0089C42.0087 25.0174 40.6441 23.7637 39.7153 23.1483C38.4081 22.2883 36.9632 22.1163 36.5734 22.1163H21.0547C23.1608 19.7694 26.0237 18.1028 29.2345 17.4913L31.0654 19.4101C31.1636 19.5132 31.2813 19.5959 31.4115 19.6535C31.5418 19.711 31.6821 19.7423 31.8245 19.7456C31.9668 19.7489 32.1085 19.724 32.2412 19.6725C32.374 19.6209 32.4953 19.5437 32.5981 19.4452L34.6469 17.4882C38.9279 18.2871 42.5591 20.9551 44.6614 24.636L43.2586 27.8008C43.1424 28.0634 43.135 28.3614 43.2382 28.6294C43.3414 28.8974 43.5467 29.1136 43.809 29.2304L46.5076 30.4306C46.5542 30.9084 46.5787 31.3938 46.5787 31.8831L46.5749 31.8926ZM31.0562 15.8771C31.1688 15.7692 31.3016 15.6846 31.4469 15.6282C31.5923 15.5717 31.7473 15.5445 31.9032 15.5481C32.0591 15.5517 32.2128 15.586 32.3554 15.6491C32.498 15.7122 32.6267 15.8028 32.7342 15.9157C32.9514 16.1443 33.0691 16.4496 33.0618 16.7647C33.0544 17.0799 32.9225 17.3794 32.6948 17.5975C32.5823 17.7055 32.4495 17.7901 32.3041 17.8466C32.1588 17.9031 32.0037 17.9303 31.8477 17.9267C31.6918 17.9231 31.5382 17.8887 31.3956 17.8255C31.253 17.7623 31.1243 17.6716 31.0168 17.5585C30.7997 17.33 30.6819 17.0247 30.6893 16.7095C30.6967 16.3943 30.8286 16.0949 31.0562 15.8767V15.8771ZM44.9695 27.0765C45.0325 26.9338 45.1231 26.8049 45.236 26.6972C45.349 26.5895 45.482 26.5052 45.6276 26.4491C45.7732 26.393 45.9285 26.3662 46.0845 26.3702C46.2405 26.3742 46.3941 26.409 46.5366 26.4726C46.6795 26.5361 46.8084 26.6271 46.916 26.7404C47.0237 26.8537 47.108 26.9871 47.164 27.133C47.2201 27.2789 47.2469 27.4344 47.2429 27.5906C47.2389 27.7468 47.2041 27.9008 47.1406 28.0436C47.0776 28.1863 46.987 28.3152 46.874 28.4229C46.7611 28.5306 46.628 28.6149 46.4824 28.671C46.3368 28.7271 46.1816 28.7539 46.0256 28.7499C45.8696 28.7458 45.7159 28.711 45.5734 28.6475C45.4306 28.584 45.3017 28.493 45.194 28.3797C45.0864 28.2664 45.0021 28.133 44.946 27.9871C44.8899 27.8412 44.8631 27.6857 44.8672 27.5295C44.8712 27.3732 44.906 27.2193 44.9695 27.0765Z" fill="black"/>
</svg>
