<svg width="72" height="44" viewBox="0 0 72 44" fill="none" xmlns="http://www.w3.org/2000/svg">
<g id="sage" clip-path="url(#clip0_2069_21507)">
<path id="Vector" d="M8.34804 3.66669C12.8223 3.66669 16.4603 6.76094 16.5441 11.0675C16.586 12.2799 15.7079 12.9494 14.7461 12.9494C13.8261 12.9494 13.0318 12.2808 12.9899 11.1514C12.948 8.72566 10.8994 6.92759 8.30616 6.92759C5.88047 6.92759 4.04144 8.64188 4.04144 10.9837C4.04144 13.5342 5.75572 14.6637 9.30995 15.9599C13.1147 17.3398 16.586 18.9703 16.586 23.8207C16.586 28.0444 13.2823 31.431 8.68327 31.431C4.16716 31.431 0.445312 28.253 0.445312 23.9464C0.445312 21.2702 1.74149 19.3884 2.99576 19.3884C4.08335 19.3884 4.75191 20.0989 4.75191 21.0607C4.75191 21.8969 4.04144 22.2731 4.04144 23.7788C4.04144 26.4549 6.2157 28.1692 8.68327 28.1692C11.2756 28.1692 12.9899 26.3711 12.9899 24.1969C12.9899 21.5207 11.2756 20.3922 7.72139 19.137C3.74907 17.7169 0.445312 16.0017 0.445312 11.277C0.445312 7.01235 3.87385 3.66669 8.34804 3.66669Z" fill="#FFFEFA"/>
<path id="Vector_2" d="M26.5973 31.4319C22.0812 31.4319 18.3184 27.7938 18.3184 23.1939C18.3184 18.4273 22.1231 14.8731 26.723 14.8731C31.6571 14.8731 35.1275 18.5531 35.1275 23.5711V29.6757C35.1275 30.7214 34.2914 31.4319 33.3297 31.4319C32.3259 31.4319 31.4895 30.7214 31.4895 29.6757V23.6958C31.4895 20.3921 29.6078 18.134 26.6392 18.134C24.0049 18.134 21.9145 20.3502 21.9145 23.1939C21.9145 25.8282 23.963 28.0862 26.5563 28.0862C27.5182 28.0862 27.9363 27.8358 28.522 27.8358C29.3163 27.8358 30.1525 28.5043 30.1525 29.4662C30.1516 30.7624 28.6039 31.4319 26.5973 31.4319Z" fill="#FFFEFA"/>
<path id="Vector_3" d="M45.4305 43.8927C40.747 43.8927 36.8584 40.547 36.8584 36.1985C36.8584 34.7348 37.6945 34.0663 38.6565 34.0663C39.6182 34.0663 40.4126 34.6939 40.4546 35.9061C40.4964 38.6242 42.6707 40.6309 45.3888 40.6309C48.2744 40.6309 50.1552 38.791 50.1552 36.407C50.1552 33.689 48.0648 32.5605 44.5106 31.431C40.3708 30.0929 36.8584 28.2529 36.8584 23.152C36.8584 18.4683 40.4546 14.8731 45.1373 14.8731C49.862 14.8731 53.7515 18.3016 53.7515 22.8177C53.7515 25.5777 52.623 27.7101 51.0752 27.7101C50.0297 27.7101 49.3191 26.9577 49.3191 26.0377C49.3191 25.0758 50.1552 24.6577 50.1552 22.9435C50.1552 20.0578 47.8971 18.135 45.1791 18.135C42.5448 18.135 40.4546 20.1425 40.4546 22.7768C40.4546 25.7453 42.5869 27.0005 46.0993 28.171C50.1552 29.509 53.7515 31.1814 53.7515 36.0738C53.7515 40.4641 50.2811 43.8927 45.4305 43.8927Z" fill="#FFFEFA"/>
<path id="Vector_4" d="M64.0138 31.432C59.3299 31.432 55.4834 27.7521 55.4834 23.1531C55.4834 18.5531 59.2052 14.8741 63.8041 14.8741C68.4461 14.8741 71.9583 18.0941 71.9583 22.1921C71.9583 23.7807 70.8298 24.7426 68.9899 24.7426H64.1814C63.2194 24.7426 62.5088 24.074 62.5088 23.195C62.5088 22.3588 63.2194 21.6893 64.1814 21.6893H67.7773C68.1117 21.6893 68.3632 21.5217 68.3632 21.1874C68.3632 19.975 66.8156 18.0931 63.9308 18.0931C61.2548 18.0931 59.0805 20.3931 59.0805 23.1531C59.0805 25.9549 61.2965 28.1711 64.0564 28.1711C67.2347 28.1711 68.2802 26.2892 69.5763 26.2892C70.6639 26.2892 71.2489 26.9997 71.2489 27.7949C71.2489 28.5473 70.7468 29.2168 69.4925 30.0111C68.2365 30.8044 66.3557 31.432 64.0138 31.432Z" fill="#FFFEFA"/>
</g>
<defs>
<clipPath id="clip0_2069_21507">
<rect width="71.5" height="44" fill="white" transform="translate(0.452148)"/>
</clipPath>
</defs>
</svg>
