<svg width="64" height="64" viewBox="0 0 64 64" fill="none" xmlns="http://www.w3.org/2000/svg">
<circle cx="32" cy="32" r="32" fill="#60B746"/>
<path d="M46.7365 39.9514C42.3121 45.8451 32.8592 43.8558 26.805 44.141C26.805 44.141 25.7312 44.2009 24.6479 44.3807C24.6479 44.3807 25.0578 44.2057 25.5778 44.0259C29.8321 42.5543 31.8382 42.2571 34.4291 40.9413C39.2897 38.4535 44.124 33.032 45.1091 27.3972C43.2588 32.8163 37.6336 37.478 32.5117 39.381C29.0052 40.6753 22.6658 41.9336 22.6658 41.9336C22.6658 41.9336 22.4117 41.8017 22.4093 41.7969C18.0951 39.6998 17.9729 30.362 25.8031 27.3516C29.2377 26.031 32.5141 26.7572 36.2339 25.8728C40.1909 24.9309 44.7759 21.9637 46.6406 18.0857C48.7282 24.2598 51.2376 33.9547 46.7365 39.9514V39.9514ZM46.8132 16.1444C46.3091 17.3446 45.6656 18.4813 44.8958 19.531C43.2308 17.7926 41.2331 16.4071 39.0215 15.4569C36.8099 14.5067 34.4297 14.0113 32.0226 14.0002C29.6156 13.9891 27.2309 14.4625 25.0106 15.3922C22.7903 16.3219 20.7799 17.689 19.0989 19.4119C17.418 21.1348 16.101 23.1784 15.2263 25.4209C14.3516 27.6635 13.9372 30.0591 14.0077 32.4651C14.0782 34.8712 14.6321 37.2384 15.6366 39.4259C16.6411 41.6134 18.0755 43.5764 19.8544 45.1979L20.2474 45.5455C20.0117 45.3544 19.838 45.0978 19.7481 44.808C19.6583 44.5182 19.6564 44.2082 19.7428 43.9174C19.8291 43.6265 19.9997 43.3677 20.2331 43.1739C20.4665 42.98 20.7522 42.8597 21.0539 42.8282C21.3557 42.7967 21.6601 42.8553 21.9285 42.9968C22.1969 43.1383 22.4173 43.3562 22.5619 43.6229C22.7065 43.8897 22.7687 44.1933 22.7407 44.4954C22.7127 44.7975 22.5957 45.0846 22.4045 45.3202C22.1479 45.6355 21.7768 45.8362 21.3725 45.8785C20.9682 45.9207 20.5636 45.801 20.2474 45.5455L20.5159 45.7852C23.0461 47.9155 26.1161 49.3045 29.3866 49.7987C32.6571 50.2929 36.0005 49.8729 39.0471 48.5853C42.0938 47.2976 44.7249 45.1924 46.6496 42.5025C48.5743 39.8126 49.7176 36.6427 49.953 33.3435C50.4323 28.7897 49.0997 23.0159 46.8132 16.1444" fill="white"/>
</svg>
