<svg width="64" height="64" viewBox="0 0 64 64" fill="none" xmlns="http://www.w3.org/2000/svg">
<circle cx="32" cy="32" r="32" fill="#F1F3F7"/>
<path d="M47.5603 14.9818C47.0258 16.2582 46.3477 17.4703 45.5311 18.5834C41.9578 15.0115 37.1076 13.0029 32.0544 13.0029C21.6017 13.0029 13 21.6111 13 32.0745C13 37.2938 15.1381 42.2905 18.9192 45.8921L19.622 46.5154C23.0568 49.4096 27.4071 51.0026 31.8961 51.0026C41.8341 51.0026 50.1883 43.2156 50.8961 33.2915C51.4157 28.4333 49.9904 22.2889 47.5603 14.9818ZM21.6265 46.0009C21.3196 46.3819 20.8494 46.6045 20.3595 46.6045C19.4637 46.6045 18.7312 45.8674 18.7312 44.9719C18.7312 44.0765 19.4686 43.3393 20.3595 43.3393C20.7307 43.3393 21.0969 43.4679 21.384 43.7054C22.0818 44.2694 22.1907 45.3034 21.6265 46.0009ZM47.4811 40.2918C42.7794 46.56 32.7374 44.4475 26.2985 44.7493C26.2985 44.7493 25.1552 44.8185 24.007 45.0065C24.007 45.0065 24.4376 44.8235 24.9969 44.6108C29.5155 43.0375 31.6536 42.7308 34.4004 41.3209C39.5723 38.6889 44.6848 32.9304 45.7489 26.9393C43.7791 32.7028 37.8104 37.655 32.3712 39.6685C28.6444 41.0438 21.9135 42.3796 21.9135 42.3796L21.6413 42.2361C17.0583 40.0049 16.9198 30.0758 25.2493 26.87C28.8968 25.465 32.386 26.2368 36.3256 25.2968C40.5324 24.2974 45.3975 21.1411 47.3772 17.025C49.5944 23.6098 52.262 33.9198 47.4811 40.2918V40.2918Z" fill="#77BC1F"/>
</svg>
