<svg width="64" height="64" viewBox="0 0 64 64" fill="none" xmlns="http://www.w3.org/2000/svg">
<circle cx="32" cy="32" r="32" fill="#BA7D3C"/>
<g clip-path="url(#clip0_1914_77891)">
<path d="M47.1316 39.1841V25.2893C47.1309 24.6802 46.9701 24.0819 46.6653 23.5545C46.3605 23.0271 45.9223 22.5892 45.3947 22.2846L33.2368 15.3372C32.7088 15.0323 32.1098 14.8718 31.5 14.8718C30.8902 14.8718 30.2912 15.0323 29.7632 15.3372L17.6053 22.2846C17.0777 22.5892 16.6395 23.0271 16.3347 23.5545C16.0298 24.0819 15.869 24.6802 15.8684 25.2893V39.1841C15.869 39.7932 16.0298 40.3915 16.3347 40.9189C16.6395 41.4463 17.0777 41.8842 17.6053 42.1888L29.7632 49.1362C30.2912 49.441 30.8902 49.6015 31.5 49.6015C32.1098 49.6015 32.7088 49.441 33.2368 49.1362L45.3947 42.1888C45.9223 41.8842 46.3605 41.4463 46.6653 40.9189C46.9701 40.3915 47.1309 39.7932 47.1316 39.1841Z" fill="#BA7D3C" stroke="white" stroke-width="1.73684" stroke-linecap="round" stroke-linejoin="round"/>
<path d="M16.3374 23.4832L31.5 32.2542L46.6626 23.4832M31.5 49.7442V32.2368" stroke="white" stroke-width="1.73684" stroke-linecap="round" stroke-linejoin="round"/>
</g>
<defs>
<clipPath id="clip0_1914_77891">
<rect width="33" height="36.6126" fill="white" transform="translate(15 14)"/>
</clipPath>
</defs>
</svg>
