<svg width="64" height="64" viewBox="0 0 64 64" fill="none" xmlns="http://www.w3.org/2000/svg">
<circle cx="32" cy="32" r="32" fill="#F1F3F7"/>
<path d="M51.9996 31.9986C51.9996 43.0451 43.0454 52 31.9993 52C20.9539 52 12 43.0451 12 31.9986C12 20.9539 20.9535 12 31.9993 12C43.0454 12 51.9996 20.9539 51.9996 31.9986Z" fill="black"/>
<path d="M40.7442 19.3999C38.7126 19.4695 36.9391 20.591 35.6186 22.1387C34.1564 23.838 33.185 25.8514 32.4836 27.9087C31.2304 26.881 30.2644 25.5512 28.2527 24.9727C26.6982 24.5259 25.066 24.7099 23.5646 25.8282C22.8543 26.3592 22.3639 27.1613 22.1311 27.9176C21.5277 29.8783 22.7651 31.625 23.3271 32.2509L24.5564 33.5671C24.8092 33.8257 25.4201 34.499 25.1213 35.464C24.8003 36.5149 23.534 37.1935 22.2355 36.7945C21.6553 36.6165 20.8223 36.1847 21.0092 35.5774C21.0858 35.3281 21.2641 35.1405 21.3601 34.928C21.4471 34.7422 21.4895 34.6045 21.5163 34.5214C21.7534 33.7479 21.4289 32.7405 20.5998 32.4841C19.8255 32.2466 19.0339 32.4349 18.7268 33.4309C18.3784 34.5628 18.9205 36.6173 21.8226 37.5109C25.2229 38.5576 28.0979 36.7053 28.5063 34.2921C28.7634 32.7804 28.0801 31.656 26.8298 30.2121L25.8102 29.0841C25.1933 28.4675 24.9815 27.4163 25.6202 26.6085C26.1594 25.9267 26.9268 25.6364 28.1846 25.978C30.0211 26.4759 30.8389 27.75 32.204 28.7778C31.6412 30.6276 31.2722 32.4837 30.9391 34.1481L30.7344 35.3894C29.7587 40.5076 29.0134 43.3188 27.0769 44.9324C26.6868 45.2102 26.1291 45.6253 25.2889 45.6553C24.8474 45.6685 24.7051 45.365 24.699 45.2323C24.6894 44.9239 24.9497 44.7816 25.1227 44.6432C25.382 44.502 25.7732 44.2677 25.7461 43.5177C25.7182 42.6319 24.984 41.8634 23.9234 41.8984C23.1285 41.9251 21.9174 42.6726 21.9631 44.042C22.0098 45.4567 23.3279 46.5162 25.3156 46.4491C26.378 46.4127 28.7509 45.9812 31.0885 43.2021C33.8098 40.0158 34.5712 36.3641 35.1439 33.6909L35.7833 30.1615C36.1371 30.2039 36.5176 30.2328 36.9306 30.2428C40.3198 30.3145 42.0144 28.5596 42.0401 27.2822C42.0576 26.5094 41.5337 25.748 40.7995 25.7662C40.2749 25.7808 39.6155 26.1307 39.4579 26.8564C39.3024 27.5678 40.5359 28.2108 39.572 28.8366C38.8873 29.2796 37.6602 29.5912 35.9313 29.3384L36.2455 27.601C36.887 24.3066 37.6784 20.2547 40.6804 20.1556C40.8997 20.1452 41.6992 20.1649 41.7181 20.6948C41.7231 20.8706 41.6792 20.917 41.4724 21.3214C41.2613 21.6366 41.1821 21.9062 41.1925 22.2143C41.221 23.0545 41.8604 23.608 42.7869 23.5759C44.0254 23.5345 44.3806 22.3291 44.3603 21.7097C44.3082 20.2529 42.7737 19.3329 40.7442 19.3999V19.3999Z" fill="white"/>
</svg>
