<svg width="64" height="64" viewBox="0 0 64 64" fill="none" xmlns="http://www.w3.org/2000/svg">
<circle cx="32" cy="32" r="32" fill="#0288D1"/>
<path fill-rule="evenodd" clip-rule="evenodd" d="M17 17V47H47V17H17ZM39.7956 31.5713V31.5718C40.0832 31.5726 40.4102 31.5874 40.6561 31.6141C41.6575 31.7224 42.4374 32.1545 43.1008 32.9682C43.4312 33.3736 43.5442 33.551 43.5201 33.6268C43.5046 33.6758 43.2779 33.8382 42.5572 34.3165C41.8492 34.7866 41.6212 34.9274 41.5682 34.9274C41.5145 34.9274 41.4026 34.8123 41.2413 34.5912C40.9307 34.1655 40.6135 33.9713 40.1233 33.9065C39.5961 33.8366 39.1232 34.0028 38.8915 34.3394C38.6935 34.6271 38.6636 35.0899 38.821 35.4262C39.0033 35.8157 39.3333 36.031 40.5979 36.5855C42.0565 37.2251 42.7956 37.6628 43.3339 38.2061C43.9136 38.7911 44.2073 39.4665 44.2975 40.422C44.3415 40.8877 44.2877 41.4396 44.1545 41.8884C43.8276 42.9885 42.9457 43.794 41.653 44.1731C41.2957 44.2779 40.9632 44.3404 40.6343 44.3646C40.1321 44.4015 39.4135 44.3812 38.9809 44.3182C37.8865 44.1588 36.651 43.5219 36.035 42.7999C35.7326 42.4454 35.3465 41.862 35.3465 41.7594C35.3465 41.7099 35.371 41.6817 35.4682 41.6199C35.7566 41.4367 37.409 40.4921 37.441 40.4921C37.4604 40.4921 37.5468 40.5938 37.6328 40.7182C37.8277 40.9996 38.3071 41.4834 38.5507 41.6448C38.7498 41.7766 39.0043 41.8824 39.3065 41.9588C39.4796 42.002 39.5713 42.0097 39.9489 42.0097C40.3348 42.0096 40.4139 42.0031 40.5865 41.9567C41.0432 41.8338 41.3996 41.5795 41.5506 41.2689C41.6168 41.1347 41.6181 41.1179 41.6181 40.7924V40.4549L41.5369 40.2939C41.3404 39.9038 40.9168 39.636 39.5777 39.056C38.9626 38.7896 38.2093 38.4139 37.9152 38.227C37.244 37.8004 36.7788 37.3128 36.4735 36.7159C36.1698 36.1223 36.1246 35.9013 36.1238 35.0088C36.1231 34.31 36.1219 34.3186 36.2665 33.8726C36.3978 33.4679 36.6665 33.0159 36.9631 32.7006C37.555 32.0714 38.4199 31.667 39.3459 31.5865C39.4643 31.5753 39.6229 31.571 39.7955 31.5715L39.7956 31.5713ZM31.8279 31.7093H31.8282C33.6115 31.7102 34.6338 31.7164 34.6502 31.7267C34.6811 31.7458 34.685 31.901 34.685 32.8915V34.0343L32.9055 34.0407L31.126 34.0472V39.0996C31.126 41.8785 31.1204 44.1686 31.1126 44.1888C31.1001 44.2229 30.9632 44.2254 29.8053 44.2254H28.5121L28.4988 44.1732C28.4901 44.1446 28.4838 41.8543 28.4837 39.084L28.4832 34.0469L26.7038 34.0406L24.9243 34.0341V32.9049C24.9243 32.0093 24.9304 31.7695 24.9543 31.7457C24.9788 31.7204 25.887 31.714 29.8001 31.7101C30.5545 31.7093 31.2335 31.709 31.828 31.7093H31.8279Z" fill="white"/>
</svg>
